SplineFontDB: 3.0
FontName: Balthazar-Regular
FullName: Balthazar Regular
FamilyName: Balthazar
Weight: Regular
Copyright: Copyright (c) 2011, Dario Manuel Muhafara (http://www.tipo.net.ar), with Reserved Font Name "Balthazar".
Version: 001.001
ItalicAngle: 0
UnderlinePosition: -50
UnderlineWidth: 50
Ascent: 800
Descent: 200
sfntRevision: 0x00010000
LayerCount: 2
Layer: 0 1 "Back"  1
Layer: 1 1 "Fore"  0
NeedsXUIDChange: 1
XUID: [1021 288 713564382 10320552]
FSType: 0
OS2Version: 2
OS2_WeightWidthSlopeOnly: 0
OS2_UseTypoMetrics: 1
CreationTime: 1323277094
ModificationTime: 1323305949
PfmFamily: 17
TTFWeight: 400
TTFWidth: 5
LineGap: 0
VLineGap: 0
Panose: 2 0 5 6 7 0 0 2 0 4
OS2TypoAscent: -4
OS2TypoAOffset: 1
OS2TypoDescent: -22
OS2TypoDOffset: 1
OS2TypoLinegap: 0
OS2WinAscent: 0
OS2WinAOffset: 1
OS2WinDescent: 0
OS2WinDOffset: 1
HheadAscent: 0
HheadAOffset: 1
HheadDescent: 0
HheadDOffset: 1
OS2SubXSize: 700
OS2SubYSize: 650
OS2SubXOff: 0
OS2SubYOff: 140
OS2SupXSize: 700
OS2SupYSize: 650
OS2SupXOff: 0
OS2SupYOff: 477
OS2StrikeYSize: 50
OS2StrikeYPos: 250
OS2Vendor: 'pyrs'
OS2CodePages: 20000001.00000000
OS2UnicodeRanges: 8000002f.5000204a.00000000.00000000
Lookup: 258 0 0 "'kern' Horizontal Kerning in Latin lookup 0"  {"'kern' Horizontal Kerning in Latin lookup 0 subtable"  } ['kern' ('DFLT' <'dflt' > 'latn' <'dflt' > ) ]
MarkAttachClasses: 1
DEI: 91125
TtTable: prep
PUSHW_1
 511
SCANCTRL
PUSHB_1
 4
SCANTYPE
EndTTInstrs
LangName: 1033 "" "" "" "DarioManuelMuhafara: Balthazar: 2011" "Balthazar-Regular" "Version 1.000" "" "Balthazar is a trademark of Dario Manuel Muhafara." "Dario Manuel Muhafara" "Dario Manuel Muhafara" "" "http://www.tipo.net.ar" "http://www.tipo.net.ar" "This Font Software is licensed under the SIL Open Font License,+AA0A-Version 1.1. This license is available with a FAQ at:+AA0A-http://scripts.sil.org/OFL" "http://scripts.sil.org/OFL" 
GaspTable: 1 65535 15
Encoding: UnicodeBmp
UnicodeInterp: none
NameList: Adobe Glyph List
DisplaySize: -36

StartChar: A
Encoding: 65 65 1
Width: 565
Flags: HMW
HStem: 0 21G<-9 159> 204 67<192 370 192 394 166 370> 585 20G<209 373 373 373>
LayerCount: 2
Fore
SplineSet
413 151 m 1,0,-1
 394 204 l 1,1,-1
 166 204 l 1,2,-1
 146 151 l 1,3,-1
 116 26 l 1,4,-1
 159 21 l 1,5,-1
 158 0 l 1,6,-1
 -9 0 l 1,7,-1
 -10 19 l 1,8,-1
 20 26 l 1,9,-1
 246 579 l 1,10,-1
 208 586 l 1,11,-1
 209 605 l 1,12,-1
 373 605 l 1,13,-1
 374 586 l 1,14,-1
 336 579 l 1,15,-1
 545 26 l 1,16,-1
 575 19 l 1,17,-1
 574 0 l 1,18,-1
 396 0 l 1,19,-1
 395 21 l 1,20,-1
 438 26 l 1,21,-1
 413 151 l 1,0,-1
285 507 m 1,22,-1
 192 271 l 1,23,-1
 370 271 l 1,24,-1
 285 507 l 1,22,-1
EndSplineSet
EndChar

StartChar: B
Encoding: 66 66 2
Width: 547
Flags: HMW
HStem: -4 61<252.5 308.5 252.5 313> 285 52<240 249 236.5 302> 548 60<249.5 293>
VStem: 102 83 374 93<416 478> 399 68 399 93<133 201 95 212>
LayerCount: 2
Fore
SplineSet
90 27 m 1,0,-1
 102 198 l 1,1,-1
 102 408 l 1,2,-1
 90 578 l 1,3,-1
 60 585 l 1,4,-1
 61 604 l 1,5,6
 230 608 230 608 261 608 c 0,7,8
 467 608 467 608 467 447 c 0,9,10
 467 354 467 354 386 314 c 1,11,12
 492 271 492 271 492 168.5 c 128,-1,13
 492 66 492 66 429 31 c 128,-1,14
 366 -4 366 -4 229 -4 c 0,15,16
 164 -4 164 -4 61 1 c 1,17,-1
 60 20 l 1,18,-1
 90 27 l 1,0,-1
181 197 m 1,19,-1
 190 63 l 1,20,21
 234 57 234 57 263 57 c 0,22,23
 399 57 399 57 399 171 c 0,24,25
 399 232 399 232 364 258.5 c 128,-1,26
 329 285 329 285 248 285 c 0,27,28
 242 285 242 285 181 282 c 1,29,-1
 181 197 l 1,19,-1
181 407 m 1,30,-1
 181 340 l 1,31,32
 213.082074231 336.562634904 213.082074231 336.562634904 239.642892746 336.562634904 c 0,33,34
 313.303909186 336.562634904 313.303909186 336.562634904 344.5 363 c 0,35,36
 374 388 374 388 374 443 c 0,37,38
 374 548 374 548 253 548 c 0,39,40
 228 548 228 548 190 542 c 1,41,-1
 181 407 l 1,30,-1
EndSplineSet
EndChar

StartChar: C
Encoding: 67 67 3
Width: 558
Flags: HMW
HStem: -20 21G<468 488 468 468> -15 66<266 344 266 347.5> 554 66<261 337.5>
VStem: 50 96<225.5 384.5 225.5 393.5>
LayerCount: 2
Fore
SplineSet
190 489.5 m 128,-1,1
 146 425 146 425 146 305.5 c 128,-1,2
 146 186 146 186 192.5 118.5 c 128,-1,3
 239 51 239 51 318.5 51 c 128,-1,4
 398 51 398 51 488 103 c 1,5,-1
 505 143 l 1,6,-1
 523 139 l 1,7,-1
 488 -20 l 1,8,-1
 468 -20 l 1,9,-1
 469 5 l 1,10,11
 402 -15 402 -15 319 -15 c 0,12,13
 192 -15 192 -15 121 66 c 128,-1,14
 50 147 50 147 50 295.5 c 128,-1,15
 50 444 50 444 127 532 c 128,-1,16
 204 620 204 620 336 620 c 0,17,18
 402 620 402 620 476 595 c 1,19,-1
 483 620 l 1,20,-1
 502 620 l 1,21,-1
 495 466 l 1,22,-1
 476 466 l 1,23,-1
 469 508 l 1,24,25
 381 554 381 554 316 554 c 0,26,0
 234 554 234 554 190 489.5 c 128,-1,1
EndSplineSet
EndChar

StartChar: D
Encoding: 68 68 4
Width: 639
Flags: HMW
HStem: -3 64<281.5 367.5 281.5 387.5> 548 60<272.5 358>
VStem: 102 79<198 406> 498 91<217.5 381.5>
LayerCount: 2
Fore
SplineSet
90 27 m 1,0,-1
 102 198 l 1,1,-1
 102 407 l 1,2,-1
 90 578 l 1,3,-1
 60 585 l 1,4,-1
 61 604 l 1,5,6
 183 608 183 608 296 608 c 0,7,8
 445 608 445 608 517 537 c 128,-1,9
 589 466 589 466 589 311.5 c 0,10,11
 589 -3 589 -3 285 -3 c 1,12,-1
 61 1 l 1,13,-1
 60 20 l 1,14,-1
 90 27 l 1,0,-1
181 197 m 1,15,-1
 189 77 l 1,16,17
 239 61 239 61 302 61 c 0,18,19
 498 61 498 61 498 296 c 0,20,21
 498 424 498 424 446 486 c 128,-1,22
 394 548 394 548 286 548 c 0,23,24
 239 548 239 548 190 532 c 1,25,-1
 181 406 l 1,26,-1
 181 197 l 1,15,-1
EndSplineSet
EndChar

StartChar: E
Encoding: 69 69 5
Width: 542
Flags: HMW
HStem: -27 21G<456 456> 0 68<190 338 190 439> 293 68<181 370 181 373> 537 68<190 338 190 190> 614 20G<456 475 475 475>
VStem: 102 83
LayerCount: 2
Fore
SplineSet
445 527 m 1,0,-1
 338 537 l 1,1,-1
 190 537 l 1,2,-1
 181 407 l 1,3,-1
 181 361 l 1,4,-1
 373 361 l 1,5,-1
 381 390 l 1,6,-1
 400 390 l 1,7,-1
 394 253 l 1,8,-1
 375 253 l 1,9,-1
 370 293 l 1,10,-1
 181 293 l 1,11,-1
 181 197 l 1,12,-1
 190 68 l 1,13,-1
 338 68 l 1,14,-1
 453 79 l 1,15,-1
 470 119 l 1,16,-1
 487 115 l 1,17,-1
 456 -27 l 1,18,-1
 438 -26 l 1,19,-1
 439 0 l 1,20,-1
 61 0 l 1,21,-1
 60 19 l 1,22,-1
 90 26 l 1,23,-1
 102 198 l 1,24,-1
 102 408 l 1,25,-1
 90 579 l 1,26,-1
 60 586 l 1,27,-1
 61 605 l 1,28,-1
 448 605 l 1,29,-1
 456 634 l 1,30,-1
 475 634 l 1,31,-1
 469 487 l 1,32,-1
 450 487 l 1,33,-1
 445 527 l 1,0,-1
EndSplineSet
EndChar

StartChar: F
Encoding: 70 70 6
Width: 495
Flags: HMW
HStem: 0 21G<61 237> 268 68<181 370 181 373> 537 68<190 338 190 190> 614 20G<456 475 475 475>
VStem: 102 79<198 268 336 407>
LayerCount: 2
Fore
SplineSet
181 197 m 1,0,-1
 193 26 l 1,1,-1
 237 21 l 1,2,-1
 236 0 l 1,3,-1
 61 0 l 1,4,-1
 60 19 l 1,5,-1
 90 26 l 1,6,-1
 102 198 l 1,7,-1
 102 408 l 1,8,-1
 90 579 l 1,9,-1
 60 586 l 1,10,-1
 61 605 l 1,11,-1
 448 605 l 1,12,-1
 456 634 l 1,13,-1
 475 634 l 1,14,-1
 469 487 l 1,15,-1
 450 487 l 1,16,-1
 445 527 l 1,17,-1
 338 537 l 1,18,-1
 190 537 l 1,19,-1
 181 407 l 1,20,-1
 181 336 l 1,21,-1
 373 336 l 1,22,-1
 381 365 l 1,23,-1
 400 365 l 1,24,-1
 394 228 l 1,25,-1
 375 228 l 1,26,-1
 370 268 l 1,27,-1
 181 268 l 1,28,-1
 181 197 l 1,0,-1
EndSplineSet
EndChar

StartChar: G
Encoding: 71 71 7
Width: 615
Flags: HMW
HStem: -15 66<266 341 266 365.5> 554 66<270.5 353.5>
VStem: 50 96<225.5 384.5 225.5 393.5> 466 78
LayerCount: 2
Fore
SplineSet
545 244 m 1,0,-1
 544 78 l 1,1,-1
 551 38 l 1,2,3
 462 -15 462 -15 327 -15 c 0,4,5
 192 -15 192 -15 121 66 c 128,-1,6
 50 147 50 147 50 295.5 c 0,7,8
 50 444 50 444 131.5 532 c 128,-1,9
 213 620 213 620 353 620 c 0,10,11
 424 620 424 620 503 595 c 1,12,-1
 510 620 l 1,13,-1
 529 620 l 1,14,-1
 522 466 l 1,15,-1
 503 466 l 1,16,-1
 496 508 l 1,17,18
 403 554 403 554 330 554 c 0,19,20
 241 554 241 554 193.5 489.5 c 128,-1,21
 146 425 146 425 146 305.5 c 0,22,23
 146 186 146 186 192.5 118.5 c 128,-1,24
 239 51 239 51 313.5 51 c 0,25,26
 388 51 388 51 469 93 c 1,27,-1
 463 244 l 1,28,-1
 423 249 l 1,29,-1
 424 270 l 1,30,-1
 574 270 l 1,31,-1
 575 251 l 1,32,-1
 545 244 l 1,0,-1
EndSplineSet
EndChar

StartChar: H
Encoding: 72 72 8
Width: 670
Flags: HMW
HStem: 0 21G<61 233> 286 67<181 489 181 489> 585 20G<61 232 232 232 438 609 609 609>
VStem: 102 85 483 85
LayerCount: 2
Fore
SplineSet
193 579 m 1,0,-1
 181 407 l 1,1,-1
 181 353 l 1,2,-1
 489 353 l 1,3,-1
 489 408 l 1,4,-1
 477 579 l 1,5,-1
 437 584 l 1,6,-1
 438 605 l 1,7,-1
 609 605 l 1,8,-1
 610 586 l 1,9,-1
 580 579 l 1,10,-1
 568 407 l 1,11,-1
 568 197 l 1,12,-1
 580 26 l 1,13,-1
 610 19 l 1,14,-1
 609 0 l 1,15,-1
 438 0 l 1,16,-1
 437 21 l 1,17,-1
 477 26 l 1,18,-1
 489 198 l 1,19,-1
 489 286 l 1,20,-1
 181 286 l 1,21,-1
 181 197 l 1,22,-1
 193 26 l 1,23,-1
 233 21 l 1,24,-1
 232 0 l 1,25,-1
 61 0 l 1,26,-1
 60 19 l 1,27,-1
 90 26 l 1,28,-1
 102 198 l 1,29,-1
 102 408 l 1,30,-1
 90 579 l 1,31,-1
 60 586 l 1,32,-1
 61 605 l 1,33,-1
 232 605 l 1,34,-1
 233 584 l 1,35,-1
 193 579 l 1,0,-1
EndSplineSet
EndChar

StartChar: I
Encoding: 73 73 9
Width: 283
Flags: HMW
HStem: 0 21G<61 222 61 61> 585 20G<61 222 222 222>
VStem: 102 79<198 407 197 408 197 408>
LayerCount: 2
Fore
SplineSet
90 26 m 1,0,-1
 102 198 l 1,1,-1
 102 408 l 1,2,-1
 90 579 l 1,3,-1
 60 586 l 1,4,-1
 61 605 l 1,5,-1
 222 605 l 1,6,-1
 223 586 l 1,7,-1
 193 579 l 1,8,-1
 181 407 l 1,9,-1
 181 197 l 1,10,-1
 193 26 l 1,11,-1
 223 19 l 1,12,-1
 222 0 l 1,13,-1
 61 0 l 1,14,-1
 60 19 l 1,15,-1
 90 26 l 1,0,-1
EndSplineSet
EndChar

StartChar: J
Encoding: 74 74 10
Width: 392
Flags: HMW
HStem: -19 21G<8 8> -15 68<125 170 125 171.5> 585 20G<180 341 341 341>
VStem: 221 79<198 407>
LayerCount: 2
Fore
SplineSet
300 407 m 1,0,-1
 300 185 l 2,1,2
 300 94 300 94 249.5 39.5 c 128,-1,3
 199 -15 199 -15 116 -15 c 0,4,5
 67 -15 67 -15 22 3 c 1,6,-1
 8 -19 l 1,7,-1
 -10 -13 l 1,8,-1
 42 137 l 1,9,-1
 60 132 l 1,10,-1
 55 89 l 1,11,12
 97 53 97 53 141.5 53 c 0,13,14
 186 53 186 53 203.5 83.5 c 128,-1,15
 221 114 221 114 221 198 c 2,16,-1
 221 408 l 1,17,-1
 209 579 l 1,18,-1
 179 586 l 1,19,-1
 180 605 l 1,20,-1
 341 605 l 1,21,-1
 342 586 l 1,22,-1
 312 579 l 1,23,-1
 300 407 l 1,0,-1
EndSplineSet
EndChar

StartChar: K
Encoding: 75 75 11
Width: 548
Flags: HMW
HStem: 0 21G<364 557 364 365> 585 20G<61 222 222 222 343 530 530 530>
VStem: 102 79<198 407 197 408 197 408>
LayerCount: 2
Fore
SplineSet
501 579 m 1,0,-1
 276 339 l 1,1,-1
 528 26 l 1,2,-1
 558 19 l 1,3,-1
 557 0 l 1,4,-1
 365 0 l 1,5,-1
 364 21 l 1,6,-1
 407 26 l 1,7,-1
 294 198 l 1,8,-1
 191 317 l 1,9,-1
 191 327 l 1,10,-1
 308 464 l 1,11,-1
 384 579 l 1,12,-1
 342 584 l 1,13,-1
 343 605 l 1,14,-1
 530 605 l 1,15,-1
 531 586 l 1,16,-1
 501 579 l 1,0,-1
90 26 m 1,17,-1
 102 198 l 1,18,-1
 102 408 l 1,19,-1
 90 579 l 1,20,-1
 60 586 l 1,21,-1
 61 605 l 1,22,-1
 222 605 l 1,23,-1
 223 586 l 1,24,-1
 193 579 l 1,25,-1
 181 407 l 1,26,-1
 181 197 l 1,27,-1
 193 26 l 1,28,-1
 223 19 l 1,29,-1
 222 0 l 1,30,-1
 61 0 l 1,31,-1
 60 19 l 1,32,-1
 90 26 l 1,17,-1
EndSplineSet
EndChar

StartChar: L
Encoding: 76 76 12
Width: 422
Flags: HMW
HStem: -27 21G<396 396> 0 68<190 278 190 379> 585 20G<61 232 232 232>
VStem: 102 79<198 407 197 408 197 408>
LayerCount: 2
Fore
SplineSet
90 26 m 1,0,-1
 102 198 l 1,1,-1
 102 408 l 1,2,-1
 90 579 l 1,3,-1
 60 586 l 1,4,-1
 61 605 l 1,5,-1
 232 605 l 1,6,-1
 233 584 l 1,7,-1
 193 579 l 1,8,-1
 181 407 l 1,9,-1
 181 197 l 1,10,-1
 190 68 l 1,11,-1
 278 68 l 1,12,-1
 393 79 l 1,13,-1
 410 119 l 1,14,-1
 427 115 l 1,15,-1
 396 -27 l 1,16,-1
 378 -26 l 1,17,-1
 379 0 l 1,18,-1
 61 0 l 1,19,-1
 60 19 l 1,20,-1
 90 26 l 1,0,-1
EndSplineSet
EndChar

StartChar: M
Encoding: 77 77 13
Width: 768
Flags: HMW
HStem: 0 21G<51 219> 585 20G<77 254 254 254 513 691 691 691>
VStem: 106 68 581 80
LayerCount: 2
Fore
SplineSet
80 26 m 1,0,-1
 101 198 l 1,1,-1
 112 408 l 1,2,-1
 106 579 l 1,3,-1
 76 586 l 1,4,-1
 77 605 l 1,5,-1
 254 605 l 1,6,-1
 255 586 l 1,7,-1
 213 579 l 1,8,-1
 227 540 l 1,9,-1
 395 193 l 1,10,-1
 541 540 l 1,11,-1
 553 579 l 1,12,-1
 512 586 l 1,13,-1
 513 605 l 1,14,-1
 691 605 l 1,15,-1
 692 586 l 1,16,-1
 662 579 l 1,17,-1
 656 407 l 1,18,-1
 667 197 l 1,19,-1
 688 26 l 1,20,-1
 718 19 l 1,21,-1
 717 0 l 1,22,-1
 540 0 l 1,23,-1
 539 21 l 1,24,-1
 583 26 l 1,25,-1
 589 198 l 1,26,-1
 574 452 l 1,27,-1
 405 70 l 1,28,-1
 377 67 l 1,29,-1
 180 452 l 1,30,-1
 169 197 l 1,31,-1
 175 26 l 1,32,-1
 219 21 l 1,33,-1
 218 0 l 1,34,-1
 51 0 l 1,35,-1
 50 19 l 1,36,-1
 80 26 l 1,0,-1
EndSplineSet
EndChar

StartChar: N
Encoding: 78 78 14
Width: 672
Flags: HMW
HStem: 0 21G<61 226> 585 20G<61 227 227 227 446 611 611 611>
VStem: 102 72<198 408 408 408> 498 78
LayerCount: 2
Fore
SplineSet
90 26 m 1,0,-1
 102 198 l 1,1,-1
 102 408 l 1,2,-1
 89 579 l 1,3,-1
 60 586 l 1,4,-1
 61 605 l 1,5,-1
 227 605 l 1,6,-1
 228 584 l 1,7,-1
 184 579 l 1,8,-1
 183 579 l 1,9,-1
 498 146 l 1,10,-1
 498 408 l 1,11,-1
 485 579 l 1,12,-1
 445 584 l 1,13,-1
 446 605 l 1,14,-1
 611 605 l 1,15,-1
 612 586 l 1,16,-1
 582 579 l 1,17,-1
 570 407 l 1,18,-1
 570 224 l 1,19,-1
 582 26 l 1,20,-1
 612 19 l 1,21,-1
 611 0 l 1,22,-1
 449 0 l 1,23,-1
 448 21 l 1,24,-1
 493 26 l 1,25,-1
 174 463 l 1,26,-1
 174 197 l 1,27,-1
 186 26 l 1,28,-1
 226 21 l 1,29,-1
 225 0 l 1,30,-1
 61 0 l 1,31,-1
 60 19 l 1,32,-1
 90 26 l 1,0,-1
EndSplineSet
EndChar

StartChar: O
Encoding: 79 79 15
Width: 678
Flags: HMW
HStem: -15 66<287.5 416 287.5 419.5> 554 66<261 390>
VStem: 50 96<219 386 219 393.5> 532 96<216.5 386.5>
LayerCount: 2
Fore
SplineSet
188.5 492.5 m 128,-1,1
 146 431 146 431 146 305.5 c 128,-1,2
 146 180 146 180 200.5 115.5 c 128,-1,3
 255 51 255 51 351 51 c 128,-1,4
 447 51 447 51 489.5 111.5 c 128,-1,5
 532 172 532 172 532 299.5 c 128,-1,6
 532 427 532 427 478 490.5 c 128,-1,7
 424 554 424 554 327.5 554 c 128,-1,0
 231 554 231 554 188.5 492.5 c 128,-1,1
124 67.5 m 128,-1,9
 50 150 50 150 50 297 c 128,-1,10
 50 444 50 444 131 532 c 128,-1,11
 212 620 212 620 346 620 c 128,-1,12
 480 620 480 620 554 538 c 128,-1,13
 628 456 628 456 628 309 c 128,-1,14
 628 162 628 162 546.5 73.5 c 128,-1,15
 465 -15 465 -15 331.5 -15 c 128,-1,8
 198 -15 198 -15 124 67.5 c 128,-1,9
EndSplineSet
EndChar

StartChar: P
Encoding: 80 80 16
Width: 523
Flags: HMW
HStem: 0 21G<61 234> 231 65<182 301 182 301> 548 60<254.5 309.5>
VStem: 102 86 400 93<375 462>
LayerCount: 2
Fore
SplineSet
90 26 m 1,0,-1
 102 198 l 1,1,-1
 102 408 l 1,2,-1
 90 578 l 1,3,-1
 60 585 l 1,4,-1
 61 604 l 1,5,6
 243 608 243 608 272 608 c 0,7,8
 493 608 493 608 493 424 c 0,9,10
 493 330 493 330 425 280.5 c 128,-1,11
 357 231 357 231 222 231 c 2,12,-1
 182 231 l 1,13,-1
 182 197 l 1,14,-1
 194 26 l 1,15,-1
 234 21 l 1,16,-1
 233 0 l 1,17,-1
 61 0 l 1,18,-1
 60 19 l 1,19,-1
 90 26 l 1,0,-1
264 548 m 0,20,21
 225 548 225 548 191 537 c 1,22,-1
 182 407 l 1,23,-1
 182 300 l 1,24,25
 197 296 197 296 246 296 c 0,26,27
 329 296 329 296 364.5 324.5 c 128,-1,28
 400 353 400 353 400 419 c 0,29,30
 400 548 400 548 264 548 c 0,20,21
EndSplineSet
EndChar

StartChar: Q
Encoding: 81 81 17
Width: 678
Flags: HMW
HStem: -152 21G<565 565> -15 66<287.5 348.5> 554 66<261 390>
VStem: 50 96<219 386 219 393.5> 532 96<250 386.5>
LayerCount: 2
Fore
SplineSet
124 67.5 m 128,-1,1
 50 150 50 150 50 297 c 128,-1,2
 50 444 50 444 131 532 c 128,-1,3
 212 620 212 620 346 620 c 128,-1,4
 480 620 480 620 554 538 c 128,-1,5
 628 456 628 456 628 311 c 0,6,7
 628 219 628 219 595.5 147.5 c 128,-1,8
 563 76 563 76 502 35 c 1,9,-1
 658 -94 l 1,10,-1
 701 -88 l 1,11,-1
 706 -105 l 1,12,-1
 565 -152 l 1,13,-1
 517 -79 l 1,14,-1
 444 5 l 1,15,16
 390 -15 390 -15 328 -15 c 0,17,0
 198 -15 198 -15 124 67.5 c 128,-1,1
188.5 492.5 m 128,-1,19
 146 431 146 431 146 305.5 c 128,-1,20
 146 180 146 180 200.5 115.5 c 128,-1,21
 255 51 255 51 351 51 c 128,-1,22
 447 51 447 51 489.5 111.5 c 128,-1,23
 532 172 532 172 532 299.5 c 128,-1,24
 532 427 532 427 478 490.5 c 128,-1,25
 424 554 424 554 327.5 554 c 128,-1,18
 231 554 231 554 188.5 492.5 c 128,-1,19
EndSplineSet
EndChar

StartChar: R
Encoding: 82 82 18
Width: 553
Flags: HMW
HStem: 0 21G<61 235> 262 48 548 60<262.5 318>
VStem: 102 79<198 407 197 408 197 408> 410 93<385 469>
LayerCount: 2
Fore
SplineSet
90 26 m 1,0,-1
 102 198 l 1,1,-1
 102 408 l 1,2,-1
 90 578 l 1,3,-1
 60 585 l 1,4,-1
 61 604 l 1,5,6
 223 608 223 608 276 608 c 0,7,8
 503 608 503 608 503 434 c 0,9,10
 503 356 503 356 456.5 311 c 128,-1,11
 410 266 410 266 323 262 c 1,12,-1
 527 26 l 1,13,-1
 558 19 l 1,14,-1
 557 0 l 1,15,-1
 362 0 l 1,16,-1
 361 21 l 1,17,-1
 403 26 l 1,18,-1
 295 183 l 1,19,-1
 193 300 l 1,20,-1
 195 310 l 1,21,22
 323 314 323 314 366.5 338 c 128,-1,23
 410 362 410 362 410 430 c 0,24,25
 410 548 410 548 272 548 c 0,26,27
 233 548 233 548 190 537 c 1,28,-1
 181 407 l 1,29,-1
 181 197 l 1,30,-1
 193 26 l 1,31,-1
 235 21 l 1,32,-1
 234 0 l 1,33,-1
 61 0 l 1,34,-1
 60 19 l 1,35,-1
 90 26 l 1,0,-1
EndSplineSet
EndChar

StartChar: S
Encoding: 83 83 19
Width: 500
Flags: HMW
HStem: -15 66<221 287.5 221 288.5> 557 63<217 273.5> 607 20G<409 428 428 428>
VStem: 64 89<404.5 505> 377 47 377 78<117.5 226.5>
LayerCount: 2
Fore
SplineSet
112 142 m 1,0,-1
 107 96 l 1,1,2
 185 51 185 51 246 51 c 0,3,4
 307 51 307 51 342 76 c 128,-1,5
 377 101 377 101 377 141.5 c 0,6,7
 377 182 377 182 354 210.5 c 128,-1,8
 331 239 331 239 296 254 c 128,-1,9
 261 269 261 269 220.5 287.5 c 128,-1,10
 180 306 180 306 145 323.5 c 128,-1,11
 110 341 110 341 87 375 c 128,-1,12
 64 409 64 409 64 456 c 0,13,14
 64 529 64 529 124.5 574.5 c 128,-1,15
 185 620 185 620 281 620 c 0,16,17
 340 620 340 620 402 601 c 1,18,-1
 409 627 l 1,19,-1
 428 627 l 1,20,-1
 420 458 l 1,21,-1
 401 458 l 1,22,-1
 394 501 l 1,23,24
 309 557 309 557 245 557 c 0,25,26
 201 557 201 557 177 537.5 c 128,-1,27
 153 518 153 518 153 479 c 0,28,29
 153 440 153 440 184 412 c 128,-1,30
 215 384 215 384 259.5 367 c 128,-1,31
 304 350 304 350 348.5 330.5 c 128,-1,32
 393 311 393 311 424 272.5 c 128,-1,33
 455 234 455 234 455 176 c 0,34,35
 455 88 455 88 390 36.5 c 128,-1,36
 325 -15 325 -15 216 -15 c 0,37,38
 152 -15 152 -15 72 8 c 1,39,-1
 58 -14 l 1,40,-1
 40 -8 l 1,41,-1
 94 147 l 1,42,-1
 112 142 l 1,0,-1
EndSplineSet
EndChar

StartChar: T
Encoding: 84 84 20
Width: 465
Flags: HMW
HStem: 0 21G<138 329 138 138> 537 65 618 20G<9 28 28 28 437 456 456 456>
VStem: 194 79<198 407 197 408 197 408>
LayerCount: 2
Fore
SplineSet
33 609 m 1,0,-1
 160 602 l 1,1,-1
 305 602 l 1,2,-1
 432 609 l 1,3,-1
 437 638 l 1,4,-1
 456 638 l 1,5,-1
 460 496 l 1,6,-1
 441 496 l 1,7,-1
 432 535 l 1,8,-1
 282 540 l 1,9,-1
 273 407 l 1,10,-1
 273 197 l 1,11,-1
 285 26 l 1,12,-1
 330 19 l 1,13,-1
 329 0 l 1,14,-1
 138 0 l 1,15,-1
 137 19 l 1,16,-1
 182 26 l 1,17,-1
 194 198 l 1,18,-1
 194 408 l 1,19,-1
 184 540 l 1,20,-1
 33 535 l 1,21,-1
 24 496 l 1,22,-1
 5 496 l 1,23,-1
 9 638 l 1,24,-1
 28 638 l 1,25,-1
 33 609 l 1,0,-1
EndSplineSet
EndChar

StartChar: U
Encoding: 85 85 21
Width: 632
Flags: HMW
HStem: -15 66<261 364.5 261 384> 585 20G<51 222 222 222 411 581 581 581>
VStem: 86 85 455 85
LayerCount: 2
Fore
SplineSet
183 579 m 1,0,-1
 171 407 l 1,1,-1
 171 297 l 2,2,3
 171 165 171 165 203.5 108 c 128,-1,4
 236 51 236 51 313.5 51 c 0,5,6
 391 51 391 51 426 101 c 128,-1,7
 461 151 461 151 461 264 c 2,8,-1
 461 408 l 1,9,-1
 450 579 l 1,10,-1
 410 584 l 1,11,-1
 411 605 l 1,12,-1
 581 605 l 1,13,-1
 582 586 l 1,14,-1
 552 579 l 1,15,-1
 540 407 l 1,16,-1
 540 275 l 2,17,18
 540 -15 540 -15 305 -15 c 0,19,20
 92 -15 92 -15 92 263 c 2,21,-1
 92 408 l 1,22,-1
 80 579 l 1,23,-1
 50 586 l 1,24,-1
 51 605 l 1,25,-1
 222 605 l 1,26,-1
 223 584 l 1,27,-1
 183 579 l 1,0,-1
EndSplineSet
EndChar

StartChar: V
Encoding: 86 86 22
Width: 550
Flags: HMW
HStem: 0 21G<194 351 194 194> 585 20G<-9 175 175 175 385 559 559 559>
LayerCount: 2
Fore
SplineSet
530 579 m 1,0,-1
 321 26 l 1,1,-1
 352 19 l 1,2,-1
 351 0 l 1,3,-1
 194 0 l 1,4,-1
 193 19 l 1,5,-1
 224 26 l 1,6,-1
 20 579 l 1,7,-1
 -10 586 l 1,8,-1
 -9 605 l 1,9,-1
 175 605 l 1,10,-1
 176 584 l 1,11,-1
 132 579 l 1,12,-1
 156 446 l 1,13,-1
 281 84 l 1,14,-1
 405 446 l 1,15,-1
 428 579 l 1,16,-1
 384 584 l 1,17,-1
 385 605 l 1,18,-1
 559 605 l 1,19,-1
 560 586 l 1,20,-1
 530 579 l 1,0,-1
EndSplineSet
EndChar

StartChar: W
Encoding: 87 87 23
Width: 883
Flags: HMW
HStem: 0 21G<184 352 184 184 529 529 529 694> 585 20G<-9 175 175 175 356 540 540 540 717 892 892 892>
LayerCount: 2
Fore
SplineSet
572 26 m 1,0,-1
 443 469 l 1,1,-1
 309 26 l 1,2,-1
 353 19 l 1,3,-1
 352 0 l 1,4,-1
 184 0 l 1,5,-1
 183 19 l 1,6,-1
 214 26 l 1,7,-1
 20 579 l 1,8,-1
 -10 586 l 1,9,-1
 -9 605 l 1,10,-1
 175 605 l 1,11,-1
 176 584 l 1,12,-1
 132 579 l 1,13,-1
 156 446 l 1,14,-1
 266 100 l 1,15,-1
 399 579 l 1,16,-1
 355 584 l 1,17,-1
 356 605 l 1,18,-1
 540 605 l 1,19,-1
 541 584 l 1,20,-1
 497 579 l 1,21,-1
 628 100 l 1,22,-1
 737 446 l 1,23,-1
 760 579 l 1,24,-1
 716 584 l 1,25,-1
 717 605 l 1,26,-1
 892 605 l 1,27,-1
 893 586 l 1,28,-1
 863 579 l 1,29,-1
 663 26 l 1,30,-1
 695 19 l 1,31,-1
 694 0 l 1,32,-1
 529 0 l 1,33,-1
 528 19 l 1,34,-1
 572 26 l 1,0,-1
EndSplineSet
EndChar

StartChar: X
Encoding: 88 88 24
Width: 563
Flags: HMW
HStem: 0 21G<-4 186> 585 20G<9 218 218 218 369 555 555 555>
LayerCount: 2
Fore
SplineSet
419 446 m 1,0,-1
 327 314 l 1,1,-1
 434 159 l 1,2,-1
 537 26 l 1,3,-1
 570 19 l 1,4,-1
 569 0 l 1,5,-1
 359 0 l 1,6,-1
 358 21 l 1,7,-1
 402 25 l 1,8,-1
 353 132 l 1,9,-1
 271 252 l 1,10,-1
 193 141 l 1,11,-1
 142 26 l 1,12,-1
 186 21 l 1,13,-1
 185 0 l 1,14,-1
 -4 0 l 1,15,-1
 -5 19 l 1,16,-1
 28 26 l 1,17,-1
 133 159 l 1,18,-1
 233 307 l 1,19,-1
 139 446 l 1,20,-1
 37 579 l 1,21,-1
 8 586 l 1,22,-1
 9 605 l 1,23,-1
 218 605 l 1,24,-1
 219 584 l 1,25,-1
 170 579 l 1,26,-1
 221 471 l 1,27,-1
 291 368 l 1,28,-1
 357 464 l 1,29,-1
 408 579 l 1,30,-1
 368 584 l 1,31,-1
 369 605 l 1,32,-1
 555 605 l 1,33,-1
 556 586 l 1,34,-1
 526 579 l 1,35,-1
 419 446 l 1,0,-1
EndSplineSet
EndChar

StartChar: Y
Encoding: 89 89 25
Width: 502
Flags: HMW
HStem: 0 21G<157 348 157 157> 585 20G<-4 175 175 175 340 506 506 506>
VStem: 207 91
LayerCount: 2
Fore
SplineSet
137 579 m 1,0,-1
 174 472 l 1,1,-1
 258 315 l 1,2,-1
 344 470 l 1,3,-1
 381 579 l 1,4,-1
 339 584 l 1,5,-1
 340 605 l 1,6,-1
 506 605 l 1,7,-1
 507 586 l 1,8,-1
 477 579 l 1,9,-1
 292 255 l 1,10,-1
 292 197 l 1,11,-1
 304 26 l 1,12,-1
 349 19 l 1,13,-1
 348 0 l 1,14,-1
 157 0 l 1,15,-1
 156 19 l 1,16,-1
 201 26 l 1,17,-1
 213 198 l 1,18,-1
 213 242 l 1,19,-1
 25 579 l 1,20,-1
 -5 586 l 1,21,-1
 -4 605 l 1,22,-1
 175 605 l 1,23,-1
 176 584 l 1,24,-1
 137 579 l 1,0,-1
EndSplineSet
EndChar

StartChar: Z
Encoding: 90 90 26
Width: 462
Flags: HMW
HStem: -31 21G<424 424> 5 61 537 68 614 20G<26 45 45 45>
LayerCount: 2
Fore
SplineSet
53 605 m 1,0,-1
 329 605 l 1,1,-1
 445 613 l 1,2,-1
 453 596 l 1,3,-1
 131 63 l 1,4,-1
 293 69 l 1,5,-1
 421 87 l 1,6,-1
 438 128 l 1,7,-1
 455 124 l 1,8,-1
 424 -31 l 1,9,-1
 406 -30 l 1,10,-1
 407 -3 l 1,11,-1
 264 5 l 1,12,-1
 119 5 l 1,13,-1
 14 -1 l 1,14,-1
 6 15 l 1,15,-1
 316 540 l 1,16,-1
 163 534 l 1,17,-1
 56 522 l 1,18,-1
 51 482 l 1,19,-1
 32 482 l 1,20,-1
 26 634 l 1,21,-1
 45 634 l 1,22,-1
 53 605 l 1,0,-1
EndSplineSet
EndChar

StartChar: a
Encoding: 97 97 27
Width: 455
Flags: HMW
HStem: -15 56<178.5 187> 358 56<194.5 238> 405 20G<64 80 80 80>
VStem: 40 85<92 133 92 146.5> 297 77<265 276 276 302>
LayerCount: 2
Fore
SplineSet
80 425 m 1,0,-1
 89 403 l 1,1,2
 153 414 153 414 198 414 c 0,3,4
 283 414 283 414 328.5 378.5 c 128,-1,5
 374 343 374 343 374 276 c 1,6,-1
 372 177 l 1,7,-1
 381 27 l 1,8,-1
 415 20 l 1,9,-1
 414 1 l 1,10,-1
 290 -8 l 1,11,-1
 290 33 l 1,12,13
 231 -15 231 -15 170 -15 c 128,-1,14
 109 -15 109 -15 74.5 18 c 128,-1,15
 40 51 40 51 40 109 c 128,-1,16
 40 167 40 167 90 195.5 c 128,-1,17
 140 224 140 224 297 250 c 1,18,-1
 297 276 l 2,19,20
 297 315 297 315 274.5 336.5 c 128,-1,21
 252 358 252 358 208 358 c 128,-1,22
 164 358 164 358 95 329 c 1,23,-1
 91 292 l 1,24,-1
 74 291 l 1,25,-1
 64 425 l 1,26,-1
 80 425 l 1,0,-1
158.5 158.5 m 128,-1,28
 125 143 125 143 125 112 c 128,-1,29
 125 81 125 81 146 61 c 128,-1,30
 167 41 167 41 206.5 41 c 128,-1,31
 246 41 246 41 290 85 c 1,32,-1
 295 193 l 1,33,27
 192 174 192 174 158.5 158.5 c 128,-1,28
EndSplineSet
EndChar

StartChar: acute
Encoding: 180 180 28
Width: 430
Flags: HMW
HStem: 481 21G<168 168> 595 20G
LayerCount: 2
Fore
SplineSet
168 481 m 1,0,-1
 152 496 l 1,1,-1
 243 614 l 1,2,3
 270 620 270 620 302 620 c 0,4,5
 334 620 334 620 353 606 c 1,6,-1
 354 588 l 1,7,-1
 168 481 l 1,0,-1
EndSplineSet
EndChar

StartChar: ampersand
Encoding: 38 38 29
Width: 586
Flags: HMW
HStem: -15 56<210.5 268> 0 21G<437 575 437 437> 567 53<200.5 247.5>
VStem: 40 86<129 189.5 129 190.5> 65 82<469.5 513 469.5 522.5> 302 81<462.5 511.5> 419 80<213 299>
LayerCount: 2
Fore
SplineSet
451 108 m 1,0,1
 461.5 97.5 461.5 97.5 544 26 c 1,2,-1
 576 19 l 1,3,-1
 575 0 l 1,4,-1
 437 0 l 1,5,-1
 396 39 l 1,6,7
 334 -15 334 -15 238 -15 c 128,-1,8
 142 -15 142 -15 91 30 c 128,-1,9
 40 75 40 75 40 158 c 0,10,11
 40 207 40 207 62.5 242.5 c 128,-1,12
 85 278 85 278 135 308 c 1,13,14
 65 402 65 402 65 473.5 c 128,-1,15
 65 545 65 545 110.5 582.5 c 128,-1,16
 156 620 156 620 230.5 620 c 128,-1,17
 305 620 305 620 344 585.5 c 128,-1,18
 383 551 383 551 383 494 c 0,19,20
 383 385 383 385 230 322 c 1,21,22
 281 260 281 260 408 146 c 1,23,24
 419 187 419 187 419 219.5 c 128,-1,25
 419 252 419 252 414 299 c 1,26,-1
 370 304 l 1,27,-1
 371 325 l 1,28,-1
 528 325 l 1,29,-1
 529 306 l 1,30,-1
 499 299 l 1,31,32
 491 181 491 181 451 108 c 1,0,1
170 265 m 1,33,34
 126 221 126 221 126 173 c 0,35,36
 126 41 126 41 253 41 c 0,37,38
 321 41 321 41 361 72 c 1,39,40
 225 200 225 200 170 265 c 1,33,34
279 419.5 m 128,-1,42
 302 450 302 450 302 486.5 c 128,-1,43
 302 523 302 523 280.5 545 c 128,-1,44
 259 567 259 567 223.5 567 c 128,-1,45
 188 567 188 567 167.5 546 c 128,-1,46
 147 525 147 525 147 488 c 0,47,48
 147 433 147 433 202 357 c 1,49,41
 256 389 256 389 279 419.5 c 128,-1,42
EndSplineSet
EndChar

StartChar: b
Encoding: 98 98 30
Width: 494
Flags: HMW
HStem: -15 55<247.5 296 247.5 309> 358 56<275 297> 594 20G<185 185>
VStem: 98 82 368 86<141 244.5>
LayerCount: 2
Fore
SplineSet
46 603 m 1,0,-1
 185 614 l 1,1,-1
 175 427 l 1,2,-1
 175 362 l 1,3,4
 232 414 232 414 298 414 c 0,5,6
 364 414 364 414 409 356.5 c 128,-1,7
 454 299 454 299 454 202.5 c 0,8,9
 454 106 454 106 398 45.5 c 128,-1,10
 342 -15 342 -15 251.5 -15 c 0,11,12
 161 -15 161 -15 58 15 c 1,13,-1
 60 34 l 1,14,-1
 90 34 l 1,15,-1
 98 177 l 1,16,-1
 98 428 l 1,17,-1
 89 577 l 1,18,-1
 45 584 l 1,19,-1
 46 603 l 1,0,-1
368 192 m 128,-1,21
 368 271 368 271 340.5 314.5 c 128,-1,22
 313 358 313 358 266.5 358 c 0,23,24
 220 358 220 358 175 308 c 1,25,-1
 175 177 l 1,26,-1
 182 51 l 1,27,28
 229 40 229 40 258 40 c 0,29,30
 315 40 315 40 341.5 76.5 c 128,-1,20
 368 113 368 113 368 192 c 128,-1,21
EndSplineSet
EndChar

StartChar: c
Encoding: 99 99 31
Width: 419
Flags: HMW
HStem: -26 21G<338 358 338 338> -15 56<206 248> 357 57<212.5 263.5> 406 20G<360 376 376 376>
VStem: 40 86<152.5 247 152.5 264.5>
LayerCount: 2
Fore
SplineSet
91.5 43.5 m 128,-1,1
 40 102 40 102 40 199.5 c 128,-1,2
 40 297 40 297 100 355.5 c 128,-1,3
 160 414 160 414 260 414 c 0,4,5
 303 414 303 414 352 404 c 1,6,-1
 360 426 l 1,7,-1
 376 426 l 1,8,-1
 369 288 l 1,9,-1
 352 288 l 1,10,-1
 349 326 l 1,11,12
 293 357 293 357 243.5 357 c 128,-1,13
 194 357 194 357 160 313.5 c 128,-1,14
 126 270 126 270 126 199.5 c 128,-1,15
 126 129 126 129 157.5 85 c 128,-1,16
 189 41 189 41 245 41 c 128,-1,17
 301 41 301 41 354 79 c 1,18,-1
 371 119 l 1,19,-1
 389 115 l 1,20,-1
 358 -26 l 1,21,-1
 338 -26 l 1,22,-1
 339 0 l 1,23,24
 286 -15 286 -15 230 -15 c 0,25,0
 143 -15 143 -15 91.5 43.5 c 128,-1,1
EndSplineSet
EndChar

StartChar: colon
Encoding: 58 58 32
Width: 211
Flags: HMW
HStem: -16 21G 386 20G
LayerCount: 2
Fore
SplineSet
181 335 m 1,0,1
 165 286 165 286 110 265 c 1,2,3
 60 280 60 280 40 335 c 1,4,5
 60 390 60 390 110 406 c 1,6,7
 166 384 166 384 181 335 c 1,0,1
181 54 m 1,8,9
 165 5 165 5 110 -16 c 1,10,11
 60 -1 60 -1 40 54 c 1,12,13
 60 109 60 109 110 125 c 1,14,15
 166 103 166 103 181 54 c 1,8,9
EndSplineSet
EndChar

StartChar: comma
Encoding: 44 44 33
Width: 210
Flags: HMW
HStem: -150 21G<80 80> 105 20G
LayerCount: 2
Fore
SplineSet
45 57 m 1,0,1
 67 111 67 111 110 125 c 1,2,3
 180 97 180 97 180 36.5 c 0,4,5
 180 -24 180 -24 80 -150 c 1,6,-1
 57 -134 l 1,7,8
 95 -72 95 -72 104 3 c 1,9,10
 79 11 79 11 66.5 22 c 128,-1,11
 54 33 54 33 45 57 c 1,0,1
EndSplineSet
EndChar

StartChar: d
Encoding: 100 100 34
Width: 484
Flags: HMW
HStem: -15 56<197 218> 359 55<200.5 250.5> 594 20G<406 406>
VStem: 40 86<154.5 258> 314 82
LayerCount: 2
Fore
SplineSet
314 -8 m 1,0,-1
 314 33 l 1,1,2
 259 -15 259 -15 194.5 -15 c 0,3,4
 130 -15 130 -15 85 42.5 c 128,-1,5
 40 100 40 100 40 196.5 c 0,6,7
 40 293 40 293 96 353.5 c 128,-1,8
 152 414 152 414 250 414 c 0,9,10
 282 414 282 414 319 406 c 1,11,-1
 319 428 l 1,12,-1
 310 577 l 1,13,-1
 266 584 l 1,14,-1
 267 603 l 1,15,-1
 406 614 l 1,16,-1
 396 427 l 1,17,-1
 396 178 l 1,18,-1
 405 27 l 1,19,-1
 439 20 l 1,20,-1
 438 1 l 1,21,-1
 314 -8 l 1,0,-1
126 207 m 128,-1,23
 126 128 126 128 153.5 84.5 c 128,-1,24
 181 41 181 41 225.5 41 c 0,25,26
 270 41 270 41 314 85 c 1,27,-1
 319 177 l 1,28,-1
 319 348 l 1,29,30
 271 359 271 359 240 359 c 0,31,32
 181 359 181 359 153.5 322.5 c 128,-1,22
 126 286 126 286 126 207 c 128,-1,23
EndSplineSet
EndChar

StartChar: dieresis
Encoding: 168 168 35
Width: 430
Flags: HMW
HStem: 486 21G 588 20G
LayerCount: 2
Fore
SplineSet
186 547 m 1,0,1
 213 587 213 587 244 608 c 1,2,3
 280 583 280 583 305 547 c 1,4,5
 282 511 282 511 244 486 c 1,6,7
 211 507 211 507 186 547 c 1,0,1
25 547 m 1,8,9
 50 585 50 585 86 608 c 1,10,11
 116 585 116 585 144 547 c 1,12,13
 116 507 116 507 86 486 c 1,14,15
 49 510 49 510 25 547 c 1,8,9
EndSplineSet
EndChar

StartChar: dotaccent
Encoding: 729 729 36
Width: 430
Flags: HMW
HStem: 486 21G 600 20G
LayerCount: 2
Fore
SplineSet
194 553 m 1,0,1
 179 507 179 507 127 486 c 1,2,3
 79 502 79 502 60 553 c 1,4,5
 80 604 80 604 127 620 c 1,6,7
 155 608 155 608 170.5 593 c 128,-1,8
 186 578 186 578 194 553 c 1,0,1
EndSplineSet
EndChar

StartChar: dotlessi
Encoding: 305 305 37
Width: 248
Flags: HMW
HStem: 0 21G<50 50 50 202> 389 20G<175 175>
VStem: 83 86
LayerCount: 2
Fore
SplineSet
50 0 m 1,0,-1
 49 19 l 1,1,-1
 79 26 l 1,2,-1
 88 177 l 1,3,-1
 88 221 l 1,4,-1
 79 372 l 1,5,-1
 45 379 l 1,6,-1
 46 398 l 1,7,-1
 175 409 l 1,8,-1
 165 221 l 1,9,-1
 165 177 l 1,10,-1
 173 26 l 1,11,-1
 203 19 l 1,12,-1
 202 0 l 1,13,-1
 50 0 l 1,0,-1
EndSplineSet
EndChar

StartChar: e
Encoding: 101 101 38
Width: 445
Flags: HMW
HStem: -15 56<205.5 253.5> -14 21G<377 393 377 377> 198 52<128 128 128 402 126 128> 358 56<198.5 261.5>
VStem: 40 86<151 198 151 256.5> 322 83<251 289>
LayerCount: 2
Fore
SplineSet
91.5 40 m 128,-1,1
 40 95 40 95 40 192.5 c 128,-1,2
 40 290 40 290 93 352 c 128,-1,3
 146 414 146 414 233.5 414 c 128,-1,4
 321 414 321 414 363 374 c 128,-1,5
 405 334 405 334 405 249 c 0,6,7
 405 225 405 225 402 198 c 1,8,-1
 126 198 l 1,9,10
 126 127 126 127 157 84 c 128,-1,11
 188 41 188 41 246 41 c 128,-1,12
 304 41 304 41 362 85 c 1,13,-1
 369 126 l 1,14,-1
 386 125 l 1,15,-1
 393 -14 l 1,16,-1
 377 -14 l 1,17,-1
 368 9 l 1,18,19
 303 -15 303 -15 223 -15 c 128,-1,0
 143 -15 143 -15 91.5 40 c 128,-1,1
128 250 m 1,20,-1
 322 251 l 1,21,22
 322 308 322 308 300 333 c 128,-1,23
 278 358 278 358 231 358 c 0,24,25
 138.188679245 358 138.188679245 358 128 250 c 1,20,-1
EndSplineSet
EndChar

StartChar: eight
Encoding: 56 56 39
Width: 473
Flags: HMW
HStem: -17 57<200.5 270 200.5 289> 525 56<204.5 267>
VStem: 45 79<115.5 171> 66 73<420.5 471 420.5 488> 333 73<421.5 469> 346 82<113 172>
LayerCount: 2
Fore
SplineSet
346 146 m 0,0,1
 346 222 346 222 227 275 c 1,2,3
 180 254 180 254 152 220 c 128,-1,4
 124 186 124 186 124 142 c 0,5,6
 124 98 124 98 153.5 69 c 128,-1,7
 183 40 183 40 235 40 c 0,8,9
 287 40 287 40 316.5 68.5 c 128,-1,10
 346 97 346 97 346 146 c 0,0,1
45 136 m 0,11,12
 45 189 45 189 76.5 225 c 128,-1,13
 108 261 108 261 180 292 c 1,14,15
 120 324 120 324 93 360.5 c 128,-1,16
 66 397 66 397 66 453 c 0,17,18
 66 509 66 509 113 545 c 128,-1,19
 160 581 160 581 237.5 581 c 0,20,21
 315 581 315 581 360.5 544.5 c 128,-1,22
 406 508 406 508 406 450 c 0,23,24
 406 367 406 367 296 313 c 1,25,26
 428 249 428 249 428 146 c 0,27,28
 428 71 428 71 374 27 c 128,-1,29
 320 -17 320 -17 232.5 -17 c 0,30,31
 145 -17 145 -17 95 25 c 128,-1,32
 45 67 45 67 45 136 c 0,11,12
236 525 m 0,33,34
 139 525 139 525 139 445 c 0,35,36
 139 408 139 408 166 380 c 128,-1,37
 193 352 193 352 252 328 c 1,38,39
 333 380 333 380 333 443 c 0,40,41
 333 482 333 482 307.5 503.5 c 128,-1,42
 282 525 282 525 236 525 c 0,33,34
EndSplineSet
EndChar

StartChar: ellipsis
Encoding: 8230 8230 40
Width: 671
Flags: HMW
HStem: -16 21G 105 20G
LayerCount: 2
Fore
SplineSet
641 54 m 1,0,1
 625 5 625 5 570 -16 c 1,2,3
 520 -1 520 -1 500 54 c 1,4,5
 520 109 520 109 570 125 c 1,6,7
 626 103 626 103 641 54 c 1,0,1
411 54 m 1,8,9
 395 5 395 5 340 -16 c 1,10,11
 290 -1 290 -1 270 54 c 1,12,13
 290 109 290 109 340 125 c 1,14,15
 396 103 396 103 411 54 c 1,8,9
181 54 m 1,16,17
 165 5 165 5 110 -16 c 1,18,19
 60 -1 60 -1 40 54 c 1,20,21
 60 109 60 109 110 125 c 1,22,23
 166 103 166 103 181 54 c 1,16,17
EndSplineSet
EndChar

StartChar: emdash
Encoding: 8212 8212 41
Width: 790
Flags: HMW
HStem: 187 69<90 700 94 696>
LayerCount: 2
Fore
SplineSet
90 187 m 1,0,-1
 94 256 l 1,1,-1
 700 256 l 1,2,-1
 696 187 l 1,3,-1
 90 187 l 1,0,-1
EndSplineSet
EndChar

StartChar: endash
Encoding: 8211 8211 42
Width: 538
Flags: HMW
HStem: 187 69<90 448 94 444>
LayerCount: 2
Fore
SplineSet
90 187 m 1,0,-1
 94 256 l 1,1,-1
 448 256 l 1,2,-1
 444 187 l 1,3,-1
 90 187 l 1,0,-1
EndSplineSet
EndChar

StartChar: f
Encoding: 102 102 43
Width: 315
Flags: HMW
HStem: 0 21G<56 238 56 56> 353 46 564 56<211 240>
VStem: 94 77<177 350 350 350 399 430>
LayerCount: 2
Fore
SplineSet
25 347 m 1,0,-1
 25 381 l 1,1,-1
 94 399 l 1,2,3
 94 620 94 620 245 620 c 0,4,5
 294 620 294 620 335 604 c 1,6,-1
 322 493 l 1,7,-1
 305 494 l 1,8,-1
 301 535 l 1,9,10
 257 564 257 564 231 564 c 0,11,12
 171 564 171 564 171 430 c 2,13,-1
 171 399 l 1,14,-1
 282 399 l 1,15,-1
 277 356 l 1,16,-1
 171 351 l 1,17,-1
 171 177 l 1,18,-1
 179 26 l 1,19,-1
 239 19 l 1,20,-1
 238 0 l 1,21,-1
 56 0 l 1,22,-1
 55 19 l 1,23,-1
 85 26 l 1,24,-1
 94 177 l 1,25,-1
 94 350 l 1,26,-1
 25 347 l 1,0,-1
EndSplineSet
EndChar

StartChar: fi
Encoding: 64257 64257 44
Width: 517
Flags: HMW
HStem: 0 21G<56 223 56 56 305 471 305 305> 355 44 564 56<232 281>
VStem: 94 77<177 350 350 350 399 430> 353 85
LayerCount: 2
Fore
SplineSet
25 347 m 1,0,-1
 25 381 l 1,1,-1
 94 399 l 1,2,3
 94 508 94 508 143 564 c 128,-1,4
 192 620 192 620 284.5 620 c 0,5,6
 377 620 377 620 419 583 c 1,7,-1
 404 457 l 1,8,-1
 386 458 l 1,9,-1
 368 514 l 1,10,11
 346 535 346 535 317 549.5 c 128,-1,12
 288 564 288 564 268 564 c 0,13,14
 214 564 214 564 192.5 534 c 128,-1,15
 171 504 171 504 171 430 c 2,16,-1
 171 399 l 1,17,-1
 326 399 l 1,18,-1
 444 409 l 1,19,-1
 434 221 l 1,20,-1
 434 177 l 1,21,-1
 442 26 l 1,22,-1
 472 19 l 1,23,-1
 471 0 l 1,24,-1
 305 0 l 1,25,-1
 304 19 l 1,26,-1
 348 26 l 1,27,-1
 357 177 l 1,28,-1
 357 221 l 1,29,-1
 349 358 l 1,30,-1
 171 352 l 1,31,-1
 171 177 l 1,32,-1
 179 26 l 1,33,-1
 224 19 l 1,34,-1
 223 0 l 1,35,-1
 56 0 l 1,36,-1
 55 19 l 1,37,-1
 85 26 l 1,38,-1
 94 177 l 1,39,-1
 94 350 l 1,40,-1
 25 347 l 1,0,-1
EndSplineSet
EndChar

StartChar: five
Encoding: 53 53 45
Width: 438
Flags: HMW
HStem: -71 39<70 73> 244 52<136 152 152 193> 430 62<142 241 77 336 142 142> 503 20G<346 362 362 362>
VStem: 71 68 305 83<82 166>
LayerCount: 2
Fore
SplineSet
66 241 m 1,0,-1
 77 492 l 1,1,-1
 241 492 l 1,2,-1
 338 501 l 1,3,-1
 346 523 l 1,4,-1
 362 523 l 1,5,-1
 356 392 l 1,6,-1
 339 392 l 1,7,-1
 336 430 l 1,8,-1
 142 430 l 1,9,-1
 136 296 l 1,10,-1
 152 296 l 2,11,12
 263 296 263 296 325.5 256 c 128,-1,13
 388 216 388 216 388 145 c 0,14,15
 388 51 388 51 302 -8 c 128,-1,16
 216 -67 216 -67 73 -71 c 1,17,-1
 70 -32 l 1,18,19
 184 -25 184 -25 244.5 16 c 128,-1,20
 305 57 305 57 305 126 c 0,21,22
 305 244 305 244 135 244 c 0,23,24
 100.5 244 100.5 244 66 241 c 1,0,-1
EndSplineSet
EndChar

StartChar: fl
Encoding: 64258 64258 46
Width: 520
Flags: HMW
HStem: 0 21G<56 223 56 56 305 474 305 305> 353 46 564 56<229 273.5>
VStem: 94 77<177 350 350 350 399 430> 360 77<177 426 177 532>
LayerCount: 2
Fore
SplineSet
25 347 m 1,0,-1
 25 381 l 1,1,-1
 94 399 l 1,2,3
 94 507 94 507 142.5 563.5 c 128,-1,4
 191 620 191 620 284 620 c 0,5,6
 314 620 314 620 359 606 c 1,7,-1
 447 614 l 1,8,-1
 437 426 l 1,9,-1
 437 177 l 1,10,-1
 445 26 l 1,11,-1
 475 19 l 1,12,-1
 474 0 l 1,13,-1
 305 0 l 1,14,-1
 304 19 l 1,15,-1
 351 26 l 1,16,-1
 360 177 l 1,17,-1
 360 532 l 1,18,19
 293 564 293 564 261 564 c 0,20,21
 213 564 213 564 192 532.5 c 128,-1,22
 171 501 171 501 171 430 c 2,23,-1
 171 399 l 1,24,-1
 312 399 l 1,25,-1
 307 356 l 1,26,-1
 171 351 l 1,27,-1
 171 177 l 1,28,-1
 179 26 l 1,29,-1
 224 19 l 1,30,-1
 223 0 l 1,31,-1
 56 0 l 1,32,-1
 55 19 l 1,33,-1
 85 26 l 1,34,-1
 94 177 l 1,35,-1
 94 350 l 1,36,-1
 25 347 l 1,0,-1
EndSplineSet
EndChar

StartChar: four
Encoding: 52 52 47
Width: 475
Flags: HMW
HStem: -77 21G<260 260> 79 57<78 271 78 271> 487 20G<303 342 342 342>
VStem: 271 74 413 31
LayerCount: 2
Fore
SplineSet
12 79 m 1,0,-1
 5 119 l 1,1,-1
 303 507 l 1,2,-1
 342 507 l 1,3,-1
 342 136 l 1,4,-1
 420 145 l 1,5,-1
 429 167 l 1,6,-1
 445 167 l 1,7,-1
 439 39 l 1,8,-1
 422 40 l 1,9,-1
 417 78 l 1,10,-1
 342 78 l 1,11,-1
 342 -73 l 1,12,-1
 260 -77 l 1,13,-1
 271 79 l 1,14,-1
 12 79 l 1,0,-1
78 136 m 1,15,-1
 271 136 l 1,16,-1
 271 383 l 1,17,-1
 78 136 l 1,15,-1
EndSplineSet
EndChar

StartChar: g
Encoding: 103 103 48
Width: 493
Flags: HMW
HStem: -215 54<173 251.5 173 270.5> -18 73<232.5 280> 115 53<217 270 208 287.5> 361 53<208 265.5 189 269.5> 399 20G<473 473>
VStem: 30 75<-118.5 -94.5> 64 83<233.5 297 233 306.5> 330 83<233 286 222.5 299> 360 76<-99.5 -55>
LayerCount: 2
Fore
SplineSet
245 414 m 0,0,1
 306 414 306 414 350 389 c 1,2,-1
 473 419 l 1,3,-1
 467 349 l 1,4,-1
 392 349 l 1,5,6
 413 316 413 316 413 271 c 0,7,8
 413 198 413 198 364.5 156.5 c 128,-1,9
 316 115 316 115 231 115 c 0,10,11
 189 115 189 115 154 126 c 1,12,-1
 124 75 l 1,13,14
 157 55 157 55 258 55 c 128,-1,15
 359 55 359 55 397.5 30 c 128,-1,16
 436 5 436 5 436 -49 c 0,17,18
 436 -125 436 -125 371.5 -170 c 128,-1,19
 307 -215 307 -215 198 -215 c 0,20,21
 30 -215 30 -215 30 -116 c 0,22,23
 30 -54 30 -54 101 -5 c 1,24,25
 63 9 63 9 63 46 c 128,-1,26
 63 83 63 83 114 147 c 1,27,28
 64 185 64 185 64 258 c 128,-1,29
 64 331 64 331 112.5 372.5 c 128,-1,30
 161 414 161 414 245 414 c 0,0,1
317 -137 m 128,-1,32
 360 -113 360 -113 360 -79 c 128,-1,33
 360 -45 360 -45 331 -31.5 c 128,-1,34
 302 -18 302 -18 238 -18 c 128,-1,35
 174 -18 174 -18 142 -14 c 1,36,37
 105 -52 105 -52 105 -97 c 0,38,39
 105 -161 105 -161 207 -161 c 0,40,31
 274 -161 274 -161 317 -137 c 128,-1,32
238 361 m 0,41,42
 147 361 147 361 147 264.5 c 128,-1,43
 147 168 147 168 238.5 168 c 128,-1,44
 330 168 330 168 330 266 c 0,45,46
 330 315 330 315 307.5 338 c 128,-1,47
 285 361 285 361 238 361 c 0,41,42
EndSplineSet
EndChar

StartChar: h
Encoding: 104 104 49
Width: 509
Flags: HMW
HStem: 0 21G<50 219> 345 69<284 298> 594 20G<175 175>
VStem: 88 81 354 81
LayerCount: 2
Fore
SplineSet
50 0 m 1,0,-1
 49 19 l 1,1,-1
 79 26 l 1,2,-1
 88 180 l 1,3,-1
 88 426 l 1,4,-1
 79 577 l 1,5,-1
 45 584 l 1,6,-1
 46 603 l 1,7,-1
 175 614 l 1,8,-1
 165 426 l 1,9,-1
 165 357 l 1,10,11
 235 414 235 414 300.5 414 c 0,12,13
 366 414 366 414 398.5 376 c 128,-1,14
 431 338 431 338 431 270 c 2,15,-1
 431 178 l 1,16,-1
 439 26 l 1,17,-1
 469 19 l 1,18,-1
 468 0 l 1,19,-1
 303 0 l 1,20,-1
 302 21 l 1,21,-1
 345 26 l 1,22,-1
 354 178 l 1,23,-1
 354 266 l 2,24,25
 354 304 354 304 332.5 324.5 c 128,-1,26
 311 345 311 345 265 345 c 0,27,28
 219 345 219 345 165 305 c 1,29,-1
 165 180 l 1,30,-1
 174 26 l 1,31,-1
 219 21 l 1,32,-1
 218 0 l 1,33,-1
 50 0 l 1,0,-1
EndSplineSet
EndChar

StartChar: hyphen
Encoding: 45 45 50
Width: 316
Flags: HMW
HStem: 211 70
LayerCount: 2
Fore
SplineSet
40 205 m 1,0,-1
 40 275 l 1,1,-1
 276 287 l 1,2,-1
 276 217 l 1,3,-1
 40 205 l 1,0,-1
EndSplineSet
EndChar

StartChar: i
Encoding: 105 105 51
Width: 248
Flags: HMW
HStem: 0 21G<50 50 50 202> 600 20G
VStem: 83 86
LayerCount: 2
Fore
SplineSet
50 0 m 1,0,-1
 49 19 l 1,1,-1
 79 26 l 1,2,-1
 88 177 l 1,3,-1
 88 221 l 1,4,-1
 79 372 l 1,5,-1
 45 379 l 1,6,-1
 46 398 l 1,7,-1
 175 409 l 1,8,-1
 165 221 l 1,9,-1
 165 177 l 1,10,-1
 173 26 l 1,11,-1
 203 19 l 1,12,-1
 202 0 l 1,13,-1
 50 0 l 1,0,-1
194 553 m 1,14,15
 179 507 179 507 127 486 c 1,16,17
 79 502 79 502 60 553 c 1,18,19
 80 604 80 604 127 620 c 1,20,21
 155 608 155 608 170.5 593 c 128,-1,22
 186 578 186 578 194 553 c 1,14,15
EndSplineSet
EndChar

StartChar: j
Encoding: 106 106 52
Width: 231
Flags: HMW
HStem: -219 21G<33 33> 600 20G
VStem: 85 82
LayerCount: 2
Fore
SplineSet
48 398 m 1,0,-1
 177 409 l 1,1,-1
 167 221 l 1,2,-1
 167 24 l 2,3,4
 167 -45 167 -45 131 -91 c 2,5,-1
 33 -219 l 1,6,-1
 1 -199 l 1,7,-1
 79 -49 l 1,8,-1
 90 153 l 1,9,-1
 90 221 l 1,10,-1
 81 372 l 1,11,-1
 47 379 l 1,12,-1
 48 398 l 1,0,-1
62 553 m 1,13,14
 93 596 93 596 129 620 c 1,15,16
 168 591 168 591 196 553 c 1,17,18
 164 509 164 509 129 486 c 1,19,20
 89 511 89 511 62 553 c 1,13,14
EndSplineSet
EndChar

StartChar: k
Encoding: 107 107 53
Width: 457
Flags: HMW
HStem: 0 21G<50 232 50 50 333 333 333 466> 379 20G<267 446 446 446> 594 20G<175 175>
VStem: 88 77<177 426 177 426>
LayerCount: 2
Fore
SplineSet
46 603 m 1,0,-1
 175 614 l 1,1,-1
 165 426 l 1,2,-1
 165 177 l 1,3,-1
 173 26 l 1,4,-1
 233 19 l 1,5,-1
 232 0 l 1,6,-1
 50 0 l 1,7,-1
 49 19 l 1,8,-1
 79 26 l 1,9,-1
 88 177 l 1,10,-1
 88 426 l 1,11,-1
 79 577 l 1,12,-1
 45 584 l 1,13,-1
 46 603 l 1,0,-1
183 220 m 1,14,-1
 183 227 l 1,15,-1
 271 312 l 1,16,-1
 311 373 l 1,17,-1
 266 378 l 1,18,-1
 267 399 l 1,19,-1
 446 399 l 1,20,-1
 447 380 l 1,21,-1
 417 373 l 1,22,-1
 273 231 l 1,23,-1
 436 26 l 1,24,-1
 467 19 l 1,25,-1
 466 0 l 1,26,-1
 333 0 l 1,27,-1
 284 91 l 1,28,-1
 183 220 l 1,14,-1
EndSplineSet
EndChar

StartChar: l
Encoding: 108 108 54
Width: 248
Flags: HMW
HStem: 0 21G<50 202 50 50> 594 20G<175 175>
VStem: 88 77<177 426 177 426>
LayerCount: 2
Fore
SplineSet
46 603 m 1,0,-1
 175 614 l 1,1,-1
 165 426 l 1,2,-1
 165 177 l 1,3,-1
 173 26 l 1,4,-1
 203 19 l 1,5,-1
 202 0 l 1,6,-1
 50 0 l 1,7,-1
 49 19 l 1,8,-1
 79 26 l 1,9,-1
 88 177 l 1,10,-1
 88 426 l 1,11,-1
 79 577 l 1,12,-1
 45 584 l 1,13,-1
 46 603 l 1,0,-1
EndSplineSet
EndChar

StartChar: m
Encoding: 109 109 55
Width: 755
Flags: HMW
HStem: 0 21G<50 217> 345 69<280 291 531.5 547>
VStem: 83 86 344 81 600 81
LayerCount: 2
Fore
SplineSet
714 0 m 1,0,-1
 549 0 l 1,1,-1
 548 21 l 1,2,-1
 591 26 l 1,3,-1
 600 177 l 1,4,-1
 600 266 l 2,5,6
 600 304 600 304 579.5 324.5 c 128,-1,7
 559 345 559 345 513 345 c 0,8,9
 467 345 467 345 421 309 c 1,10,-1
 421 177 l 1,11,-1
 429 26 l 1,12,-1
 430 26 l 1,13,-1
 473 21 l 1,14,-1
 472 0 l 1,15,-1
 293 0 l 1,16,-1
 292 21 l 1,17,-1
 335 26 l 1,18,-1
 344 177 l 1,19,-1
 344 266 l 2,20,21
 344 304 344 304 323.5 324.5 c 128,-1,22
 303 345 303 345 259 345 c 0,23,24
 215 345 215 345 170 309 c 1,25,-1
 165 221 l 1,26,-1
 165 177 l 1,27,-1
 173 26 l 1,28,-1
 174 26 l 1,29,-1
 217 21 l 1,30,-1
 216 0 l 1,31,-1
 50 0 l 1,32,-1
 49 19 l 1,33,-1
 79 26 l 1,34,-1
 88 177 l 1,35,-1
 88 221 l 1,36,-1
 79 372 l 1,37,-1
 45 379 l 1,38,-1
 46 398 l 1,39,-1
 175 409 l 1,40,-1
 172 363 l 1,41,42
 238 414 238 414 302.75 414 c 0,43,44
 367.5 414 367.5 414 402 357 c 1,45,46
 481 414 481 414 556 414 c 0,47,48
 612 414 612 414 644.5 375.5 c 128,-1,49
 677 337 677 337 677 270 c 2,50,-1
 677 177 l 1,51,-1
 685 26 l 1,52,-1
 686 26 l 1,53,-1
 715 19 l 1,54,-1
 714 0 l 1,0,-1
EndSplineSet
EndChar

StartChar: n
Encoding: 110 110 56
Width: 509
Flags: HMW
HStem: 0 21G<50 218> 345 69<285.5 298>
VStem: 83 86 354 81
LayerCount: 2
Fore
SplineSet
50 0 m 1,0,-1
 49 19 l 1,1,-1
 79 26 l 1,2,-1
 88 177 l 1,3,-1
 88 221 l 1,4,-1
 79 372 l 1,5,-1
 45 379 l 1,6,-1
 46 398 l 1,7,-1
 175 409 l 1,8,-1
 172 363 l 1,9,10
 240 414 240 414 303 414 c 0,11,12
 366 414 366 414 398.5 376 c 128,-1,13
 431 338 431 338 431 270 c 2,14,-1
 431 177 l 1,15,-1
 439 26 l 1,16,-1
 469 19 l 1,17,-1
 468 0 l 1,18,-1
 303 0 l 1,19,-1
 302 21 l 1,20,-1
 345 26 l 1,21,-1
 354 177 l 1,22,-1
 354 266 l 2,23,24
 354 304 354 304 332.5 324.5 c 128,-1,25
 311 345 311 345 265.5 345 c 0,26,27
 220 345 220 345 170 309 c 1,28,-1
 165 221 l 1,29,-1
 165 177 l 1,30,-1
 173 26 l 1,31,-1
 218 21 l 1,32,-1
 217 0 l 1,33,-1
 50 0 l 1,0,-1
EndSplineSet
EndChar

StartChar: nine
Encoding: 57 57 57
Width: 477
Flags: HMW
HStem: -70 21G<101 101> 162 49<140.5 255.5> 451 56<193.5 270.5>
VStem: 40 84<285 364.5 285 367.5> 344 83<167 325.5>
LayerCount: 2
Fore
SplineSet
97 451 m 128,-1,1
 154 507 154 507 242.5 507 c 128,-1,2
 331 507 331 507 379 445 c 128,-1,3
 427 383 427 383 427 268 c 0,4,5
 427 117 427 117 341.5 28.5 c 128,-1,6
 256 -60 256 -60 101 -70 c 1,7,-1
 97 -32 l 1,8,9
 225 -20 225 -20 284.5 49.5 c 128,-1,10
 344 119 344 119 344 257 c 0,11,12
 344 361 344 361 317.5 406 c 128,-1,13
 291 451 291 451 228 451 c 0,14,15
 124 451 124 451 124 322 c 0,16,17
 124 211 124 211 244 211 c 0,18,19
 280 211 280 211 316 217 c 1,20,-1
 318 197 l 1,21,22
 237 162 237 162 178.5 162 c 128,-1,23
 120 162 120 162 80 204.5 c 128,-1,24
 40 247 40 247 40 321 c 128,-1,0
 40 395 40 395 97 451 c 128,-1,1
EndSplineSet
EndChar

StartChar: o
Encoding: 111 111 58
Width: 480
Flags: HMW
HStem: -15 56<205.5 283 205.5 299> 358 56<193.5 271>
VStem: 40 86<153 259> 353 87<140.5 244.5>
LayerCount: 2
Fore
SplineSet
247 41 m 0,0,1
 353 41 353 41 353 188 c 0,2,3
 353 358 353 358 230 358 c 0,4,5
 175 358 175 358 150.5 323.5 c 128,-1,6
 126 289 126 289 126 206.5 c 0,7,8
 126 41 126 41 247 41 c 0,0,1
92 39.5 m 128,-1,10
 40 94 40 94 40 193.5 c 128,-1,11
 40 293 40 293 95 353.5 c 128,-1,12
 150 414 150 414 243.5 414 c 128,-1,13
 337 414 337 414 388.5 360.5 c 128,-1,14
 440 307 440 307 440 206.5 c 128,-1,15
 440 106 440 106 385 45.5 c 128,-1,16
 330 -15 330 -15 237 -15 c 128,-1,9
 144 -15 144 -15 92 39.5 c 128,-1,10
EndSplineSet
EndChar

StartChar: one
Encoding: 49 49 59
Width: 355
Flags: HMW
HStem: 0 21G<41 313 41 41> 472 20G<42 314 314 314>
VStem: 135 85
LayerCount: 2
Fore
SplineSet
139 177 m 1,0,-1
 139 315 l 1,1,-1
 131 456 l 1,2,-1
 41 473 l 1,3,-1
 42 492 l 1,4,-1
 314 492 l 1,5,-1
 315 473 l 1,6,-1
 224 456 l 1,7,-1
 216 315 l 1,8,-1
 216 177 l 1,9,-1
 224 36 l 1,10,-1
 314 19 l 1,11,-1
 313 0 l 1,12,-1
 41 0 l 1,13,-1
 40 19 l 1,14,-1
 131 36 l 1,15,-1
 139 177 l 1,0,-1
EndSplineSet
EndChar

StartChar: p
Encoding: 112 112 60
Width: 484
Flags: HMW
HStem: -206 246<50 283.5 50 283.5> -15 55<233 283.5 233 299> 358 56<266 287>
VStem: 83 86 358 86<141 244.5>
LayerCount: 2
Fore
SplineSet
88 -29 m 1,0,-1
 88 221 l 1,1,-1
 79 372 l 1,2,-1
 45 379 l 1,3,-1
 46 398 l 1,4,-1
 170 407 l 1,5,-1
 170 366 l 1,6,7
 224 414 224 414 289 414 c 0,8,9
 354 414 354 414 399 356.5 c 128,-1,10
 444 299 444 299 444 202.5 c 0,11,12
 444 106 444 106 388 45.5 c 128,-1,13
 332 -15 332 -15 234 -15 c 0,14,15
 202 -15 202 -15 165 -7 c 1,16,-1
 165 -29 l 1,17,-1
 173 -180 l 1,18,-1
 218 -185 l 1,19,-1
 217 -206 l 1,20,-1
 50 -206 l 1,21,-1
 49 -187 l 1,22,-1
 79 -180 l 1,23,-1
 88 -29 l 1,0,-1
358 192 m 128,-1,25
 358 271 358 271 330.5 314.5 c 128,-1,26
 303 358 303 358 257.5 358 c 0,27,28
 212 358 212 358 170 314 c 1,29,-1
 165 222 l 1,30,-1
 165 51 l 1,31,32
 212 40 212 40 244 40 c 0,33,34
 303 40 303 40 330.5 76.5 c 128,-1,24
 358 113 358 113 358 192 c 128,-1,25
EndSplineSet
EndChar

StartChar: period
Encoding: 46 46 61
Width: 211
Flags: HMW
HStem: -16 21G 105 20G
LayerCount: 2
Fore
SplineSet
181 54 m 1,0,1
 165 5 165 5 110 -16 c 1,2,3
 60 -1 60 -1 40 54 c 1,4,5
 60 109 60 109 110 125 c 1,6,7
 166 103 166 103 181 54 c 1,0,1
EndSplineSet
EndChar

StartChar: q
Encoding: 113 113 62
Width: 461
Flags: HMW
HStem: -206 247<197 434 197 268> -15 56<197 218.5> 359 55<198 246>
VStem: 40 86<154.5 258> 314 82
LayerCount: 2
Fore
SplineSet
396 -29 m 1,0,-1
 404 -180 l 1,1,-1
 435 -187 l 1,2,-1
 434 -206 l 1,3,-1
 268 -206 l 1,4,-1
 267 -185 l 1,5,-1
 310 -180 l 1,6,-1
 319 -28 l 1,7,-1
 319 37 l 1,8,9
 261 -15 261 -15 195.5 -15 c 0,10,11
 130 -15 130 -15 85 42.5 c 128,-1,12
 40 100 40 100 40 196.5 c 0,13,14
 40 293 40 293 96 353.5 c 128,-1,15
 152 414 152 414 242 414 c 0,16,17
 332 414 332 414 436 384 c 1,18,-1
 434 365 l 1,19,-1
 404 365 l 1,20,-1
 396 222 l 1,21,-1
 396 -29 l 1,0,-1
126 207 m 128,-1,23
 126 128 126 128 153.5 84.5 c 128,-1,24
 181 41 181 41 227.5 41 c 0,25,26
 274 41 274 41 319 91 c 1,27,-1
 319 222 l 1,28,-1
 312 348 l 1,29,30
 264 359 264 359 236 359 c 0,31,32
 179 359 179 359 152.5 322.5 c 128,-1,22
 126 286 126 286 126 207 c 128,-1,23
EndSplineSet
EndChar

StartChar: quotedblbase
Encoding: 8222 8222 63
Width: 390
Flags: HMW
HStem: -150 21G<80 80 260 260> 105 20G
LayerCount: 2
Fore
SplineSet
45 57 m 1,0,1
 67 111 67 111 110 125 c 1,2,3
 180 97 180 97 180 36.5 c 0,4,5
 180 -24 180 -24 80 -150 c 1,6,-1
 57 -134 l 1,7,8
 95 -72 95 -72 104 3 c 1,9,10
 79 11 79 11 66.5 22 c 128,-1,11
 54 33 54 33 45 57 c 1,0,1
225 57 m 1,12,13
 247 111 247 111 290 125 c 1,14,15
 360 97 360 97 360 36.5 c 0,16,17
 360 -24 360 -24 260 -150 c 1,18,-1
 237 -134 l 1,19,20
 275 -72 275 -72 284 3 c 1,21,22
 259 11 259 11 246.5 22 c 128,-1,23
 234 33 234 33 225 57 c 1,12,13
EndSplineSet
EndChar

StartChar: quotedblleft
Encoding: 8220 8220 64
Width: 389
Flags: HMW
HStem: 362 21G 617 20G<130 130 310 310>
LayerCount: 2
Fore
SplineSet
345 430 m 1,0,1
 323 376 323 376 280 362 c 1,2,3
 210 390 210 390 210 450.5 c 0,4,5
 210 511 210 511 310 637 c 1,6,-1
 333 621 l 1,7,8
 295 559 295 559 286 484 c 1,9,10
 311 476 311 476 323.5 465 c 128,-1,11
 336 454 336 454 345 430 c 1,0,1
165 430 m 1,12,13
 143 376 143 376 100 362 c 1,14,15
 30 390 30 390 30 450.5 c 0,16,17
 30 511 30 511 130 637 c 1,18,-1
 153 621 l 1,19,20
 115 559 115 559 106 484 c 1,21,22
 131 476 131 476 143.5 465 c 128,-1,23
 156 454 156 454 165 430 c 1,12,13
EndSplineSet
EndChar

StartChar: quotedblright
Encoding: 8221 8221 65
Width: 390
Flags: HMW
HStem: 372 21G<80 80 260 260> 627 20G
LayerCount: 2
Fore
SplineSet
45 579 m 1,0,1
 67 633 67 633 110 647 c 1,2,3
 180 619 180 619 180 558.5 c 0,4,5
 180 498 180 498 80 372 c 1,6,-1
 57 388 l 1,7,8
 95 450 95 450 104 525 c 1,9,10
 79 533 79 533 66.5 544 c 128,-1,11
 54 555 54 555 45 579 c 1,0,1
225 579 m 1,12,13
 247 633 247 633 290 647 c 1,14,15
 360 619 360 619 360 558.5 c 0,16,17
 360 498 360 498 260 372 c 1,18,-1
 237 388 l 1,19,20
 275 450 275 450 284 525 c 1,21,22
 259 533 259 533 246.5 544 c 128,-1,23
 234 555 234 555 225 579 c 1,12,13
EndSplineSet
EndChar

StartChar: quoteleft
Encoding: 8216 8216 66
Width: 210
Flags: HMW
HStem: 362 21G 617 20G<130 130>
LayerCount: 2
Fore
SplineSet
165 430 m 1,0,1
 143 376 143 376 100 362 c 1,2,3
 30 390 30 390 30 450.5 c 0,4,5
 30 511 30 511 130 637 c 1,6,-1
 153 621 l 1,7,8
 115 559 115 559 106 484 c 1,9,10
 131 476 131 476 143.5 465 c 128,-1,11
 156 454 156 454 165 430 c 1,0,1
EndSplineSet
EndChar

StartChar: quoteright
Encoding: 8217 8217 67
Width: 210
Flags: HMW
HStem: 372 21G<80 80> 627 20G
LayerCount: 2
Fore
SplineSet
45 579 m 1,0,1
 67 633 67 633 110 647 c 1,2,3
 180 619 180 619 180 558.5 c 0,4,5
 180 498 180 498 80 372 c 1,6,-1
 57 388 l 1,7,8
 95 450 95 450 104 525 c 1,9,10
 79 533 79 533 66.5 544 c 128,-1,11
 54 555 54 555 45 579 c 1,0,1
EndSplineSet
EndChar

StartChar: quotesinglbase
Encoding: 8218 8218 68
Width: 210
Flags: HMW
HStem: -150 21G<80 80> 105 20G
LayerCount: 2
Fore
SplineSet
45 57 m 1,0,1
 67 111 67 111 110 125 c 1,2,3
 180 97 180 97 180 36.5 c 0,4,5
 180 -24 180 -24 80 -150 c 1,6,-1
 57 -134 l 1,7,8
 95 -72 95 -72 104 3 c 1,9,10
 79 11 79 11 66.5 22 c 128,-1,11
 54 33 54 33 45 57 c 1,0,1
EndSplineSet
EndChar

StartChar: quotesingle
Encoding: 39 39 69
Width: 168
Flags: HMW
HStem: 371 21G<76 76> 627 20G
LayerCount: 2
Fore
SplineSet
138 606 m 1,0,-1
 76 371 l 1,1,-1
 44 375 l 1,2,3
 40 604 40 604 40 606 c 0,4,5
 57 638 57 638 97 647 c 1,6,7
 131 636 131 636 138 606 c 1,0,-1
EndSplineSet
EndChar

StartChar: r
Encoding: 114 114 70
Width: 333
Flags: HMW
HStem: 0 21G<50 232 50 50> 346 68<251.5 259.5>
VStem: 83 86 83 242
LayerCount: 2
Fore
SplineSet
46 398 m 1,0,-1
 175 409 l 1,1,-1
 171 343 l 1,2,3
 197 385 197 385 218 399.5 c 128,-1,4
 239 414 239 414 269 414 c 0,5,6
 299 414 299 414 328 409 c 1,7,-1
 323 293 l 1,8,-1
 306 293 l 1,9,-1
 299 336 l 1,10,11
 270 346 270 346 250.5 346 c 0,12,13
 231 346 231 346 214 336 c 128,-1,14
 197 326 197 326 169 295 c 1,15,-1
 165 221 l 1,16,-1
 165 177 l 1,17,-1
 173 26 l 1,18,-1
 233 19 l 1,19,-1
 232 0 l 1,20,-1
 50 0 l 1,21,-1
 49 19 l 1,22,-1
 79 26 l 1,23,-1
 88 177 l 1,24,-1
 88 221 l 1,25,-1
 79 372 l 1,26,-1
 45 379 l 1,27,-1
 46 398 l 1,0,-1
EndSplineSet
EndChar

StartChar: s
Encoding: 115 115 71
Width: 379
Flags: HMW
HStem: -21 21G<45 45> -15 56<164 205.5 164 213.5> 360 54<160 198.5> 406 20G<305 321 321 321>
VStem: 39 74<277 329.5 277 334> 262 77<80 139.5>
LayerCount: 2
Fore
SplineSet
61 -1 m 1,0,-1
 45 -21 l 1,1,-1
 30 -16 l 1,2,-1
 71 107 l 1,3,-1
 87 104 l 1,4,-1
 83 63 l 1,5,6
 134 41 134 41 176 41 c 0,7,8
 218 41 218 41 240 56 c 128,-1,9
 262 71 262 71 262 96 c 0,10,11
 262 121 262 121 239 137.5 c 128,-1,12
 216 154 216 154 183 166.5 c 128,-1,13
 150 179 150 179 117.5 194 c 128,-1,14
 85 209 85 209 62 236 c 128,-1,15
 39 263 39 263 39 306.5 c 0,16,17
 39 350 39 350 87 382 c 128,-1,18
 135 414 135 414 209 414 c 0,19,20
 252 414 252 414 296 403 c 1,21,-1
 305 426 l 1,22,-1
 321 426 l 1,23,-1
 315 292 l 1,24,-1
 298 293 l 1,25,-1
 293 330 l 1,26,27
 224 360 224 360 182 360 c 0,28,29
 113 360 113 360 113 314 c 0,30,31
 113 294 113 294 136.5 279 c 128,-1,32
 160 264 160 264 193 252 c 128,-1,33
 226 240 226 240 259 225 c 128,-1,34
 292 210 292 210 315.5 182 c 128,-1,35
 339 154 339 154 339 115 c 0,36,37
 339 56 339 56 290 20.5 c 128,-1,38
 241 -15 241 -15 160 -15 c 0,39,40
 115 -15 115 -15 61 -1 c 1,0,-1
EndSplineSet
EndChar

StartChar: semicolon
Encoding: 59 59 72
Width: 211
Flags: HMW
HStem: -150 21G<80 80> 386 20G
LayerCount: 2
Fore
SplineSet
45 57 m 1,0,1
 67 111 67 111 110 125 c 1,2,3
 180 97 180 97 180 36.5 c 0,4,5
 180 -24 180 -24 80 -150 c 1,6,-1
 57 -134 l 1,7,8
 95 -72 95 -72 104 3 c 1,9,10
 79 11 79 11 66.5 22 c 128,-1,11
 54 33 54 33 45 57 c 1,0,1
40 335 m 1,12,13
 60 390 60 390 110 406 c 1,14,15
 166 384 166 384 181 335 c 1,16,17
 165 286 165 286 110 265 c 1,18,19
 60 280 60 280 40 335 c 1,12,13
EndSplineSet
EndChar

StartChar: seven
Encoding: 55 55 73
Width: 402
Flags: HMW
HStem: -95 21G<121 121> 430 61<131 312 131 131> 493 20G<10 26 26 26>
LayerCount: 2
Fore
SplineSet
26 513 m 1,0,-1
 34 491 l 1,1,-1
 392 491 l 1,2,-1
 397 460 l 1,3,-1
 121 -95 l 1,4,-1
 41 -60 l 1,5,-1
 179 164 l 1,6,-1
 312 430 l 1,7,-1
 131 430 l 1,8,-1
 36 421 l 1,9,-1
 33 383 l 1,10,-1
 16 383 l 1,11,-1
 10 513 l 1,12,-1
 26 513 l 1,0,-1
EndSplineSet
EndChar

StartChar: six
Encoding: 54 54 74
Width: 477
Flags: HMW
HStem: -15 56<206.5 283.5 206.5 295> 281 49<221 336.5> 561 20G<376 376>
VStem: 50 83<171 333.5> 353 84<127.5 207>
LayerCount: 2
Fore
SplineSet
380 41 m 128,-1,1
 323 -15 323 -15 234.5 -15 c 128,-1,2
 146 -15 146 -15 98 49 c 128,-1,3
 50 113 50 113 50 232 c 0,4,5
 50 384 50 384 137 477 c 128,-1,6
 224 570 224 570 376 581 c 1,7,-1
 380 543 l 1,8,9
 255 528 255 528 194 454.5 c 128,-1,10
 133 381 133 381 133 243 c 0,11,12
 133 134 133 134 159.5 87.5 c 128,-1,13
 186 41 186 41 249 41 c 0,14,15
 353 41 353 41 353 170 c 0,16,17
 353 281 353 281 233 281 c 0,18,19
 196 281 196 281 161 275 c 1,20,-1
 159 295 l 1,21,22
 238 330 238 330 297.5 330 c 128,-1,23
 357 330 357 330 397 287.5 c 128,-1,24
 437 245 437 245 437 171 c 128,-1,0
 437 97 437 97 380 41 c 128,-1,1
EndSplineSet
EndChar

StartChar: t
Encoding: 116 116 75
Width: 257
Flags: HMW
HStem: -15 41<139 265> 354 45 479 20G<132 148 148 148>
VStem: 73 81<84.5 112>
LayerCount: 2
Fore
SplineSet
73 108 m 1,0,-1
 77 350 l 1,1,-1
 25 348 l 1,2,-1
 25 381 l 1,3,-1
 77 399 l 1,4,-1
 132 499 l 1,5,-1
 148 499 l 1,6,-1
 154 399 l 1,7,-1
 255 399 l 1,8,-1
 250 356 l 1,9,-1
 154 352 l 1,10,-1
 154 127 l 2,11,12
 154 63 154 63 167 44.5 c 128,-1,13
 180 26 180 26 226 26 c 2,14,-1
 265 26 l 1,15,-1
 267 9 l 1,16,17
 230 -15 230 -15 175 -15 c 128,-1,18
 120 -15 120 -15 96.5 13 c 128,-1,19
 73 41 73 41 73 108 c 1,0,-1
EndSplineSet
EndChar

StartChar: three
Encoding: 51 51 76
Width: 433
Flags: HMW
HStem: -71 39<40 43> 216 45<111 202.5> 446 61<174.5 222>
VStem: 283 79<369.5 401.5> 305 57 305 83<77 152.5>
LayerCount: 2
Fore
SplineSet
43 -71 m 1,0,-1
 40 -32 l 1,1,2
 165 -25 165 -25 235 15 c 128,-1,3
 305 55 305 55 305 121 c 0,4,5
 305 216 305 216 151 216 c 0,6,7
 125 216 125 216 115 215 c 1,8,-1
 111 261 l 1,9,10
 190 274 190 274 236.5 306 c 128,-1,11
 283 338 283 338 283 379 c 0,12,13
 283 446 283 446 191 446 c 0,14,15
 115 446 115 446 68 400 c 1,16,-1
 65 362 l 1,17,-1
 48 362 l 1,18,-1
 41 507 l 1,19,-1
 57 507 l 1,20,-1
 65 485 l 1,21,22
 130 507 130 507 202.5 507 c 0,23,24
 275 507 275 507 318.5 478.5 c 128,-1,25
 362 450 362 450 362 402 c 0,26,27
 362 354 362 354 326 316.5 c 128,-1,28
 290 279 290 279 229 261 c 1,29,30
 300 257 300 257 344 222.5 c 128,-1,31
 388 188 388 188 388 137 c 0,32,33
 388 -60 388 -60 43 -71 c 1,0,-1
EndSplineSet
EndChar

StartChar: tilde
Encoding: 732 732 77
Width: 430
Flags: HMW
HStem: 492 21G<250 275.5> 580 20G<147 173.5>
LayerCount: 2
Fore
SplineSet
340 599 m 1,0,-1
 358 586 l 1,1,2
 321 528 321 528 302.5 510 c 128,-1,3
 284 492 284 492 265 492 c 0,4,5
 246 492 246 492 229 500 c 128,-1,6
 212 508 212 508 141 549 c 1,7,-1
 83 493 l 1,8,-1
 65 506 l 1,9,10
 100 564 100 564 119 582 c 128,-1,11
 138 600 138 600 158 600 c 0,12,13
 178 600 178 600 198 590.5 c 128,-1,14
 218 581 218 581 282 543 c 1,15,-1
 340 599 l 1,0,-1
EndSplineSet
EndChar

StartChar: two
Encoding: 50 50 78
Width: 461
Flags: HMW
HStem: 0 58 446 61<194.5 231>
VStem: 297 91<343.5 393>
LayerCount: 2
Fore
SplineSet
32 0 m 1,0,-1
 20 37 l 1,1,2
 185 189 185 189 241 256 c 128,-1,3
 297 323 297 323 297 364 c 0,4,5
 297 405 297 405 271.5 425.5 c 128,-1,6
 246 446 246 446 206 446 c 0,7,8
 166 446 166 446 130 433 c 128,-1,9
 94 420 94 420 72 400 c 1,10,-1
 69 362 l 1,11,-1
 52 362 l 1,12,-1
 45 507 l 1,13,-1
 61 507 l 1,14,-1
 69 485 l 1,15,16
 148 507 148 507 224 507 c 0,17,18
 300 507 300 507 344 474.5 c 128,-1,19
 388 442 388 442 388 383.5 c 0,20,21
 388 325 388 325 333 260.5 c 128,-1,22
 278 196 278 196 113 55 c 1,23,-1
 275 61 l 1,24,-1
 387 77 l 1,25,-1
 403 114 l 1,26,-1
 421 110 l 1,27,-1
 396 0 l 1,28,-1
 32 0 l 1,0,-1
EndSplineSet
EndChar

StartChar: u
Encoding: 117 117 79
Width: 509
Flags: HMW
HStem: -15 69<216 228.5> 389 20G<170 170 436 436>
VStem: 83 77<129 133 133 221> 344 86
LayerCount: 2
Fore
SplineSet
83 221 m 1,0,-1
 74 372 l 1,1,-1
 40 379 l 1,2,-1
 41 398 l 1,3,-1
 170 409 l 1,4,-1
 160 221 l 1,5,-1
 160 133 l 2,6,7
 160 95 160 95 181.5 74.5 c 128,-1,8
 203 54 203 54 250 54 c 0,9,10
 297 54 297 54 344 90 c 1,11,-1
 349 178 l 1,12,-1
 349 221 l 1,13,-1
 340 372 l 1,14,-1
 306 379 l 1,15,-1
 307 398 l 1,16,-1
 436 409 l 1,17,-1
 426 221 l 1,18,-1
 426 178 l 1,19,-1
 435 27 l 1,20,-1
 469 20 l 1,21,-1
 468 1 l 1,22,-1
 339 -10 l 1,23,-1
 341 36 l 1,24,25
 275 -15 275 -15 211.5 -15 c 0,26,27
 148 -15 148 -15 115.5 23 c 128,-1,28
 83 61 83 61 83 129 c 2,29,-1
 83 221 l 1,0,-1
EndSplineSet
EndChar

StartChar: v
Encoding: 118 118 80
Width: 415
Flags: HMW
HStem: -15 21G<195 195> 379 20G<-7 170 170 170 264 420 420 420>
LayerCount: 2
Fore
SplineSet
222 -12 m 1,0,-1
 195 -15 l 1,1,-1
 23 373 l 1,2,-1
 -8 380 l 1,3,-1
 -7 399 l 1,4,-1
 170 399 l 1,5,-1
 171 378 l 1,6,-1
 127 373 l 1,7,-1
 148 283 l 1,8,-1
 217 102 l 1,9,-1
 286 283 l 1,10,-1
 304 373 l 1,11,-1
 263 378 l 1,12,-1
 264 399 l 1,13,-1
 420 399 l 1,14,-1
 421 380 l 1,15,-1
 389 373 l 1,16,-1
 222 -12 l 1,0,-1
EndSplineSet
EndChar

StartChar: w
Encoding: 119 119 81
Width: 643
Flags: HMW
HStem: -15 21G<191 191 432 432> 379 20G<-7 167 167 167 318 318 493 648 648 648> 383 20G<342 342>
LayerCount: 2
Fore
SplineSet
218 -12 m 1,0,-1
 191 -15 l 1,1,-1
 23 373 l 1,2,-1
 -8 380 l 1,3,-1
 -7 399 l 1,4,-1
 167 399 l 1,5,-1
 168 378 l 1,6,-1
 124 373 l 1,7,-1
 145 283 l 1,8,-1
 211 108 l 1,9,-1
 318 399 l 1,10,-1
 342 403 l 1,11,-1
 453 111 l 1,12,-1
 515 283 l 1,13,-1
 533 373 l 1,14,-1
 492 378 l 1,15,-1
 493 399 l 1,16,-1
 648 399 l 1,17,-1
 649 380 l 1,18,-1
 618 373 l 1,19,-1
 459 -12 l 1,20,-1
 432 -15 l 1,21,-1
 322 245 l 1,22,-1
 218 -12 l 1,0,-1
EndSplineSet
EndChar

StartChar: x
Encoding: 120 120 82
Width: 390
Flags: HMW
HStem: 0 21G<6 167> 379 20G<6 184 184 184 231 393 393 393>
LayerCount: 2
Fore
SplineSet
265 26 m 1,0,-1
 237 87 l 1,1,-1
 192 152 l 1,2,-1
 151 93 l 1,3,-1
 122 26 l 1,4,-1
 167 21 l 1,5,-1
 166 0 l 1,6,-1
 6 0 l 1,7,-1
 5 19 l 1,8,-1
 35 26 l 1,9,-1
 97 105 l 1,10,-1
 160 199 l 1,11,-1
 96 294 l 1,12,-1
 35 373 l 1,13,-1
 5 380 l 1,14,-1
 6 399 l 1,15,-1
 184 399 l 1,16,-1
 185 378 l 1,17,-1
 140 373 l 1,18,-1
 170 311 l 1,19,-1
 209 254 l 1,20,-1
 245 306 l 1,21,-1
 274 373 l 1,22,-1
 230 378 l 1,23,-1
 231 399 l 1,24,-1
 393 399 l 1,25,-1
 394 380 l 1,26,-1
 363 373 l 1,27,-1
 300 294 l 1,28,-1
 240 207 l 1,29,-1
 310 105 l 1,30,-1
 371 26 l 1,31,-1
 401 19 l 1,32,-1
 400 0 l 1,33,-1
 221 0 l 1,34,-1
 220 21 l 1,35,-1
 265 26 l 1,0,-1
EndSplineSet
EndChar

StartChar: y
Encoding: 121 121 83
Width: 398
Flags: HMW
HStem: -221 21G<15 143 15 15> 379 20G<-14 163 163 163 254 412 412 412>
LayerCount: 2
Fore
SplineSet
383 373 m 1,0,-1
 165 -139 l 1,1,-1
 143 -221 l 1,2,-1
 15 -221 l 1,3,-1
 14 -203 l 1,4,-1
 57 -196 l 1,5,-1
 165 1 l 1,6,-1
 15 373 l 1,7,-1
 -15 380 l 1,8,-1
 -14 399 l 1,9,-1
 163 399 l 1,10,-1
 164 378 l 1,11,-1
 120 373 l 1,12,-1
 141 283 l 1,13,-1
 203 90 l 1,14,-1
 279 283 l 1,15,-1
 297 373 l 1,16,-1
 253 378 l 1,17,-1
 254 399 l 1,18,-1
 412 399 l 1,19,-1
 413 380 l 1,20,-1
 383 373 l 1,0,-1
EndSplineSet
EndChar

StartChar: z
Encoding: 122 122 84
Width: 401
Flags: HMW
HStem: -26 21G<321 341 321 321> 0 55 349 54 410 20G<51 67 67 67>
LayerCount: 2
Fore
SplineSet
67 430 m 1,0,-1
 76 408 l 1,1,-1
 281 399 l 1,2,-1
 368 405 l 1,3,-1
 371 391 l 1,4,-1
 157 55 l 1,5,-1
 267 55 l 1,6,-1
 335 62 l 1,7,-1
 351 99 l 1,8,-1
 369 95 l 1,9,-1
 341 -26 l 1,10,-1
 321 -26 l 1,11,-1
 322 -4 l 1,12,-1
 119 5 l 1,13,-1
 39 -4 l 1,14,-1
 35 12 l 1,15,-1
 249 349 l 1,16,-1
 164 349 l 1,17,-1
 82 339 l 1,18,-1
 78 303 l 1,19,-1
 61 302 l 1,20,-1
 51 430 l 1,21,-1
 67 430 l 1,0,-1
EndSplineSet
EndChar

StartChar: zero
Encoding: 48 48 85
Width: 538
Flags: HMW
HStem: -15 61<222.5 311.5 222.5 335> 446 61<226 315>
VStem: 45 83<180 306 180 323> 410 83<185 311.5>
LayerCount: 2
Fore
SplineSet
166 392 m 128,-1,1
 128 338 128 338 128 243.5 c 128,-1,2
 128 149 128 149 164.5 97.5 c 128,-1,3
 201 46 201 46 267.5 46 c 128,-1,4
 334 46 334 46 372 99.5 c 128,-1,5
 410 153 410 153 410 248 c 128,-1,6
 410 343 410 343 373.5 394.5 c 128,-1,7
 337 446 337 446 270.5 446 c 128,-1,0
 204 446 204 446 166 392 c 128,-1,1
104.5 54 m 128,-1,9
 45 123 45 123 45 243.5 c 128,-1,10
 45 364 45 364 106 435.5 c 128,-1,11
 167 507 167 507 270 507 c 128,-1,12
 373 507 373 507 433 437.5 c 128,-1,13
 493 368 493 368 493 248 c 128,-1,14
 493 128 493 128 431.5 56.5 c 128,-1,15
 370 -15 370 -15 267 -15 c 128,-1,8
 164 -15 164 -15 104.5 54 c 128,-1,9
EndSplineSet
EndChar

StartChar: ae
Encoding: 230 230 86
Width: 696
Flags: HMW
HStem: -15 56<180.5 186 445.5 501> -14 21G<628 644 628 628> 198 52<379 379 379 653 377 379> 358 56<194.5 232.5 180 239 454.5 515> 405 20G<64 80 80 80>
VStem: 40 85<90 141 90 152> 297 80<171 276 171 301> 573 83<251 286>
LayerCount: 2
Fore
SplineSet
80 425 m 1,0,-1
 89 403 l 1,1,2
 151 414 151 414 198 414 c 0,3,4
 303 414 303 414 349 349 c 1,5,6
 402 414 402 414 487.5 414 c 128,-1,7
 573 414 573 414 614.5 374 c 128,-1,8
 656 334 656 334 656 249 c 0,9,10
 656 225 656 225 653 198 c 1,11,-1
 377 198 l 1,12,13
 377 147.272727273 377 147.272727273 397 100 c 0,14,15
 408 74 408 74 432 57.5 c 128,-1,16
 456 41 456 41 491 41 c 0,17,18
 556 41 556 41 613 85 c 1,19,-1
 620 126 l 1,20,-1
 637 125 l 1,21,-1
 644 -14 l 1,22,-1
 628 -14 l 1,23,-1
 619 9 l 1,24,25
 554 -15 554 -15 481 -15 c 0,26,27
 378 -15 378 -15 327 62 c 1,28,29
 244 -15 244 -15 166 -15 c 0,30,31
 111 -15 111 -15 75.5 17 c 128,-1,32
 40 49 40 49 40 110.5 c 128,-1,33
 40 172 40 172 95 199 c 128,-1,34
 150 226 150 226 297 248 c 1,35,-1
 297 276 l 2,36,37
 297 314 297 314 275 336 c 128,-1,38
 253 358 253 358 208.5 358 c 128,-1,39
 164 358 164 358 95 329 c 1,40,-1
 91 292 l 1,41,-1
 74 291 l 1,42,-1
 64 425 l 1,43,-1
 80 425 l 1,0,-1
293 192 m 1,44,45
 183.368516736 176.132285317 183.368516736 176.132285317 154.184258368 157.530607123 c 128,-1,46
 125 138.928928929 125 138.928928929 125 109.464464464 c 128,-1,47
 125 80 125 80 147 60.5 c 128,-1,48
 169 41 169 41 201 41 c 0,49,50
 250 41 250 41 309 98 c 1,51,52
 293 137 293 137 293 192 c 1,44,45
379 250 m 1,53,-1
 573 251 l 1,54,55
 573 306 573 306 552 332 c 128,-1,56
 531 358 531 358 479 358 c 0,57,58
 388 358 388 358 379 250 c 1,53,-1
EndSplineSet
EndChar

StartChar: grave
Encoding: 96 96 87
Width: 430
Flags: HMW
HStem: 481 21G<253 253> 596 20G
LayerCount: 2
Fore
SplineSet
269 496 m 1,0,-1
 253 481 l 1,1,-1
 67 588 l 1,2,-1
 68 606 l 1,3,4
 87 620 87 620 119 620 c 0,5,6
 151 620 151 620 178 614 c 1,7,-1
 269 496 l 1,0,-1
EndSplineSet
EndChar

StartChar: circumflex
Encoding: 710 710 88
Width: 430
Flags: HMW
HStem: 481 21G<81 81 306 306> 606 20G<180 207 207 207>
LayerCount: 2
Fore
SplineSet
81 481 m 1,0,-1
 65 496 l 1,1,-1
 180 626 l 1,2,-1
 207 626 l 1,3,-1
 322 496 l 1,4,-1
 306 481 l 1,5,-1
 194 545 l 1,6,-1
 81 481 l 1,0,-1
EndSplineSet
EndChar

StartChar: caron
Encoding: 711 711 89
Width: 430
Flags: HMW
HStem: 481 21G<186 200 186 186> 603 20G<81 81 306 306>
LayerCount: 2
Fore
SplineSet
65 608 m 1,0,-1
 81 623 l 1,1,-1
 193 567 l 1,2,-1
 306 623 l 1,3,-1
 322 608 l 1,4,-1
 200 481 l 1,5,-1
 186 481 l 1,6,-1
 65 608 l 1,0,-1
EndSplineSet
EndChar

StartChar: ring
Encoding: 730 730 90
Width: 430
Flags: HMW
HStem: 481 32<203.5 226 203.5 237> 598 34<203.5 226>
VStem: 138 38<543.5 568.5 543.5 578.5> 253 39<543.5 568.5>
LayerCount: 2
Fore
SplineSet
215 513 m 128,-1,1
 232 513 232 513 242.5 525 c 128,-1,2
 253 537 253 537 253 556 c 128,-1,3
 253 575 253 575 242.5 586.5 c 128,-1,4
 232 598 232 598 215 598 c 128,-1,5
 198 598 198 598 187 586.5 c 128,-1,6
 176 575 176 575 176 556 c 128,-1,7
 176 537 176 537 187 525 c 128,-1,0
 198 513 198 513 215 513 c 128,-1,1
215 632 m 128,-1,9
 248 632 248 632 270 610.5 c 128,-1,10
 292 589 292 589 292 556.5 c 0,11,12
 292 524 292 524 270 502.5 c 128,-1,13
 248 481 248 481 215 481 c 128,-1,14
 182 481 182 481 160 502.5 c 128,-1,15
 138 524 138 524 138 556.5 c 0,16,17
 138 589 138 589 160 610.5 c 128,-1,8
 182 632 182 632 215 632 c 128,-1,9
EndSplineSet
EndChar

StartChar: breve
Encoding: 728 728 91
Width: 430
Flags: HMW
HStem: 481 60<189 240.5 189 249> 589 20G<92 92 338 338>
LayerCount: 2
Fore
SplineSet
142 559.5 m 128,-1,1
 176 541 176 541 214.5 541 c 128,-1,2
 253 541 253 541 287 559.5 c 128,-1,3
 321 578 321 578 338 609 c 1,4,-1
 357 598 l 1,5,6
 317 481 317 481 215 481 c 128,-1,7
 113 481 113 481 73 598 c 1,8,-1
 92 609 l 1,9,0
 108 578 108 578 142 559.5 c 128,-1,1
EndSplineSet
EndChar

StartChar: cedilla
Encoding: 184 184 92
Width: 430
Flags: HMW
HStem: -221 32<196 220.5 195.5 239.5> -22 20G<223 223>
VStem: 260 54<-158.5 -134>
LayerCount: 2
Fore
SplineSet
173 -97 m 1,0,-1
 223 -2 l 1,1,-1
 252 -11 l 1,2,-1
 228 -59 l 1,3,4
 281 -79 281 -79 297.5 -93 c 128,-1,5
 314 -107 314 -107 314 -132 c 0,6,7
 314 -172 314 -172 284.5 -196.5 c 128,-1,8
 255 -221 255 -221 214 -221 c 0,9,10
 173 -221 173 -221 137 -207 c 1,11,-1
 142 -178 l 1,12,13
 173 -189 173 -189 201 -189 c 0,14,15
 229 -189 229 -189 244.5 -177 c 128,-1,16
 260 -165 260 -165 260 -146.5 c 0,17,18
 260 -128 260 -128 246.5 -120.5 c 128,-1,19
 233 -113 233 -113 173 -97 c 1,0,-1
EndSplineSet
EndChar

StartChar: macron
Encoding: 175 175 93
Width: 430
Flags: HMW
HStem: 515 60<82 348 82 348>
LayerCount: 2
Fore
SplineSet
348 515 m 1,0,-1
 82 515 l 1,1,-1
 82 575 l 1,2,-1
 348 575 l 1,3,-1
 348 515 l 1,0,-1
EndSplineSet
EndChar

StartChar: hungarumlaut
Encoding: 733 733 94
Width: 430
Flags: HMW
HStem: 481 21G<37 37 188 188> 595 20G<106 106 257 257>
LayerCount: 2
Fore
SplineSet
188 481 m 1,0,-1
 172 496 l 1,1,-1
 257 615 l 1,2,-1
 353 607 l 1,3,-1
 353 594 l 1,4,-1
 188 481 l 1,0,-1
37 481 m 1,5,-1
 21 496 l 1,6,-1
 106 615 l 1,7,-1
 202 607 l 1,8,-1
 202 594 l 1,9,-1
 37 481 l 1,5,-1
EndSplineSet
EndChar

StartChar: oe
Encoding: 339 339 95
Width: 758
Flags: HMW
HStem: -15 56<205.5 270 519.5 566.5> -14 21G<690 706 690 690> 198 52<441 441 441 715 440 441> 358 56<193.5 270 515 574.5>
VStem: 40 86<153 259> 353 86<187 189 187 248> 635 83<251 289>
LayerCount: 2
Fore
SplineSet
440 198 m 1,0,-1
 439 187 l 1,1,2
 441 120 441 120 472 80.5 c 128,-1,3
 503 41 503 41 553 41 c 0,4,5
 619 41 619 41 675 85 c 1,6,-1
 682 126 l 1,7,-1
 699 125 l 1,8,-1
 706 -14 l 1,9,-1
 690 -14 l 1,10,-1
 681 9 l 1,11,12
 616 -15 616 -15 543 -15 c 0,13,14
 442 -15 442 -15 392 61 c 1,15,16
 339 -15 339 -15 241.5 -15 c 128,-1,17
 144 -15 144 -15 92 39.5 c 128,-1,18
 40 94 40 94 40 193.5 c 128,-1,19
 40 293 40 293 95 353.5 c 128,-1,20
 150 414 150 414 249 414 c 128,-1,21
 348 414 348 414 401 339 c 1,22,23
 453 414 453 414 543.5 414 c 128,-1,24
 634 414 634 414 676 374 c 128,-1,25
 718 334 718 334 718 249 c 0,26,27
 718 225 718 225 715 198 c 1,28,-1
 440 198 l 1,0,-1
247 41 m 0,29,30
 353 41 353 41 353 192 c 0,31,32
 353 358 353 358 230 358 c 0,33,34
 175 358 175 358 150.5 323.5 c 128,-1,35
 126 289 126 289 126 206.5 c 0,36,37
 126 41 126 41 247 41 c 0,29,30
441 250 m 1,38,-1
 635 251 l 1,39,40
 635 308 635 308 613 333 c 128,-1,41
 591 358 591 358 544 358 c 0,42,43
 451.188679245 358 451.188679245 358 441 250 c 1,38,-1
EndSplineSet
EndChar

StartChar: cent
Encoding: 162 162 96
Width: 454
Flags: HMW
HStem: -57 21G<200 239 200 200> 527 20G<247 286 286 286>
VStem: 45 82<197.5 299.5> 203 38 223 39
LayerCount: 2
Fore
SplineSet
370 467 m 1,0,-1
 378 490 l 1,1,-1
 394 490 l 1,2,-1
 387 352 l 1,3,-1
 370 352 l 1,4,-1
 367 383 l 1,5,6
 305 416 305 416 276 421 c 1,7,-1
 249 68 l 1,8,9
 298 69 298 69 367 108 c 1,10,-1
 370 140 l 1,11,-1
 387 140 l 1,12,-1
 394 2 l 1,13,-1
 378 2 l 1,14,-1
 370 25 l 1,15,16
 325 12 325 12 244 12 c 1,17,-1
 239 -57 l 1,18,-1
 200 -57 l 1,19,-1
 206 18 l 1,20,21
 131 34 131 34 88 92.5 c 128,-1,22
 45 151 45 151 45 241 c 0,23,24
 45 331 45 331 98 396.5 c 128,-1,25
 151 462 151 462 241 477 c 1,26,-1
 247 547 l 1,27,-1
 286 547 l 1,28,-1
 281 481 l 1,29,30
 329 478 329 478 370 467 c 1,0,-1
127 246 m 0,31,32
 127 97 127 97 210 72 c 1,33,-1
 237 423 l 1,34,35
 127 414 127 414 127 246 c 0,31,32
EndSplineSet
EndChar

StartChar: sterling
Encoding: 163 163 97
Width: 420
Flags: HMW
HStem: -27 21G<361 361> 0 49 234 46<46 82 46 87 46 82 168 168 168 289> 451 56<217.5 260.5> 496 20G<352 368 368 368>
VStem: 80 76<347.5 385.5 347.5 393.5> 93 77<157.5 175.5> 342 22
LayerCount: 2
Fore
SplineSet
344 0 m 1,0,-1
 26 0 l 1,1,-1
 25 19 l 1,2,-1
 64 35 l 1,3,4
 93 108 93 108 93 165 c 0,5,6
 93 195 93 195 87 234 c 1,7,-1
 46 234 l 1,8,-1
 46 280 l 1,9,-1
 82 280 l 1,10,11
 80 334 80 334 80 345 c 0,12,13
 80 418 80 418 131.5 462.5 c 128,-1,14
 183 507 183 507 266 507 c 0,15,16
 306 507 306 507 344 495 c 1,17,-1
 352 516 l 1,18,-1
 368 516 l 1,19,-1
 361 371 l 1,20,-1
 344 371 l 1,21,-1
 341 409 l 1,22,23
 297 451 297 451 250.5 451 c 0,24,25
 204 451 204 451 180 425.5 c 128,-1,26
 156 400 156 400 156 363.5 c 0,27,28
 156 327 156 327 162 280 c 1,29,-1
 289 280 l 1,30,-1
 289 234 l 1,31,-1
 168 234 l 1,32,33
 170 217 170 217 170 187 c 0,34,35
 170 107 170 107 120 46 c 1,36,-1
 236 52 l 1,37,-1
 356 72 l 1,38,-1
 373 112 l 1,39,-1
 390 108 l 1,40,-1
 361 -27 l 1,41,-1
 343 -26 l 1,42,-1
 344 0 l 1,0,-1
EndSplineSet
EndChar

StartChar: yen
Encoding: 165 165 98
Width: 488
Flags: HMW
HStem: 0 160<152 203 282 333 152 152> 124 36<36 201 36 203 284 427 284 284> 212 36<36 171 36 194 36 171 305 427> 472 20G<2 181 181 181 304 472 472 472>
VStem: 198 88
LayerCount: 2
Fore
SplineSet
281 177 m 1,0,-1
 282 160 l 1,1,-1
 427 160 l 1,2,-1
 427 124 l 1,3,-1
 284 124 l 1,4,-1
 289 26 l 1,5,-1
 334 19 l 1,6,-1
 333 0 l 1,7,-1
 152 0 l 1,8,-1
 151 19 l 1,9,-1
 195 26 l 1,10,-1
 201 124 l 1,11,-1
 36 124 l 1,12,-1
 36 160 l 1,13,-1
 203 160 l 1,14,-1
 204 175 l 1,15,-1
 204 197 l 1,16,-1
 194 212 l 1,17,-1
 36 212 l 1,18,-1
 36 248 l 1,19,-1
 171 248 l 1,20,-1
 31 466 l 1,21,-1
 1 473 l 1,22,-1
 2 492 l 1,23,-1
 181 492 l 1,24,-1
 182 471 l 1,25,-1
 142 466 l 1,26,-1
 156 410 l 1,27,-1
 246 244 l 1,28,-1
 329 403 l 1,29,-1
 344 466 l 1,30,-1
 303 471 l 1,31,-1
 304 492 l 1,32,-1
 472 492 l 1,33,-1
 473 473 l 1,34,-1
 442 466 l 1,35,-1
 305 248 l 1,36,-1
 427 248 l 1,37,-1
 427 212 l 1,38,-1
 281 212 l 1,39,-1
 281 177 l 1,0,-1
EndSplineSet
EndChar

StartChar: florin
Encoding: 402 402 99
Width: 394
Flags: HMW
HStem: -159 56<45.5 81.5 45.5 98.5> 272 43 381 20G<365 382 365 365> 481 56<249 292> 526 20G<365 389>
VStem: 117 75<52 181>
LayerCount: 2
Fore
SplineSet
117 163 m 1,0,-1
 116 269 l 1,1,-1
 32 269 l 1,2,-1
 30 304 l 1,3,-1
 118 315 l 1,4,5
 120 424 120 424 164.5 480.5 c 128,-1,6
 209 537 209 537 294 537 c 0,7,8
 332 537 332 537 365 526 c 1,9,-1
 373 546 l 1,10,-1
 389 546 l 1,11,-1
 382 401 l 1,12,-1
 365 401 l 1,13,-1
 362 439 l 1,14,15
 323 481 323 481 279 481 c 128,-1,16
 235 481 235 481 215.5 442 c 128,-1,17
 196 403 196 403 196 315 c 1,18,-1
 313 315 l 1,19,-1
 310 276 l 1,20,-1
 194 268 l 1,21,-1
 192 181 l 2,22,23
 187 -17 187 -17 156.5 -88 c 128,-1,24
 126 -159 126 -159 41 -159 c 0,25,26
 3 -159 3 -159 -41 -141 c 1,27,-1
 -55 -159 l 1,28,-1
 -70 -154 l 1,29,-1
 -26 -21 l 1,30,-1
 -10 -24 l 1,31,-1
 -14 -66 l 1,32,33
 20 -103 20 -103 56 -103 c 0,34,35
 76 -103 76 -103 87 -93.5 c 128,-1,36
 98 -84 98 -84 105.5 -53 c 0,37,38
 117 -5.46666666667 117 -5.46666666667 117 163 c 1,0,-1
EndSplineSet
EndChar

StartChar: lslash
Encoding: 322 322 100
Width: 248
Flags: HMW
HStem: 0 21G<50 202 50 50> 594 20G<175 175>
VStem: 30 139 83 86 83 154
LayerCount: 2
Fore
SplineSet
46 603 m 1,0,-1
 175 614 l 1,1,-1
 165 426 l 1,2,-1
 165 386 l 1,3,-1
 237 425 l 1,4,-1
 237 364 l 1,5,-1
 165 325 l 1,6,-1
 165 177 l 1,7,-1
 173 26 l 1,8,-1
 203 19 l 1,9,-1
 202 0 l 1,10,-1
 50 0 l 1,11,-1
 49 19 l 1,12,-1
 79 26 l 1,13,-1
 88 177 l 1,14,-1
 88 283 l 1,15,-1
 30 252 l 1,16,-1
 30 313 l 1,17,-1
 88 344 l 1,18,-1
 88 426 l 1,19,-1
 79 577 l 1,20,-1
 45 584 l 1,21,-1
 46 603 l 1,0,-1
EndSplineSet
EndChar

StartChar: Lslash
Encoding: 321 321 101
Width: 422
Flags: HMW
HStem: -27 21G<396 396> 0 68<190 278 190 379> 585 20G<61 232 232 232>
VStem: 38 147 96 89 96 210
LayerCount: 2
Fore
SplineSet
193 579 m 1,0,-1
 181 407 l 1,1,-1
 181 385 l 1,2,-1
 306 454 l 1,3,-1
 306 393 l 1,4,-1
 181 324 l 1,5,-1
 181 197 l 1,6,-1
 190 68 l 1,7,-1
 278 68 l 1,8,-1
 393 79 l 1,9,-1
 410 119 l 1,10,-1
 427 115 l 1,11,-1
 396 -27 l 1,12,-1
 378 -26 l 1,13,-1
 379 0 l 1,14,-1
 61 0 l 1,15,-1
 60 19 l 1,16,-1
 90 26 l 1,17,-1
 102 198 l 1,18,-1
 102 281 l 1,19,-1
 38 246 l 1,20,-1
 38 307 l 1,21,-1
 102 342 l 1,22,-1
 102 408 l 1,23,-1
 90 579 l 1,24,-1
 60 586 l 1,25,-1
 61 605 l 1,26,-1
 232 605 l 1,27,-1
 233 584 l 1,28,-1
 193 579 l 1,0,-1
EndSplineSet
EndChar

StartChar: oslash
Encoding: 248 248 102
Width: 480
Flags: HMW
HStem: -97 21G<215 215> -15 56<240 279.5 240 299.5> 358 56<195 233.5> 477 20G<277 277>
VStem: 40 86<165.5 248.5> 353 87<143.5 226.5>
LayerCount: 2
Fore
SplineSet
169 -89 m 1,0,-1
 183 -10 l 1,1,2
 111 4 111 4 75.5 58.5 c 128,-1,3
 40 113 40 113 40 199 c 0,4,5
 40 285 40 285 91 349.5 c 128,-1,6
 142 414 142 414 242 414 c 0,7,8
 255 414 255 414 261 413 c 1,9,-1
 277 497 l 1,10,-1
 323 489 l 1,11,-1
 307 406 l 1,12,13
 374 388 374 388 407 336.5 c 128,-1,14
 440 285 440 285 440 209 c 0,15,16
 440 108 440 108 385.5 46.5 c 128,-1,17
 331 -15 331 -15 230 -15 c 1,18,-1
 215 -97 l 1,19,-1
 169 -89 l 1,0,-1
126 212 m 0,20,21
 126 79 126 79 194 50 c 1,22,-1
 251 356 l 1,23,24
 237 358 237 358 230 358 c 0,25,26
 176 358 176 358 151 324.5 c 128,-1,27
 126 291 126 291 126 212 c 0,20,21
295 341 m 1,28,-1
 240 41 l 1,29,30
 299 41 299 41 326 76.5 c 128,-1,31
 353 112 353 112 353 188 c 0,32,33
 353 303 353 303 295 341 c 1,28,-1
EndSplineSet
EndChar

StartChar: Oslash
Encoding: 216 216 103
Width: 678
Flags: HMW
HStem: -97 21G<288 288> -15 66<348 416 348 419.5> -14 21G<303 307> 554 66<261 328.5> 599 20G<369 373> 683 20G<389 389>
VStem: 50 96<237.5 386 237.5 393.5> 532 96<216.5 367.5>
LayerCount: 2
Fore
SplineSet
328 -15 m 1,0,-1
 303 -14 l 1,1,-1
 288 -97 l 1,2,-1
 242 -89 l 1,3,-1
 257 -8 l 1,4,5
 159 13 159 13 104.5 92 c 128,-1,6
 50 171 50 171 50 293 c 0,7,8
 50 444 50 444 131 532 c 128,-1,9
 212 620 212 620 349 620 c 1,10,-1
 373 619 l 1,11,-1
 389 703 l 1,12,-1
 435 695 l 1,13,-1
 420 613 l 1,14,15
 519 591 519 591 573.5 512 c 128,-1,16
 628 433 628 433 628 311 c 0,17,18
 628 162 628 162 546.5 73.5 c 128,-1,19
 465 -15 465 -15 328 -15 c 1,0,-1
532 306 m 0,20,21
 532 494 532 494 406 540 c 1,22,-1
 316 53 l 1,23,24
 346 51 346 51 353 51 c 0,25,26
 447 51 447 51 489.5 111.5 c 128,-1,27
 532 172 532 172 532 306 c 0,20,21
146 297 m 0,28,29
 146 208 146 208 178 147.5 c 128,-1,30
 210 87 210 87 270 65 c 1,31,-1
 361 551 l 1,32,33
 340 554 340 554 322 554 c 0,34,35
 231 554 231 554 188.5 492.5 c 128,-1,36
 146 431 146 431 146 297 c 0,28,29
EndSplineSet
EndChar

StartChar: OE
Encoding: 338 338 104
Width: 945
Flags: HMW
HStem: -27 21G<859 859> -15 66<287.5 346> 0 51 0 68<593 741 593 842> 293 68<584 773 584 776> 537 68<593 741 593 593> 554 51 554 66<261 355.5> 614 20G<859 878 878 878>
VStem: 50 96<219 386 219 393.5> 505 83
LayerCount: 2
Fore
SplineSet
848 527 m 1,0,-1
 741 537 l 1,1,-1
 593 537 l 1,2,-1
 584 407 l 1,3,-1
 584 361 l 1,4,-1
 776 361 l 1,5,-1
 784 390 l 1,6,-1
 803 390 l 1,7,-1
 797 253 l 1,8,-1
 778 253 l 1,9,-1
 773 293 l 1,10,-1
 584 293 l 1,11,-1
 584 197 l 1,12,-1
 593 68 l 1,13,-1
 741 68 l 1,14,-1
 856 79 l 1,15,-1
 873 119 l 1,16,-1
 890 115 l 1,17,-1
 859 -27 l 1,18,-1
 841 -26 l 1,19,-1
 842 0 l 1,20,-1
 429 0 l 1,21,22
 382 -15 382 -15 328 -15 c 0,23,24
 198 -15 198 -15 124 67.5 c 128,-1,25
 50 150 50 150 50 297 c 128,-1,26
 50 444 50 444 131 532 c 128,-1,27
 212 620 212 620 349 620 c 0,28,29
 406 620 406 620 451 605 c 1,30,-1
 851 605 l 1,31,-1
 859 634 l 1,32,-1
 878 634 l 1,33,-1
 872 487 l 1,34,-1
 853 487 l 1,35,-1
 848 527 l 1,0,-1
188.5 492.5 m 128,-1,37
 146 431 146 431 146 305.5 c 128,-1,38
 146 180 146 180 200.5 115.5 c 128,-1,39
 255 51 255 51 353 51 c 0,40,41
 421 51 421 51 497 88 c 1,42,-1
 505 198 l 1,43,-1
 505 408 l 1,44,-1
 498 510 l 1,45,46
 422 554 422 554 326.5 554 c 128,-1,36
 231 554 231 554 188.5 492.5 c 128,-1,37
EndSplineSet
EndChar

StartChar: at
Encoding: 64 64 105
Width: 816
Flags: HMW
HStem: -173 47<355.5 470.5> 6 49<560 605.5 560 612> 370 54<382.5 423.5> 531 52<333 500>
VStem: 50 76<109.5 304 109.5 312.5> 227 85<150.5 249 150.5 253> 468 81 691 75<190 337.5>
LayerCount: 2
Fore
SplineSet
552 218 m 1,0,-1
 546 56 l 1,1,2
 554 55 554 55 563 55 c 0,3,4
 691 55 691 55 691 257 c 0,5,6
 691 378 691 378 615.5 454.5 c 128,-1,7
 540 531 540 531 415 531 c 128,-1,8
 290 531 290 531 208 441.5 c 128,-1,9
 126 352 126 352 126 206 c 128,-1,10
 126 60 126 60 216.5 -33 c 128,-1,11
 307 -126 307 -126 452 -126 c 0,12,13
 533 -126 533 -126 630 -88 c 1,14,-1
 644 -120 l 1,15,16
 549 -173 549 -173 433 -173 c 0,17,18
 265 -173 265 -173 157.5 -67.5 c 128,-1,19
 50 38 50 38 50 202.5 c 128,-1,20
 50 367 50 367 158 475 c 128,-1,21
 266 583 266 583 422.5 583 c 128,-1,22
 579 583 579 583 672.5 491.5 c 128,-1,23
 766 400 766 400 766 256 c 0,24,25
 766 157 766 157 703 81.5 c 128,-1,26
 640 6 640 6 557 6 c 0,27,28
 498 6 498 6 483 19.5 c 128,-1,29
 468 33 468 33 468 86 c 1,30,31
 403 6 403 6 326 6 c 0,32,33
 284 6 284 6 255.5 57 c 128,-1,34
 227 108 227 108 227 184 c 0,35,36
 227 288 227 288 286 356 c 128,-1,37
 345 424 345 424 435 424 c 0,38,39
 489 424 489 424 574 403 c 1,40,-1
 558 293 l 1,41,-1
 552 218 l 1,0,-1
416 370 m 0,42,43
 366 370 366 370 339 324 c 128,-1,44
 312 278 312 278 312 204 c 0,45,46
 312 60 312 60 360 60 c 0,47,48
 410 60 410 60 469 148 c 1,49,-1
 486 358 l 1,50,51
 435 370 435 370 416 370 c 0,42,43
EndSplineSet
EndChar

StartChar: question
Encoding: 63 63 106
Width: 373
Flags: HMW
HStem: -16 21G 564 56<146.5 191>
VStem: 255 88<467.5 512>
LayerCount: 2
Fore
SplineSet
343 504 m 0,0,1
 343 452 343 452 310.5 407 c 128,-1,2
 278 362 278 362 184 270 c 0,3,4
 161 247 161 247 161 190 c 1,5,-1
 137 185 l 1,6,7
 129 219 129 219 129 255 c 128,-1,8
 129 291 129 291 142 312.5 c 128,-1,9
 155 334 155 334 173.5 352 c 128,-1,10
 192 370 192 370 210.5 389 c 0,11,12
 255 434.702702703 255 434.702702703 255 490 c 0,13,14
 255 523 255 523 230 543.5 c 128,-1,15
 205 564 205 564 156.5 564 c 128,-1,16
 108 564 108 564 64 533 c 1,17,-1
 60 490 l 1,18,-1
 43 489 l 1,19,-1
 30 600 l 1,20,21
 85 620 85 620 174 620 c 0,22,23
 343 620 343 620 343 504 c 0,0,1
222 54 m 1,24,25
 206 5 206 5 151 -16 c 1,26,27
 101 -1 101 -1 81 54 c 1,28,29
 101 109 101 109 151 125 c 1,30,31
 207 103 207 103 222 54 c 1,24,25
EndSplineSet
EndChar

StartChar: questiondown
Encoding: 191 191 107
Width: 373
Flags: HMW
HStem: -222 56<182 226.5 182 229.5> 394 20G
VStem: 30 88<-114 -69.5>
LayerCount: 2
Fore
SplineSet
30 -106 m 0,0,1
 30 -54 30 -54 62.5 -9 c 128,-1,2
 95 36 95 36 189 128 c 0,3,4
 212 151 212 151 212 208 c 1,5,-1
 236 213 l 1,6,7
 244 179 244 179 244 143 c 128,-1,8
 244 107 244 107 231 85.5 c 128,-1,9
 218 64 218 64 199.5 46 c 128,-1,10
 181 28 181 28 162.5 9 c 0,11,12
 118 -36.7027027027 118 -36.7027027027 118 -92 c 0,13,14
 118 -125 118 -125 143 -145.5 c 128,-1,15
 168 -166 168 -166 216.5 -166 c 128,-1,16
 265 -166 265 -166 309 -135 c 1,17,-1
 313 -92 l 1,18,-1
 330 -91 l 1,19,-1
 343 -202 l 1,20,21
 288 -222 288 -222 199 -222 c 0,22,23
 30 -222 30 -222 30 -106 c 0,0,1
151 344 m 1,24,25
 167 393 167 393 222 414 c 1,26,27
 272 399 272 399 292 344 c 1,28,29
 272 289 272 289 222 273 c 1,30,31
 166 295 166 295 151 344 c 1,24,25
EndSplineSet
EndChar

StartChar: Eth
Encoding: 208 208 108
Width: 639
Flags: HMW
HStem: -3 64<281.5 367.5 281.5 387.5> 293 68<46 102 46 102 37 102 181 327> 548 60<272.5 358>
VStem: 96 85 498 91<217.5 381.5>
LayerCount: 2
Fore
SplineSet
90 27 m 1,0,-1
 102 198 l 1,1,-1
 102 293 l 1,2,-1
 37 293 l 1,3,-1
 46 361 l 1,4,-1
 102 361 l 1,5,-1
 102 407 l 1,6,-1
 90 578 l 1,7,-1
 60 585 l 1,8,-1
 61 604 l 1,9,10
 183 608 183 608 296 608 c 0,11,12
 445 608 445 608 517 537 c 128,-1,13
 589 466 589 466 589 311.5 c 0,14,15
 589 -3 589 -3 285 -3 c 1,16,-1
 61 1 l 1,17,-1
 60 20 l 1,18,-1
 90 27 l 1,0,-1
181 197 m 1,19,-1
 189 77 l 1,20,21
 239 61 239 61 302 61 c 0,22,23
 498 61 498 61 498 296 c 0,24,25
 498 424 498 424 446 486 c 128,-1,26
 394 548 394 548 286 548 c 0,27,28
 239 548 239 548 190 532 c 1,29,-1
 181 406 l 1,30,-1
 181 361 l 1,31,-1
 334 361 l 1,32,-1
 327 293 l 1,33,-1
 181 293 l 1,34,-1
 181 197 l 1,19,-1
EndSplineSet
EndChar

StartChar: Thorn
Encoding: 222 222 109
Width: 504
Flags: HMW
HStem: 0 197<224.5 237 61 290> 132 65<224.5 286.5> 434 60<251.5 298.5> 434 171<61 298.5>
VStem: 102 79<200 408 408 408> 381 93<272 353.5>
LayerCount: 2
Fore
SplineSet
90 26 m 1,0,-1
 102 198 l 1,1,-1
 102 408 l 1,2,-1
 90 579 l 1,3,-1
 60 586 l 1,4,-1
 61 605 l 1,5,-1
 237 605 l 1,6,-1
 238 586 l 1,7,-1
 193 579 l 1,8,-1
 186 488 l 1,9,10
 228 494 228 494 262 494 c 0,11,12
 370 494 370 494 422 450.5 c 128,-1,13
 474 407 474 407 474 314 c 0,14,15
 474 221 474 221 405.5 176.5 c 128,-1,16
 337 132 337 132 185 132 c 1,17,-1
 193 26 l 1,18,-1
 238 19 l 1,19,-1
 237 0 l 1,20,-1
 61 0 l 1,21,-1
 60 19 l 1,22,-1
 90 26 l 1,0,-1
257 434 m 0,23,24
 212 434 212 434 181 428 c 1,25,-1
 181 200 l 1,26,27
 197 197 197 197 240 197 c 0,28,29
 315 197 315 197 348 224 c 128,-1,30
 381 251 381 251 381 313 c 0,31,32
 381 434 381 434 257 434 c 0,23,24
EndSplineSet
EndChar

StartChar: thorn
Encoding: 254 254 110
Width: 492
Flags: HMW
HStem: -206 246<50 283.5 50 283.5> -15 55<233 283.5 233 299> 358 56<265 287> 594 20G<175 175>
VStem: 88 81 358 86<141 244.5>
LayerCount: 2
Fore
SplineSet
46 603 m 1,0,-1
 175 614 l 1,1,-1
 165 426 l 1,2,-1
 165 363 l 1,3,4
 225 414 225 414 289.5 414 c 0,5,6
 354 414 354 414 399 356.5 c 128,-1,7
 444 299 444 299 444 202.5 c 0,8,9
 444 106 444 106 388 45.5 c 128,-1,10
 332 -15 332 -15 234 -15 c 0,11,12
 202 -15 202 -15 165 -7 c 1,13,-1
 165 -29 l 1,14,-1
 173 -180 l 1,15,-1
 218 -185 l 1,16,-1
 217 -206 l 1,17,-1
 50 -206 l 1,18,-1
 49 -187 l 1,19,-1
 79 -180 l 1,20,-1
 88 -29 l 1,21,-1
 88 426 l 1,22,-1
 79 577 l 1,23,-1
 45 584 l 1,24,-1
 46 603 l 1,0,-1
358 192 m 128,-1,26
 358 271 358 271 330.5 314.5 c 128,-1,27
 303 358 303 358 254 358 c 0,28,29
 234 358 234 358 209 344.5 c 128,-1,30
 184 331 184 331 165 309 c 1,31,-1
 165 51 l 1,32,33
 212 40 212 40 244 40 c 0,34,35
 303 40 303 40 330.5 76.5 c 128,-1,25
 358 113 358 113 358 192 c 128,-1,26
EndSplineSet
EndChar

StartChar: twosuperior
Encoding: 178 178 111
Width: 387
Flags: HMW
HStem: 290 55 595 53<178 188.5> 632 20G<61 83 83 83>
VStem: 235 82<533.5 564.5>
LayerCount: 2
Fore
SplineSet
52 290 m 1,0,-1
 44 316 l 1,1,2
 168 434 168 434 201.5 475.5 c 128,-1,3
 235 517 235 517 235 550 c 0,4,5
 235 595 235 595 166 595 c 0,6,7
 124 595 124 595 91 570 c 1,8,-1
 89 537 l 1,9,-1
 67 537 l 1,10,-1
 61 652 l 1,11,-1
 83 652 l 1,12,-1
 89 634 l 1,13,14
 142 648 142 648 197.5 648 c 0,15,16
 253 648 253 648 285 624.5 c 128,-1,17
 317 601 317 601 317 561 c 0,18,19
 317 521 317 521 284.5 480.5 c 128,-1,20
 252 440 252 440 145 343 c 1,21,-1
 233 347 l 1,22,-1
 296 356 l 1,23,-1
 307 386 l 1,24,-1
 331 384 l 1,25,-1
 313 290 l 1,26,-1
 52 290 l 1,0,-1
EndSplineSet
EndChar

StartChar: threesuperior
Encoding: 179 179 112
Width: 374
Flags: HMW
HStem: 280 49<120.5 126 90 176.5> 451 196<95 206.5> 598 49<153 179> 631 20G<51 73 73 73>
VStem: 54 240<331 418> 217 77
LayerCount: 2
Fore
SplineSet
217 552 m 0,0,1
 217 598 217 598 163.5 598 c 128,-1,2
 110 598 110 598 81 575 c 1,3,-1
 79 545 l 1,4,-1
 57 545 l 1,5,-1
 51 651 l 1,6,-1
 73 651 l 1,7,-1
 79 634 l 1,8,9
 119 647 119 647 169 647 c 0,10,11
 285 647 285 647 285 570 c 0,12,13
 285 512 285 512 201 484 c 1,14,15
 245 477 245 477 269.5 453.5 c 128,-1,16
 294 430 294 430 294 394 c 0,17,18
 294 346 294 346 246.5 313 c 128,-1,19
 199 280 199 280 131 280 c 0,20,21
 102 280 102 280 50 285 c 1,22,-1
 54 331 l 1,23,24
 76 329 76 329 99 329 c 0,25,26
 223 329 223 329 223 399 c 0,27,28
 223 428 223 428 195 439.5 c 128,-1,29
 167 451 167 451 95 451 c 1,30,-1
 93 491 l 1,31,32
 165 498 165 498 191 511 c 128,-1,33
 217 524 217 524 217 552 c 0,0,1
EndSplineSet
EndChar

StartChar: onesuperior
Encoding: 185 185 113
Width: 314
Flags: HMW
HStem: 291 21G<65 261 65 65> 627 20G<179 195 195 195>
VStem: 132 63<448 571 571 571>
LayerCount: 2
Fore
SplineSet
132 448 m 1,0,-1
 132 571 l 1,1,-1
 51 551 l 1,2,-1
 43 588 l 1,3,-1
 179 647 l 1,4,-1
 195 647 l 1,5,-1
 195 448 l 1,6,-1
 202 326 l 1,7,-1
 262 311 l 1,8,-1
 261 291 l 1,9,-1
 65 291 l 1,10,-1
 64 311 l 1,11,-1
 125 326 l 1,12,-1
 132 448 l 1,0,-1
EndSplineSet
EndChar

StartChar: slash
Encoding: 47 47 114
Width: 297
Flags: HMW
HStem: -40 21G<40 100 40 40> 640 20G<227 287 287 287>
LayerCount: 2
Fore
SplineSet
100 -40 m 1,0,-1
 40 -40 l 1,1,-1
 227 660 l 1,2,-1
 287 660 l 1,3,-1
 100 -40 l 1,0,-1
EndSplineSet
EndChar

StartChar: onehalf
Encoding: 189 189 115
Width: 807
Flags: HMW
HStem: -78 21G<229 229> 1 55 306 53<596.5 606> 661 20G<493 493>
VStem: 132 63<448 571 571 571> 655 82<235.5 277>
LayerCount: 2
Fore
SplineSet
472 1 m 1,0,-1
 464 27 l 1,1,-1
 489 51 l 2,2,3
 584 141 584 141 619.5 183.5 c 128,-1,4
 655 226 655 226 655 261 c 0,5,6
 655 306 655 306 586 306 c 0,7,8
 544 306 544 306 511 281 c 1,9,-1
 509 248 l 1,10,-1
 487 248 l 1,11,-1
 481 363 l 1,12,-1
 503 363 l 1,13,-1
 509 345 l 1,14,15
 563 359 563 359 614 359 c 0,16,17
 737 359 737 359 737 269 c 0,18,19
 737 229.8 737 229.8 705.5 192 c 0,20,21
 661.714285714 139.457142857 661.714285714 139.457142857 640.857142857 121.728571429 c 128,-1,22
 620 104 620 104 597.5 83.5 c 128,-1,23
 575 63 575 63 565 54 c 1,24,-1
 653 58 l 1,25,-1
 716 67 l 1,26,-1
 727 97 l 1,27,-1
 751 95 l 1,28,-1
 733 1 l 1,29,-1
 472 1 l 1,0,-1
229 -78 m 1,30,-1
 175 -55 l 1,31,-1
 493 681 l 1,32,-1
 547 658 l 1,33,-1
 229 -78 l 1,30,-1
132 448 m 1,34,-1
 132 571 l 1,35,-1
 51 551 l 1,36,-1
 43 588 l 1,37,-1
 179 647 l 1,38,-1
 195 647 l 1,39,-1
 195 448 l 1,40,-1
 202 326 l 1,41,-1
 262 311 l 1,42,-1
 261 291 l 1,43,-1
 65 291 l 1,44,-1
 64 311 l 1,45,-1
 125 326 l 1,46,-1
 132 448 l 1,34,-1
EndSplineSet
EndChar

StartChar: fraction
Encoding: 8260 8260 116
Width: 225
Flags: HMW
HStem: -78 21G<-6 -6> 661 20G<258 258>
LayerCount: 2
Fore
SplineSet
-6 -78 m 1,0,-1
 -60 -55 l 1,1,-1
 258 681 l 1,2,-1
 312 658 l 1,3,-1
 -6 -78 l 1,0,-1
EndSplineSet
EndChar

StartChar: onequarter
Encoding: 188 188 117
Width: 756
Flags: HMW
HStem: -78 21G<229 229> 1 150<531 576 464 678 531 531> 103 48<464 576 464 576> 661 20G<493 493>
VStem: 132 63<448 571 571 571> 576 63<86 103 36 103 36 156 156 272 272 272>
LayerCount: 2
Fore
SplineSet
681 161 m 1,0,-1
 686 191 l 1,1,-1
 706 191 l 1,2,-1
 703 103 l 1,3,-1
 639 103 l 1,4,-1
 639 36 l 1,5,-1
 679 21 l 1,6,-1
 678 1 l 1,7,-1
 531 1 l 1,8,-1
 530 21 l 1,9,-1
 570 36 l 1,10,-1
 576 86 l 1,11,-1
 576 103 l 1,12,-1
 415 103 l 1,13,-1
 409 147 l 1,14,-1
 590 359 l 1,15,-1
 639 359 l 1,16,-1
 639 156 l 1,17,-1
 681 161 l 1,0,-1
229 -78 m 1,18,-1
 175 -55 l 1,19,-1
 493 681 l 1,20,-1
 547 658 l 1,21,-1
 229 -78 l 1,18,-1
132 448 m 1,22,-1
 132 571 l 1,23,-1
 51 551 l 1,24,-1
 43 588 l 1,25,-1
 179 647 l 1,26,-1
 195 647 l 1,27,-1
 195 448 l 1,28,-1
 202 326 l 1,29,-1
 262 311 l 1,30,-1
 261 291 l 1,31,-1
 65 291 l 1,32,-1
 64 311 l 1,33,-1
 125 326 l 1,34,-1
 132 448 l 1,22,-1
464 151 m 1,35,-1
 576 151 l 1,36,-1
 576 272 l 1,37,-1
 464 151 l 1,35,-1
EndSplineSet
EndChar

StartChar: threequarters
Encoding: 190 190 118
Width: 803
Flags: HMW
HStem: -78 21G<276 276> 1 150<578 623 511 725 578 578> 103 48<511 623 511 623> 280 49<120.5 126 90 176.5> 451 196<95 206.5> 598 49<153 179> 661 20G<540 540>
VStem: 54 240<331 418> 217 77 623 63<86 103 36 103 36 156 156 272 272 272>
LayerCount: 2
Fore
SplineSet
728 161 m 1,0,-1
 733 191 l 1,1,-1
 753 191 l 1,2,-1
 750 103 l 1,3,-1
 686 103 l 1,4,-1
 686 36 l 1,5,-1
 726 21 l 1,6,-1
 725 1 l 1,7,-1
 578 1 l 1,8,-1
 577 21 l 1,9,-1
 617 36 l 1,10,-1
 623 86 l 1,11,-1
 623 103 l 1,12,-1
 462 103 l 1,13,-1
 456 147 l 1,14,-1
 637 359 l 1,15,-1
 686 359 l 1,16,-1
 686 156 l 1,17,-1
 728 161 l 1,0,-1
276 -78 m 1,18,-1
 222 -55 l 1,19,-1
 540 681 l 1,20,-1
 594 658 l 1,21,-1
 276 -78 l 1,18,-1
217 552 m 0,22,23
 217 598 217 598 163.5 598 c 128,-1,24
 110 598 110 598 81 575 c 1,25,-1
 79 545 l 1,26,-1
 57 545 l 1,27,-1
 51 651 l 1,28,-1
 73 651 l 1,29,-1
 79 634 l 1,30,31
 119 647 119 647 169 647 c 0,32,33
 285 647 285 647 285 570 c 0,34,35
 285 512 285 512 201 484 c 1,36,37
 245 477 245 477 269.5 453.5 c 128,-1,38
 294 430 294 430 294 394 c 0,39,40
 294 346 294 346 246.5 313 c 128,-1,41
 199 280 199 280 131 280 c 0,42,43
 102 280 102 280 50 285 c 1,44,-1
 54 331 l 1,45,46
 76 329 76 329 99 329 c 0,47,48
 223 329 223 329 223 399 c 0,49,50
 223 428 223 428 195 439.5 c 128,-1,51
 167 451 167 451 95 451 c 1,52,-1
 93 491 l 1,53,54
 165 498 165 498 191 511 c 128,-1,55
 217 524 217 524 217 552 c 0,22,23
511 151 m 1,56,-1
 623 151 l 1,57,-1
 623 272 l 1,58,-1
 511 151 l 1,56,-1
EndSplineSet
EndChar

StartChar: perthousand
Encoding: 8240 8240 119
Width: 1189
Flags: HMW
HStem: -26 21G<309 309> -15 52<617.5 662.5 617.5 682.5 958.5 1003.5> 216 52<182.5 227.5 182.5 247.5> 264 52<620 665 961 1006> 495 52<185 230> 538 20G<539 539>
VStem: 67 70<343.5 416.5 343.5 430.5> 276 70<345.5 419> 502 70<112.5 185.5 112.5 199.5> 711 70<114.5 188> 843 70<112.5 185.5 112.5 199.5> 1052 70<114.5 188>
LayerCount: 2
Fore
SplineSet
104 260.5 m 128,-1,1
 67 305 67 305 67 381 c 128,-1,2
 67 457 67 457 105 502 c 128,-1,3
 143 547 143 547 207 547 c 128,-1,4
 271 547 271 547 308.5 502.5 c 128,-1,5
 346 458 346 458 346 382 c 128,-1,6
 346 306 346 306 308 261 c 128,-1,7
 270 216 270 216 205.5 216 c 128,-1,0
 141 216 141 216 104 260.5 c 128,-1,1
539 29.5 m 128,-1,9
 502 74 502 74 502 150 c 128,-1,10
 502 226 502 226 540 271 c 128,-1,11
 578 316 578 316 642 316 c 128,-1,12
 706 316 706 316 743.5 271.5 c 128,-1,13
 781 227 781 227 781 151 c 128,-1,14
 781 75 781 75 743 30 c 128,-1,15
 705 -15 705 -15 640.5 -15 c 128,-1,8
 576 -15 576 -15 539 29.5 c 128,-1,9
880 29.5 m 128,-1,17
 843 74 843 74 843 150 c 128,-1,18
 843 226 843 226 881 271 c 128,-1,19
 919 316 919 316 983 316 c 128,-1,20
 1047 316 1047 316 1084.5 271.5 c 128,-1,21
 1122 227 1122 227 1122 151 c 128,-1,22
 1122 75 1122 75 1084 30 c 128,-1,23
 1046 -15 1046 -15 981.5 -15 c 128,-1,16
 917 -15 917 -15 880 29.5 c 128,-1,17
309 -26 m 1,24,-1
 249 -2 l 1,25,-1
 539 558 l 1,26,-1
 599 534 l 1,27,-1
 309 -26 l 1,24,-1
137 379 m 0,28,29
 137 326 137 326 154.5 297 c 128,-1,30
 172 268 172 268 204 268 c 0,31,32
 276 268 276 268 276 381.5 c 128,-1,33
 276 495 276 495 208 495 c 0,34,35
 137 495 137 495 137 379 c 0,28,29
913 148 m 0,36,37
 913 95 913 95 930.5 66 c 128,-1,38
 948 37 948 37 980 37 c 0,39,40
 1052 37 1052 37 1052 150.5 c 128,-1,41
 1052 264 1052 264 984 264 c 0,42,43
 913 264 913 264 913 148 c 0,36,37
572 148 m 0,44,45
 572 95 572 95 589.5 66 c 128,-1,46
 607 37 607 37 639 37 c 0,47,48
 711 37 711 37 711 150.5 c 128,-1,49
 711 264 711 264 643 264 c 0,50,51
 572 264 572 264 572 148 c 0,44,45
EndSplineSet
EndChar

StartChar: minus
Encoding: 8722 8722 120
Width: 518
Flags: HMW
HStem: 221 59<80 438 84 434>
LayerCount: 2
Fore
SplineSet
80 221 m 1,0,-1
 84 280 l 1,1,-1
 438 280 l 1,2,-1
 434 221 l 1,3,-1
 80 221 l 1,0,-1
EndSplineSet
EndChar

StartChar: underscore
Encoding: 95 95 121
Width: 380
Flags: HMW
HStem: -95 69<15 365 15 365>
LayerCount: 2
Fore
SplineSet
15 -95 m 1,0,-1
 15 -26 l 1,1,-1
 365 -26 l 1,2,-1
 365 -95 l 1,3,-1
 15 -95 l 1,0,-1
EndSplineSet
EndChar

StartChar: plus
Encoding: 43 43 122
Width: 514
Flags: HMW
HStem: 73 21G<227 286 227 227> 221 59<80 227 80 227 286 434> 407 20G<227 286 286 286>
VStem: 227 59<73 221 73 221 280 427>
LayerCount: 2
Fore
SplineSet
80 221 m 1,0,-1
 80 280 l 1,1,-1
 227 280 l 1,2,-1
 227 427 l 1,3,-1
 286 427 l 1,4,-1
 286 280 l 1,5,-1
 434 280 l 1,6,-1
 434 221 l 1,7,-1
 286 221 l 1,8,-1
 286 73 l 1,9,-1
 227 73 l 1,10,-1
 227 221 l 1,11,-1
 80 221 l 1,0,-1
EndSplineSet
EndChar

StartChar: equal
Encoding: 61 61 123
Width: 514
Flags: HMW
HStem: 121 59<80 434 80 434> 321 59<80 434 80 434>
LayerCount: 2
Fore
SplineSet
80 321 m 1,0,-1
 80 380 l 1,1,-1
 434 380 l 1,2,-1
 434 321 l 1,3,-1
 80 321 l 1,0,-1
80 121 m 1,4,-1
 80 180 l 1,5,-1
 434 180 l 1,6,-1
 434 121 l 1,7,-1
 80 121 l 1,4,-1
EndSplineSet
EndChar

StartChar: multiply
Encoding: 215 215 124
Width: 514
Flags: HMW
HStem: 73 21G<129 129 385 385> 408 20G<129 129 385 385>
LayerCount: 2
Fore
SplineSet
129 73 m 1,0,-1
 80 122 l 1,1,-1
 208 250 l 1,2,-1
 80 379 l 1,3,-1
 129 428 l 1,4,-1
 257 299 l 1,5,-1
 385 428 l 1,6,-1
 434 379 l 1,7,-1
 306 250 l 1,8,-1
 434 122 l 1,9,-1
 385 73 l 1,10,-1
 257 201 l 1,11,-1
 129 73 l 1,0,-1
EndSplineSet
EndChar

StartChar: plusminus
Encoding: 177 177 125
Width: 518
Flags: HMW
HStem: 0 59<80 438 84 434> 248 59<82 229 82 229 288 436> 434 20G<229 288 288 288>
VStem: 229 59<100 248 100 248 307 454>
LayerCount: 2
Fore
SplineSet
82 248 m 1,0,-1
 82 307 l 1,1,-1
 229 307 l 1,2,-1
 229 454 l 1,3,-1
 288 454 l 1,4,-1
 288 307 l 1,5,-1
 436 307 l 1,6,-1
 436 248 l 1,7,-1
 288 248 l 1,8,-1
 288 100 l 1,9,-1
 229 100 l 1,10,-1
 229 248 l 1,11,-1
 82 248 l 1,0,-1
80 0 m 1,12,-1
 84 59 l 1,13,-1
 438 59 l 1,14,-1
 434 0 l 1,15,-1
 80 0 l 1,12,-1
EndSplineSet
EndChar

StartChar: divide
Encoding: 247 247 126
Width: 518
Flags: HMW
HStem: 41 21G 221 59<80 438 84 434> 442 20G
LayerCount: 2
Fore
SplineSet
80 221 m 1,0,-1
 84 280 l 1,1,-1
 438 280 l 1,2,-1
 434 221 l 1,3,-1
 80 221 l 1,0,-1
261 462 m 1,4,5
 307.875 443.25 307.875 443.25 321 402 c 1,6,7
 308 362 308 362 261 343 c 1,8,9
 220 354 220 354 202 402 c 1,10,11
 220 449 220 449 261 462 c 1,4,5
261 160 m 1,12,13
 307.875 141.25 307.875 141.25 321 100 c 1,14,15
 308 60 308 60 261 41 c 1,16,17
 220 52 220 52 202 100 c 1,18,19
 220 147 220 147 261 160 c 1,12,13
EndSplineSet
EndChar

StartChar: notequal
Encoding: 8800 8800 127
Width: 514
Flags: HMW
HStem: -2 21G<227 227> 121 69<80 204 80 217 262 434 80 249> 311 69<80 252 80 239 80 285 297 434> 461 20G<271 271>
LayerCount: 2
Fore
SplineSet
80 311 m 1,0,-1
 80 380 l 1,1,-1
 252 380 l 1,2,-1
 271 481 l 1,3,-1
 315 474 l 1,4,-1
 297 380 l 1,5,-1
 434 380 l 1,6,-1
 434 311 l 1,7,-1
 285 311 l 1,8,-1
 262 190 l 1,9,-1
 434 190 l 1,10,-1
 434 121 l 1,11,-1
 249 121 l 1,12,-1
 227 -2 l 1,13,-1
 183 5 l 1,14,-1
 204 121 l 1,15,-1
 80 121 l 1,16,-1
 80 190 l 1,17,-1
 217 190 l 1,18,-1
 239 311 l 1,19,-1
 80 311 l 1,0,-1
EndSplineSet
EndChar

StartChar: less
Encoding: 60 60 128
Width: 533
Flags: HMW
HStem: 67 21G<429 429> 414 20G<429 429>
LayerCount: 2
Fore
SplineSet
144 250 m 1,0,-1
 438 127 l 1,1,-1
 429 67 l 1,2,-1
 80 222 l 1,3,-1
 80 279 l 1,4,-1
 429 434 l 1,5,-1
 438 374 l 1,6,-1
 144 250 l 1,0,-1
EndSplineSet
EndChar

StartChar: greater
Encoding: 62 62 129
Width: 533
Flags: HMW
HStem: 67 21G<104 104> 414 20G<104 104>
LayerCount: 2
Fore
SplineSet
95 127 m 1,0,-1
 389 250 l 1,1,-1
 95 374 l 1,2,-1
 104 434 l 1,3,-1
 453 279 l 1,4,-1
 453 222 l 1,5,-1
 104 67 l 1,6,-1
 95 127 l 1,0,-1
EndSplineSet
EndChar

StartChar: lessequal
Encoding: 8804 8804 130
Width: 533
Flags: HMW
HStem: 0 59<80 438 84 434> 434 20G<429 429>
LayerCount: 2
Fore
SplineSet
144 270 m 1,0,-1
 438 147 l 1,1,-1
 429 87 l 1,2,-1
 80 242 l 1,3,-1
 80 299 l 1,4,-1
 429 454 l 1,5,-1
 438 394 l 1,6,-1
 144 270 l 1,0,-1
80 0 m 1,7,-1
 84 59 l 1,8,-1
 438 59 l 1,9,-1
 434 0 l 1,10,-1
 80 0 l 1,7,-1
EndSplineSet
EndChar

StartChar: greaterequal
Encoding: 8805 8805 131
Width: 533
Flags: HMW
HStem: 0 59<95 453 99 449> 434 20G<104 104>
LayerCount: 2
Fore
SplineSet
95 147 m 1,0,-1
 389 270 l 1,1,-1
 95 394 l 1,2,-1
 104 454 l 1,3,-1
 453 299 l 1,4,-1
 453 242 l 1,5,-1
 104 87 l 1,6,-1
 95 147 l 1,0,-1
95 0 m 1,7,-1
 99 59 l 1,8,-1
 453 59 l 1,9,-1
 449 0 l 1,10,-1
 95 0 l 1,7,-1
EndSplineSet
EndChar

StartChar: bar
Encoding: 124 124 132
Width: 372
Flags: HMW
HStem: -218 21G<150 150 150 222> 669 20G<222 222>
VStem: 150 72<-218 681 681 681>
LayerCount: 2
Fore
SplineSet
150 -218 m 1,0,-1
 150 681 l 1,1,-1
 222 689 l 1,2,-1
 222 -218 l 1,3,-1
 150 -218 l 1,0,-1
EndSplineSet
EndChar

StartChar: brokenbar
Encoding: 166 166 133
Width: 382
Flags: HMW
HStem: -218 21G<150 150 150 222> 224 96<150 222 150 222> 669 20G<222 222>
VStem: 150 72<-218 224 -218 224 320 681 681 681>
LayerCount: 2
Fore
SplineSet
150 -218 m 1,0,-1
 150 224 l 1,1,-1
 222 224 l 1,2,-1
 222 -218 l 1,3,-1
 150 -218 l 1,0,-1
150 320 m 1,4,-1
 150 681 l 1,5,-1
 222 689 l 1,6,-1
 222 320 l 1,7,-1
 150 320 l 1,4,-1
EndSplineSet
EndChar

StartChar: backslash
Encoding: 92 92 134
Width: 297
Flags: HMW
HStem: -39 21G<197 257 197 197> 641 20G<10 70 70 70>
LayerCount: 2
Fore
SplineSet
257 -39 m 1,0,-1
 197 -39 l 1,1,-1
 10 661 l 1,2,-1
 70 661 l 1,3,-1
 257 -39 l 1,0,-1
EndSplineSet
EndChar

StartChar: ordfeminine
Encoding: 170 170 135
Width: 391
Flags: HMW
HStem: 244 48<155.5 160> 548 48<165 199.5> 587 20G<60 84 84 84>
VStem: 40 72<333 366 333 377> 247 69<468.5 478 478 500.5>
LayerCount: 2
Fore
SplineSet
84 607 m 1,0,-1
 91 588 l 1,1,2
 140 596 140 596 171 596 c 0,3,4
 241 596 241 596 278.5 565.5 c 128,-1,5
 316 535 316 535 316 478 c 2,6,-1
 315 404 l 1,7,-1
 321 291 l 1,8,-1
 356 284 l 1,9,-1
 355 258 l 1,10,-1
 245 250 l 1,11,-1
 245 285 l 1,12,13
 196 244 196 244 146.5 244 c 0,14,15
 97 244 97 244 68.5 271 c 128,-1,16
 40 298 40 298 40 346.5 c 0,17,18
 40 395 40 395 83 420 c 128,-1,19
 126 445 126 445 247 463 c 1,20,-1
 247 478 l 2,21,22
 247 548 247 548 177 548 c 0,23,24
 142 548 142 548 96 528 c 1,25,-1
 93 495 l 1,26,-1
 68 494 l 1,27,-1
 60 607 l 1,28,-1
 84 607 l 1,0,-1
112 349 m 0,29,30
 112 325 112 325 129.5 308.5 c 128,-1,31
 147 292 147 292 177.5 292 c 0,32,33
 208 292 208 292 245 329 c 1,34,-1
 249 415 l 1,35,36
 112 398 112 398 112 349 c 0,29,30
EndSplineSet
EndChar

StartChar: ordmasculine
Encoding: 186 186 136
Width: 383
Flags: HMW
HStem: 244 54<171 227 171 241> 543 54<162 218>
VStem: 40 74<385 468> 278 75<372.5 454>
LayerCount: 2
Fore
SplineSet
201 298 m 0,0,1
 278 298 278 298 278 410 c 0,2,3
 278 543 278 543 188 543 c 0,4,5
 149 543 149 543 131.5 516.5 c 128,-1,6
 114 490 114 490 114 426 c 128,-1,7
 114 362 114 362 135 330 c 128,-1,8
 156 298 156 298 201 298 c 0,0,1
81 289 m 128,-1,10
 40 334 40 334 40 415 c 128,-1,11
 40 496 40 496 83.5 546.5 c 128,-1,12
 127 597 127 597 199.5 597 c 128,-1,13
 272 597 272 597 312.5 552.5 c 128,-1,14
 353 508 353 508 353 426.5 c 128,-1,15
 353 345 353 345 309 294.5 c 128,-1,16
 265 244 265 244 193.5 244 c 128,-1,9
 122 244 122 244 81 289 c 128,-1,10
EndSplineSet
EndChar

StartChar: asterisk
Encoding: 42 42 137
Width: 453
Flags: HMW
HStem: 248 21G<114 121.5 332 340> 597 20G
LayerCount: 2
Fore
SplineSet
219 443 m 1,0,-1
 189 585 l 1,1,2
 198 609 198 609 227 617 c 1,3,4
 257 607 257 607 265 585 c 1,5,-1
 235 443 l 1,6,-1
 219 443 l 1,0,-1
253 392 m 1,7,-1
 369 305 l 1,8,9
 373 298 373 298 373 284 c 0,10,11
 373 270 373 270 362 256 c 1,12,13
 347 248 347 248 335 248 c 0,14,15
 323 248 323 248 313 255 c 1,16,-1
 241 381 l 1,17,-1
 253 392 l 1,7,-1
85 305 m 1,18,-1
 201 392 l 1,19,-1
 213 381 l 1,20,-1
 141 255 l 1,21,22
 130 248 130 248 117.5 248 c 0,23,24
 105 248 105 248 92 256 c 1,25,26
 81 270 81 270 81 284 c 0,27,28
 81 298 81 298 85 305 c 1,18,-1
80 512 m 1,29,-1
 201 432 l 1,30,-1
 195 417 l 1,31,-1
 52 442 l 1,32,33
 35 456 35 456 35 479 c 0,34,35
 35 487 35 487 36 489 c 0,36,37
 52 512 52 512 80 512 c 1,29,-1
253 432 m 1,38,-1
 374 512 l 1,39,40
 401 512 401 512 418 489 c 1,41,42
 418 468 418 468 415 460 c 128,-1,43
 412 452 412 452 402 442 c 1,44,-1
 259 417 l 1,45,-1
 253 432 l 1,38,-1
EndSplineSet
EndChar

StartChar: dagger
Encoding: 8224 8224 138
Width: 432
Flags: HMW
HStem: 76 21G<209 209 209 222> 601 20G
LayerCount: 2
Fore
SplineSet
209 76 m 1,0,-1
 181 414 l 1,1,2
 191 438 191 438 215 443 c 1,3,4
 243 436 243 436 250 414 c 1,5,-1
 222 76 l 1,6,-1
 209 76 l 1,0,-1
236 477 m 1,7,-1
 344 505 l 1,8,9
 369 497 369 497 372 471 c 1,10,11
 368 442 368 442 344 436 c 1,12,-1
 236 464 l 1,13,-1
 236 477 l 1,7,-1
88 505 m 1,14,-1
 196 477 l 1,15,-1
 196 464 l 1,16,-1
 88 436 l 1,17,18
 65 442 65 442 60 471 c 1,19,20
 63 497 63 497 88 505 c 1,14,-1
209 485 m 1,21,-1
 181 592 l 1,22,23
 189 615 189 615 215 621 c 1,24,25
 242 616 242 616 250 592 c 1,26,-1
 222 485 l 1,27,-1
 209 485 l 1,21,-1
EndSplineSet
EndChar

StartChar: daggerdbl
Encoding: 8225 8225 139
Width: 432
Flags: HMW
HStem: -15 21G 601 20G
LayerCount: 2
Fore
SplineSet
250 414 m 1,0,-1
 226 304 l 1,1,-1
 251 192 l 1,2,3
 241 168 241 168 217 163 c 1,4,5
 188 169 188 169 182 192 c 1,6,-1
 206 300 l 1,7,-1
 181 414 l 1,8,9
 191 438 191 438 215 443 c 1,10,11
 243 436 243 436 250 414 c 1,0,-1
236 477 m 1,12,-1
 344 505 l 1,13,14
 369 497 369 497 372 471 c 1,15,16
 368 442 368 442 344 436 c 1,17,-1
 236 464 l 1,18,-1
 236 477 l 1,12,-1
344 101 m 1,19,-1
 236 129 l 1,20,-1
 236 142 l 1,21,-1
 344 170 l 1,22,23
 368 163 368 163 372 135 c 1,24,25
 369 108 369 108 344 101 c 1,19,-1
88 505 m 1,26,-1
 196 477 l 1,27,-1
 196 464 l 1,28,-1
 88 436 l 1,29,30
 65 442 65 442 60 471 c 1,31,32
 63 497 63 497 88 505 c 1,26,-1
196 129 m 1,33,-1
 88 101 l 1,34,35
 63 108 63 108 60 135 c 1,36,37
 64 163 64 163 88 170 c 1,38,-1
 196 142 l 1,39,-1
 196 129 l 1,33,-1
209 485 m 1,40,-1
 181 592 l 1,41,42
 189 615 189 615 215 621 c 1,43,44
 242 616 242 616 250 592 c 1,45,-1
 222 485 l 1,46,-1
 209 485 l 1,40,-1
223 121 m 1,47,-1
 251 14 l 1,48,49
 242 -10 242 -10 217 -15 c 1,50,51
 189 -11 189 -11 182 14 c 1,52,-1
 210 121 l 1,53,-1
 223 121 l 1,47,-1
EndSplineSet
EndChar

StartChar: AE
Encoding: 198 198 140
Width: 761
Flags: HMW
HStem: -27 21G<675 675> 0 68<409 557 409 658> 204 67<191 321 191 321 156 321> 293 68<400 589 400 592> 537 68<409 557 409 409> 614 20G<675 694 694 694>
VStem: 321 83
LayerCount: 2
Fore
SplineSet
664 527 m 1,0,-1
 557 537 l 1,1,-1
 409 537 l 1,2,-1
 400 407 l 1,3,-1
 400 361 l 1,4,-1
 592 361 l 1,5,-1
 600 390 l 1,6,-1
 619 390 l 1,7,-1
 613 253 l 1,8,-1
 594 253 l 1,9,-1
 589 293 l 1,10,-1
 400 293 l 1,11,-1
 400 197 l 1,12,-1
 409 68 l 1,13,-1
 557 68 l 1,14,-1
 672 79 l 1,15,-1
 689 119 l 1,16,-1
 706 115 l 1,17,-1
 675 -27 l 1,18,-1
 657 -26 l 1,19,-1
 658 0 l 1,20,-1
 269 0 l 1,21,-1
 268 19 l 1,22,-1
 309 26 l 1,23,-1
 321 204 l 1,24,-1
 156 204 l 1,25,-1
 129 151 l 1,26,-1
 82 25 l 1,27,-1
 122 21 l 1,28,-1
 121 0 l 1,29,-1
 -49 0 l 1,30,-1
 -50 19 l 1,31,-1
 -17 26 l 1,32,-1
 284 579 l 1,33,-1
 246 586 l 1,34,-1
 247 605 l 1,35,-1
 667 605 l 1,36,-1
 675 634 l 1,37,-1
 694 634 l 1,38,-1
 688 487 l 1,39,-1
 669 487 l 1,40,-1
 664 527 l 1,0,-1
191 271 m 1,41,-1
 321 271 l 1,42,-1
 321 518 l 1,43,-1
 191 271 l 1,41,-1
EndSplineSet
EndChar

StartChar: parenright
Encoding: 41 41 141
Width: 284
Flags: HMW
HStem: -199 21G<37 37> 646 20G<37 37>
VStem: 124 90<151.5 318.5>
LayerCount: 2
Fore
SplineSet
5 -165 m 1,0,1
 61 -110 61 -110 92.5 -4 c 128,-1,2
 124 102 124 102 124 231.5 c 0,3,4
 124 361 124 361 92 469 c 128,-1,5
 60 577 60 577 5 632 c 1,6,-1
 37 666 l 1,7,8
 121 593 121 593 167.5 481 c 128,-1,9
 214 369 214 369 214 238.5 c 0,10,11
 214 108 214 108 167.5 -7 c 128,-1,12
 121 -122 121 -122 37 -199 c 1,13,-1
 5 -165 l 1,0,1
EndSplineSet
EndChar

StartChar: parenleft
Encoding: 40 40 142
Width: 284
Flags: HMW
HStem: -199 21G<247 247> 646 20G<247 247>
VStem: 70 90<151.5 318.5 145.5 325.5>
LayerCount: 2
Fore
SplineSet
279 -165 m 1,0,-1
 247 -199 l 1,1,2
 163 -122 163 -122 116.5 -7 c 128,-1,3
 70 108 70 108 70 238.5 c 0,4,5
 70 369 70 369 116.5 481 c 128,-1,6
 163 593 163 593 247 666 c 1,7,-1
 279 632 l 1,8,9
 224 577 224 577 192 469 c 128,-1,10
 160 361 160 361 160 231.5 c 0,11,12
 160 102 160 102 191.5 -4 c 128,-1,13
 223 -110 223 -110 279 -165 c 1,0,-1
EndSplineSet
EndChar

StartChar: logicalnot
Encoding: 172 172 143
Width: 516
Flags: HMW
HStem: 118 162<366 435 366 366> 221 59<81 435 81 366>
VStem: 366 69<118 221 221 221>
LayerCount: 2
Fore
SplineSet
81 221 m 1,0,-1
 81 280 l 1,1,-1
 435 280 l 1,2,-1
 435 118 l 1,3,-1
 366 118 l 1,4,-1
 366 221 l 1,5,-1
 81 221 l 1,0,-1
EndSplineSet
EndChar

StartChar: mu
Encoding: 181 181 144
Width: 504
Flags: HMW
HStem: -219 21G<67 67> -15 69<214.5 223.5> 389 20G<165 165 431 431>
VStem: 78 77<104.5 133 133 221> 339 86
LayerCount: 2
Fore
SplineSet
463 1 m 1,0,-1
 334 -10 l 1,1,-1
 336 36 l 1,2,3
 270 -15 270 -15 202 -15 c 0,4,5
 168 -15 168 -15 143 5 c 1,6,-1
 164 -209 l 1,7,-1
 67 -219 l 1,8,-1
 78 -21 l 1,9,-1
 78 221 l 1,10,-1
 69 372 l 1,11,-1
 35 379 l 1,12,-1
 36 398 l 1,13,-1
 165 409 l 1,14,-1
 155 221 l 1,15,-1
 155 133 l 2,16,17
 155 93 155 93 177.5 73.5 c 128,-1,18
 200 54 200 54 246 54 c 0,19,20
 292 54 292 54 339 90 c 1,21,-1
 344 178 l 1,22,-1
 344 221 l 1,23,-1
 335 372 l 1,24,-1
 301 379 l 1,25,-1
 302 398 l 1,26,-1
 431 409 l 1,27,-1
 421 221 l 1,28,-1
 421 178 l 1,29,-1
 430 27 l 1,30,-1
 464 20 l 1,31,-1
 463 1 l 1,0,-1
EndSplineSet
EndChar

StartChar: paragraph
Encoding: 182 182 145
Width: 480
Flags: HMW
HStem: 0 21G<147 262 147 147 314 406 314 314> 585 20G<238 418 418 418>
VStem: 30 232<399 503.5> 200 62<26 302 302 302> 314 63<26 407 26 556>
LayerCount: 2
Fore
SplineSet
200 302 m 1,0,1
 109 302 109 302 69.5 337 c 128,-1,2
 30 372 30 372 30 453 c 0,3,4
 30 605 30 605 238 605 c 2,5,-1
 418 605 l 1,6,-1
 419 586 l 1,7,-1
 388 579 l 1,8,-1
 377 407 l 1,9,-1
 377 26 l 1,10,-1
 407 19 l 1,11,-1
 406 0 l 1,12,-1
 314 0 l 1,13,-1
 314 556 l 1,14,-1
 262 556 l 1,15,-1
 262 0 l 1,16,-1
 147 0 l 1,17,-1
 146 19 l 1,18,-1
 200 26 l 1,19,-1
 200 302 l 1,0,1
EndSplineSet
EndChar

StartChar: asciicircum
Encoding: 94 94 146
Width: 561
Flags: HMW
HStem: 278 21G<80 80 80 160 401 401 401 481> 585 20G<252 309 309 309>
LayerCount: 2
Fore
SplineSet
80 278 m 1,0,-1
 252 605 l 1,1,-1
 309 605 l 1,2,-1
 481 278 l 1,3,-1
 401 278 l 1,4,-1
 282 515 l 1,5,-1
 160 278 l 1,6,-1
 80 278 l 1,0,-1
EndSplineSet
EndChar

StartChar: asciitilde
Encoding: 126 126 147
Width: 548
Flags: HMW
HStem: 221 21G<102 102> 228 69<334 373> 263 34 319 20G<446 446>
LayerCount: 2
Fore
SplineSet
185 263 m 0,0,1
 144 263 144 263 102 221 c 1,2,-1
 70 270 l 1,3,4
 117 332 117 332 203 332 c 0,5,6
 226 332 226 332 279.5 314.5 c 128,-1,7
 333 297 333 297 368.5 297 c 0,8,9
 404 297 404 297 446 339 c 1,10,-1
 478 290 l 1,11,12
 426 228 426 228 345 228 c 0,13,14
 317 228 317 228 263 245.5 c 128,-1,15
 209 263 209 263 185 263 c 0,0,1
EndSplineSet
EndChar

StartChar: approxequal
Encoding: 8776 8776 148
Width: 548
Flags: HMW
HStem: 109 21G<102 102> 116 63<334 375 334 377.5> 151 28 151 63<175 211> 284 63<334 375 334 377.5> 319 28 319 63<175 211> 369 20G<450 450>
LayerCount: 2
Fore
SplineSet
450 389 m 1,0,-1
 478 346 l 1,1,2
 425 284 425 284 354 284 c 0,3,4
 319 284 319 284 263.5 301.5 c 128,-1,5
 208 319 208 319 191 319 c 0,6,7
 144 319 144 319 102 277 c 1,8,-1
 74 320 l 1,9,10
 130 382 130 382 194 382 c 0,11,12
 231 382 231 382 283.5 364.5 c 128,-1,13
 336 347 336 347 359 347 c 0,14,15
 408 347 408 347 450 389 c 1,0,-1
450 221 m 1,16,-1
 478 178 l 1,17,18
 425 116 425 116 354 116 c 0,19,20
 319 116 319 116 263.5 133.5 c 128,-1,21
 208 151 208 151 191 151 c 0,22,23
 144 151 144 151 102 109 c 1,24,-1
 74 152 l 1,25,26
 130 214 130 214 194 214 c 0,27,28
 231 214 231 214 283.5 196.5 c 128,-1,29
 336 179 336 179 359 179 c 0,30,31
 408 179 408 179 450 221 c 1,16,-1
EndSplineSet
EndChar

StartChar: braceleft
Encoding: 123 123 149
Width: 306
Flags: HMW
HStem: -198 21G<206 253 253 299> 645 20G<253 299 299 299>
VStem: 146 73<-145 -108.5 575.5 612>
LayerCount: 2
Fore
SplineSet
146 -113 m 1,0,-1
 157 177 l 2,1,2
 157 194 157 194 130 214.5 c 128,-1,3
 103 235 103 235 72 242 c 1,4,-1
 70 267 l 1,5,6
 103 275 103 275 130 295.5 c 128,-1,7
 157 316 157 316 157 334 c 2,8,-1
 146 580 l 1,9,10
 146 636 146 636 164 650.5 c 128,-1,11
 182 665 182 665 253 665 c 2,12,-1
 299 665 l 1,13,-1
 301 640 l 1,14,-1
 219 612 l 1,15,-1
 219 344 l 2,16,17
 219 280 219 280 153 256 c 1,18,-1
 153 252 l 1,19,20
 219 222 219 222 219 163 c 2,21,-1
 219 -145 l 1,22,-1
 301 -173 l 1,23,-1
 299 -198 l 1,24,-1
 253 -198 l 2,25,26
 182 -198 182 -198 164 -183.5 c 128,-1,27
 146 -169 146 -169 146 -113 c 1,0,-1
EndSplineSet
EndChar

StartChar: braceright
Encoding: 125 125 150
Width: 306
Flags: HMW
HStem: -198 21G<7 53 7 7> 645 20G<7 53 53 100>
VStem: 87 62<160.5 163 163 183.5 344 350.5>
LayerCount: 2
Fore
SplineSet
160 580 m 1,0,-1
 149 334 l 2,1,2
 149 316 149 316 176 295.5 c 128,-1,3
 203 275 203 275 236 267 c 1,4,-1
 234 242 l 1,5,6
 203 235 203 235 176 214.5 c 128,-1,7
 149 194 149 194 149 177 c 2,8,-1
 160 -113 l 1,9,10
 160 -169 160 -169 142 -183.5 c 128,-1,11
 124 -198 124 -198 53 -198 c 2,12,-1
 7 -198 l 1,13,-1
 5 -173 l 1,14,-1
 87 -145 l 1,15,-1
 87 163 l 2,16,17
 87 222 87 222 153 252 c 1,18,-1
 153 256 l 1,19,20
 87 280 87 280 87 344 c 2,21,-1
 87 612 l 1,22,-1
 5 640 l 1,23,-1
 7 665 l 1,24,-1
 53 665 l 2,25,26
 124 665 124 665 142 650.5 c 128,-1,27
 160 636 160 636 160 580 c 1,0,-1
EndSplineSet
EndChar

StartChar: bracketright
Encoding: 93 93 151
Width: 230
Flags: HMW
HStem: -198 21G<7 53 7 7> 645 20G<7 53 53 101.5>
VStem: 87 73<-145 -113 -113 580>
LayerCount: 2
Fore
SplineSet
87 -145 m 1,0,-1
 87 612 l 1,1,-1
 5 640 l 1,2,-1
 7 665 l 1,3,-1
 53 665 l 2,4,5
 125 665 125 665 142.5 650.5 c 128,-1,6
 160 636 160 636 160 580 c 2,7,-1
 160 -113 l 2,8,9
 160 -169 160 -169 142.5 -183.5 c 128,-1,10
 125 -198 125 -198 53 -198 c 2,11,-1
 7 -198 l 1,12,-1
 5 -173 l 1,13,-1
 87 -145 l 1,0,-1
EndSplineSet
EndChar

StartChar: bracketleft
Encoding: 91 91 152
Width: 230
Flags: HMW
HStem: -198 21G<128.5 177 177 223> 645 20G<177 223 223 223>
VStem: 70 73<-113 580 580 612 -145 616.5>
LayerCount: 2
Fore
SplineSet
143 612 m 1,0,-1
 143 -145 l 1,1,-1
 225 -173 l 1,2,-1
 223 -198 l 1,3,-1
 177 -198 l 2,4,5
 105 -198 105 -198 87.5 -183.5 c 128,-1,6
 70 -169 70 -169 70 -113 c 2,7,-1
 70 580 l 2,8,9
 70 636 70 636 87.5 650.5 c 128,-1,10
 105 665 105 665 177 665 c 2,11,-1
 223 665 l 1,12,-1
 225 640 l 1,13,-1
 143 612 l 1,0,-1
EndSplineSet
EndChar

StartChar: guilsinglleft
Encoding: 8249 8249 153
Width: 293
Flags: HMW
HStem: -5 21G<203 203> 383 20G
LayerCount: 2
Fore
SplineSet
228 15 m 1,0,-1
 203 -5 l 1,1,-1
 10 186 l 1,2,-1
 13 215 l 1,3,-1
 203 403 l 1,4,-1
 228 383 l 1,5,-1
 109 199 l 1,6,-1
 228 15 l 1,0,-1
EndSplineSet
EndChar

StartChar: guilsinglright
Encoding: 8250 8250 154
Width: 293
Flags: HMW
HStem: -5 21G<70 70> 383 20G
LayerCount: 2
Fore
SplineSet
45 383 m 1,0,-1
 70 403 l 1,1,-1
 263 212 l 1,2,-1
 260 183 l 1,3,-1
 70 -5 l 1,4,-1
 45 15 l 1,5,-1
 164 199 l 1,6,-1
 45 383 l 1,0,-1
EndSplineSet
EndChar

StartChar: guillemotright
Encoding: 187 187 155
Width: 490
Flags: HMW
HStem: -5 21G<70 70 267 267> 383 20G
LayerCount: 2
Fore
SplineSet
45 383 m 1,0,-1
 70 403 l 1,1,-1
 263 212 l 1,2,-1
 260 183 l 1,3,-1
 70 -5 l 1,4,-1
 45 15 l 1,5,-1
 164 199 l 1,6,-1
 45 383 l 1,0,-1
242 383 m 1,7,-1
 267 403 l 1,8,-1
 460 212 l 1,9,-1
 457 183 l 1,10,-1
 267 -5 l 1,11,-1
 242 15 l 1,12,-1
 361 199 l 1,13,-1
 242 383 l 1,7,-1
EndSplineSet
EndChar

StartChar: guillemotleft
Encoding: 171 171 156
Width: 490
Flags: HMW
HStem: -5 21G<203 203 400 400> 383 20G
LayerCount: 2
Fore
SplineSet
425 15 m 1,0,-1
 400 -5 l 1,1,-1
 207 186 l 1,2,-1
 210 215 l 1,3,-1
 400 403 l 1,4,-1
 425 383 l 1,5,-1
 306 199 l 1,6,-1
 425 15 l 1,0,-1
228 15 m 1,7,-1
 203 -5 l 1,8,-1
 10 186 l 1,9,-1
 13 215 l 1,10,-1
 203 403 l 1,11,-1
 228 383 l 1,12,-1
 109 199 l 1,13,-1
 228 15 l 1,7,-1
EndSplineSet
EndChar

StartChar: periodcentered
Encoding: 183 183 157
Width: 274
Flags: HMW
HStem: 149 21G 270 20G
LayerCount: 2
Fore
SplineSet
208 219 m 1,0,1
 192 170 192 170 137 149 c 1,2,3
 87 164 87 164 67 219 c 1,4,5
 87 274 87 274 137 290 c 1,6,7
 193 268 193 268 208 219 c 1,0,1
EndSplineSet
EndChar

StartChar: ogonek
Encoding: 731 731 158
Width: 455
Flags: HMW
HStem: -221 43<226.5 244> -10 20G<230 272 272 272>
VStem: 129 64<-151 -123.5>
LayerCount: 2
Fore
SplineSet
230 10 m 1,0,-1
 272 10 l 1,1,2
 238 -28 238 -28 215.5 -70.5 c 128,-1,3
 193 -113 193 -113 193 -138 c 0,4,5
 193 -178 193 -178 242 -178 c 0,6,7
 275 -178 275 -178 309 -161 c 1,8,-1
 326 -185 l 1,9,10
 285 -221 285 -221 233 -221 c 0,11,12
 181 -221 181 -221 155 -200 c 128,-1,13
 129 -179 129 -179 129 -145 c 0,14,15
 129 -79 129 -79 230 10 c 1,0,-1
EndSplineSet
EndChar

StartChar: degree
Encoding: 176 176 159
Width: 348
Flags: HMW
HStem: 342 47<149.5 198 149.5 212.5> 572 48<149.5 198>
VStem: 35 55<454 507.5 454 519.5> 257 56<454.5 507>
LayerCount: 2
Fore
SplineSet
90 481 m 128,-1,1
 90 441 90 441 113.5 415 c 128,-1,2
 137 389 137 389 173.5 389 c 128,-1,3
 210 389 210 389 233.5 415 c 128,-1,4
 257 441 257 441 257 480.5 c 128,-1,5
 257 520 257 520 233.5 546 c 128,-1,6
 210 572 210 572 173.5 572 c 128,-1,7
 137 572 137 572 113.5 546.5 c 128,-1,0
 90 521 90 521 90 481 c 128,-1,1
75.5 382 m 128,-1,9
 35 422 35 422 35 480.5 c 128,-1,10
 35 539 35 539 75.5 579.5 c 128,-1,11
 116 620 116 620 173.5 620 c 128,-1,12
 231 620 231 620 272 579 c 128,-1,13
 313 538 313 538 313 480.5 c 128,-1,14
 313 423 313 423 272.5 382.5 c 128,-1,15
 232 342 232 342 174 342 c 128,-1,8
 116 342 116 342 75.5 382 c 128,-1,9
EndSplineSet
EndChar

StartChar: bullet
Encoding: 8226 8226 160
Width: 376
Flags: HMW
HStem: 145 21G 321 20G
LayerCount: 2
Fore
SplineSet
286 242 m 1,0,1
 265 172 265 172 187 145 c 1,2,3
 118 167 118 167 90 242 c 1,4,5
 119 319 119 319 187 341 c 1,6,7
 229 325 229 325 252.5 302 c 128,-1,8
 276 279 276 279 286 242 c 1,0,1
EndSplineSet
EndChar

StartChar: registered
Encoding: 174 174 161
Width: 670
Flags: HMW
HStem: 112 47<255.5 414.5 255.5 429.5> 226 173<209 300 209 300> 374 25 536 35<324.5 345> 635 47<255.5 414.5>
VStem: 50 57<314 480 314 491.5> 233 57<338 456 338 457 338 457> 382 65<443 490> 563 57<314 480>
LayerCount: 2
Fore
SplineSet
620 397 m 128,-1,1
 620 112 620 112 335 112 c 128,-1,2
 50 112 50 112 50 397 c 128,-1,3
 50 682 50 682 335 682 c 128,-1,0
 620 682 620 682 620 397 c 128,-1,1
563 397 m 128,-1,5
 563 521 563 521 508.5 578 c 128,-1,6
 454 635 454 635 335 635 c 128,-1,7
 216 635 216 635 161.5 578 c 128,-1,8
 107 521 107 521 107 397 c 128,-1,9
 107 273 107 273 161.5 216 c 128,-1,10
 216 159 216 159 335 159 c 128,-1,11
 454 159 454 159 508.5 216 c 128,-1,4
 563 273 563 273 563 397 c 128,-1,5
209 569 m 1,12,-1
 337 571 l 1,13,14
 447 571 447 571 447 472 c 0,15,16
 447 429 447 429 425 402.5 c 128,-1,17
 403 376 403 376 365 374 c 1,18,-1
 461 251 l 1,19,-1
 479 247 l 1,20,-1
 479 226 l 1,21,-1
 393 223 l 1,22,-1
 300 376 l 1,23,-1
 300 399 l 1,24,25
 346 400 346 400 364 415 c 128,-1,26
 382 430 382 430 382 468 c 0,27,28
 382 536 382 536 327 536 c 0,29,30
 304 536 304 536 295 535 c 1,31,-1
 290 456 l 1,32,-1
 290 338 l 1,33,-1
 298 226 l 1,34,-1
 209 226 l 1,35,-1
 208 247 l 1,36,-1
 226 251 l 1,37,-1
 233 338 l 1,38,-1
 233 457 l 1,39,-1
 226 543 l 1,40,-1
 208 548 l 1,41,-1
 209 569 l 1,12,-1
EndSplineSet
EndChar

StartChar: copyright
Encoding: 169 169 162
Width: 670
Flags: HMW
HStem: 112 47<257 413 257 429.5> 226 43<312.5 349.5> 533 45<310 349> 635 47<257 413>
VStem: 50 57<397 397> 177 72<360.5 444 360.5 453.5> 563 57<397 397>
LayerCount: 2
Fore
SplineSet
620 397 m 128,-1,1
 620 112 620 112 335 112 c 128,-1,2
 50 112 50 112 50 397 c 128,-1,3
 50 682 50 682 335 682 c 128,-1,0
 620 682 620 682 620 397 c 128,-1,1
563 397 m 1,4,5
 558 525 558 525 505 580 c 128,-1,6
 452 635 452 635 335 635 c 128,-1,7
 218 635 218 635 164.5 579.5 c 128,-1,8
 111 524 111 524 107 397 c 1,9,10
 111 270 111 270 164.5 214.5 c 128,-1,11
 218 159 218 159 335 159 c 128,-1,12
 452 159 452 159 505 214 c 128,-1,13
 558 269 558 269 563 397 c 1,4,5
272.5 499 m 128,-1,15
 249 465 249 465 249 402.5 c 128,-1,16
 249 340 249 340 273.5 304.5 c 128,-1,17
 298 269 298 269 337.5 269 c 128,-1,18
 377 269 377 269 419 294 c 1,19,-1
 430 321 l 1,20,-1
 450 319 l 1,21,-1
 430 225 l 1,22,-1
 408 225 l 1,23,-1
 409 237 l 1,24,25
 382 226 382 226 333 226 c 0,26,27
 259 226 259 226 218 271 c 128,-1,28
 177 316 177 316 177 398.5 c 128,-1,29
 177 481 177 481 221.5 529.5 c 128,-1,30
 266 578 266 578 343 578 c 0,31,32
 376 578 376 578 413 564 c 1,33,-1
 417 576 l 1,34,-1
 438 576 l 1,35,-1
 434 484 l 1,36,-1
 413 484 l 1,37,-1
 409 511 l 1,38,39
 369 533 369 533 332.5 533 c 128,-1,14
 296 533 296 533 272.5 499 c 128,-1,15
EndSplineSet
EndChar

StartChar: trademark
Encoding: 8482 8482 163
Width: 756
Flags: HMW
HStem: 256 21G<81 203 81 82> 551 54 600 20G<8 29 29 29 255 276 276 276>
VStem: 6 165 114 57<371 476 370 477 370 477> 336 45 613 58
LayerCount: 2
Fore
SplineSet
302 278 m 1,0,-1
 321 281 l 1,1,-1
 333 376 l 1,2,-1
 339 488 l 1,3,-1
 335 580 l 1,4,-1
 317 584 l 1,5,-1
 318 605 l 1,6,-1
 396 605 l 1,7,-1
 409 567 l 1,8,-1
 507 380 l 1,9,-1
 592 567 l 1,10,-1
 604 605 l 1,11,-1
 690 605 l 1,12,-1
 691 584 l 1,13,-1
 672 580 l 1,14,-1
 668 488 l 1,15,-1
 675 376 l 1,16,-1
 687 281 l 1,17,-1
 706 278 l 1,18,-1
 705 256 l 1,19,-1
 587 256 l 1,20,-1
 587 279 l 1,21,-1
 613 281 l 1,22,-1
 617 376 l 1,23,-1
 609 485 l 1,24,-1
 522 298 l 1,25,-1
 490 296 l 1,26,-1
 384 490 l 1,27,-1
 379 376 l 1,28,-1
 383 281 l 1,29,-1
 410 279 l 1,30,-1
 409 256 l 1,31,-1
 302 256 l 1,32,-1
 302 278 l 1,0,-1
32 603 m 1,33,-1
 96 599 l 1,34,-1
 189 599 l 1,35,-1
 252 603 l 1,36,-1
 255 620 l 1,37,-1
 276 620 l 1,38,-1
 279 528 l 1,39,-1
 258 528 l 1,40,-1
 253 550 l 1,41,-1
 176 553 l 1,42,-1
 171 476 l 1,43,-1
 171 370 l 1,44,-1
 177 281 l 1,45,-1
 204 277 l 1,46,-1
 203 256 l 1,47,-1
 82 256 l 1,48,-1
 81 277 l 1,49,-1
 107 281 l 1,50,-1
 114 371 l 1,51,-1
 114 477 l 1,52,-1
 109 553 l 1,53,-1
 31 550 l 1,54,-1
 26 528 l 1,55,-1
 5 528 l 1,56,-1
 8 620 l 1,57,-1
 29 620 l 1,58,-1
 32 603 l 1,33,-1
EndSplineSet
EndChar

StartChar: germandbls
Encoding: 223 223 164
Width: 547
Flags: HMW
HStem: -22 21G<233 233> -15 56<338.5 374 338.5 385> 0 21G<50 165 50 50> 567 53<219 267>
VStem: 88 77<175 402 402 414 0 469> 257 71<320 352> 317 80<473 523.5> 426 76<84 146.5>
LayerCount: 2
Fore
SplineSet
248 -2 m 1,0,-1
 233 -22 l 1,1,-1
 218 -17 l 1,2,-1
 264 119 l 1,3,-1
 280 116 l 1,4,-1
 276 72 l 1,5,6
 315 41 315 41 349 41 c 0,7,8
 426 41 426 41 426 103 c 0,9,10
 426 132 426 132 399.5 158.5 c 128,-1,11
 373 185 373 185 341.5 204 c 128,-1,12
 310 223 310 223 283.5 255 c 128,-1,13
 257 287 257 287 257 318 c 0,14,15
 257 349 257 349 287 406 c 128,-1,16
 317 463 317 463 317 497.5 c 0,17,18
 317 532 317 532 297 549.5 c 128,-1,19
 277 567 277 567 247 567 c 0,20,21
 165 567 165 567 165 414 c 2,22,-1
 165 0 l 1,23,-1
 50 0 l 1,24,-1
 49 19 l 1,25,-1
 79 26 l 1,26,-1
 88 175 l 1,27,-1
 88 402 l 2,28,29
 88 502 88 502 137 561 c 128,-1,30
 186 620 186 620 269 620 c 0,31,32
 328 620 328 620 362.5 590 c 128,-1,33
 397 560 397 560 397 509 c 0,34,35
 397 478 397 478 379.5 446 c 128,-1,36
 362 414 362 414 345 389.5 c 128,-1,37
 328 365 328 365 328 350 c 0,38,39
 328 335 328 335 346 318 c 128,-1,40
 364 301 364 301 389.5 285 c 128,-1,41
 415 269 415 269 440.5 249 c 128,-1,42
 466 229 466 229 484 196.5 c 128,-1,43
 502 164 502 164 502 123 c 0,44,45
 502 65 502 65 455 25 c 128,-1,46
 408 -15 408 -15 347.5 -15 c 0,47,48
 287 -15 287 -15 248 -2 c 1,0,-1
EndSplineSet
EndChar

StartChar: infinity
Encoding: 8734 8734 165
Width: 771
Flags: HMW
HStem: 70 75<189.5 237.5> 348 75<538 586.5> 402 20G<176.5 258>
VStem: 61 59<219.5 277.5 219.5 296.5> 655 59<216 273.5>
LayerCount: 2
Fore
SplineSet
669 121 m 128,-1,1
 624 72 624 72 561 72 c 128,-1,2
 498 72 498 72 457.5 98 c 128,-1,3
 417 124 417 124 377 185 c 1,4,5
 293 70 293 70 209 70 c 0,6,7
 145 70 145 70 103 120.5 c 128,-1,8
 61 171 61 171 61 246 c 128,-1,9
 61 321 61 321 107.5 371.5 c 128,-1,10
 154 422 154 422 215 422 c 128,-1,11
 276 422 276 422 316.5 395.5 c 128,-1,12
 357 369 357 369 397 308 c 1,13,14
 480 423 480 423 568 423 c 0,15,16
 631 423 631 423 672.5 372.5 c 128,-1,17
 714 322 714 322 714 246 c 128,-1,0
 714 170 714 170 669 121 c 128,-1,1
218 145 m 0,18,19
 279 145 279 145 347 236 c 1,20,21
 278 348 278 348 214 348 c 0,22,23
 174 348 174 348 147 319.5 c 128,-1,24
 120 291 120 291 120 247.5 c 128,-1,25
 120 204 120 204 147.5 174.5 c 128,-1,26
 175 145 175 145 218 145 c 0,18,19
627.5 318.5 m 128,-1,28
 600 348 600 348 562.5 348 c 128,-1,29
 525 348 525 348 494.5 327 c 128,-1,30
 464 306 464 306 428 256 c 1,31,32
 496 145 496 145 558 145 c 0,33,34
 598 145 598 145 626.5 173.5 c 128,-1,35
 655 202 655 202 655 245.5 c 128,-1,27
 655 289 655 289 627.5 318.5 c 128,-1,28
EndSplineSet
EndChar

StartChar: lozenge
Encoding: 9674 9674 166
Width: 479
Flags: HMW
HStem: -74 21G<218 267 218 218> 604 20G<218 267 267 267>
LayerCount: 2
Fore
SplineSet
459 275 m 1,0,-1
 267 -74 l 1,1,-1
 218 -74 l 1,2,-1
 20 275 l 1,3,-1
 218 624 l 1,4,-1
 267 624 l 1,5,-1
 459 275 l 1,0,-1
372 275 m 1,6,-1
 236 533 l 1,7,-1
 91 275 l 1,8,-1
 237 18 l 1,9,-1
 372 275 l 1,6,-1
EndSplineSet
EndChar

StartChar: Delta
Encoding: 8710 8710 167
Width: 530
Flags: HMW
HStem: 0 65<107 404 107 520> 601 20G<304 304>
LayerCount: 2
Fore
SplineSet
520 0 m 1,0,-1
 10 0 l 1,1,-1
 222 618 l 1,2,-1
 304 621 l 1,3,-1
 520 0 l 1,0,-1
107 65 m 1,4,-1
 404 65 l 1,5,-1
 253 531 l 1,6,-1
 107 65 l 1,4,-1
EndSplineSet
EndChar

StartChar: summation
Encoding: 8721 8721 168
Width: 524
Flags: HMW
HStem: -83 21G<508 508> -74 78 -2 21G<118 263 263 263> 553 67 608 20G<499 499>
LayerCount: 2
Fore
SplineSet
22 -74 m 1,0,-1
 10 -50 l 1,1,-1
 246 285 l 1,2,-1
 22 596 l 1,3,-1
 34 620 l 1,4,-1
 348 620 l 1,5,-1
 499 628 l 1,6,-1
 503 506 l 1,7,-1
 481 506 l 1,8,-1
 472 548 l 1,9,-1
 308 558 l 1,10,-1
 156 558 l 1,11,-1
 343 303 l 1,12,-1
 118 -2 l 1,13,-1
 263 -2 l 1,14,-1
 482 10 l 1,15,-1
 491 54 l 1,16,-1
 513 54 l 1,17,-1
 508 -83 l 1,18,-1
 358 -74 l 1,19,-1
 22 -74 l 1,0,-1
EndSplineSet
EndChar

StartChar: Euro
Encoding: 8364 8364 169
Width: 528
Flags: HMW
HStem: -24 21G<431 451 431 431> -15 58<286.5 336.5> 185 36<40 85 40 88 40 85 186 380 186 186> 273 36<40 86 40 91 185 390> 454 53<285 340.5> 494 20G<459 478 478 478>
LayerCount: 2
Fore
SplineSet
181 250 m 2,0,1
 181 228 181 228 182 221 c 1,2,-1
 380 221 l 1,3,-1
 380 185 l 1,4,-1
 186 185 l 1,5,6
 197 118 197 118 233 80.5 c 128,-1,7
 269 43 269 43 325 43 c 0,8,9
 381 43 381 43 449 85 c 1,10,-1
 466 125 l 1,11,-1
 483 121 l 1,12,-1
 451 -24 l 1,13,-1
 431 -24 l 1,14,-1
 432 1 l 1,15,16
 378 -15 378 -15 316 -15 c 0,17,18
 220 -15 220 -15 161 37 c 128,-1,19
 102 89 102 89 88 185 c 1,20,-1
 40 185 l 1,21,-1
 40 221 l 1,22,-1
 85 221 l 1,23,-1
 85 238 l 2,24,25
 85 264 85 264 86 273 c 1,26,-1
 40 273 l 1,27,-1
 40 309 l 1,28,-1
 91 309 l 1,29,30
 108 402 108 402 173 454.5 c 128,-1,31
 238 507 238 507 335 507 c 0,32,33
 386 507 386 507 452 489 c 1,34,-1
 459 514 l 1,35,-1
 478 514 l 1,36,-1
 472 377 l 1,37,-1
 453 377 l 1,38,-1
 446 420 l 1,39,40
 377 454 377 454 323 454 c 0,41,42
 207 454 207 454 185 309 c 1,43,-1
 390 309 l 1,44,-1
 390 273 l 1,45,-1
 181 273 l 1,46,-1
 181 250 l 2,0,1
EndSplineSet
EndChar

StartChar: section
Encoding: 167 167 170
Width: 436
Flags: HMW
HStem: -113 21G<63 79 63 63> -99 55<197.5 230> 600 55<197.5 228.5> 649 20G<337 353 353 353>
VStem: 67 60 67 74<482 543.5> 295 75<5.5 68.5 5.5 76.5> 312 58
LayerCount: 2
Fore
SplineSet
88 -89 m 1,0,-1
 79 -113 l 1,1,-1
 63 -113 l 1,2,-1
 73 21 l 1,3,-1
 90 20 l 1,4,-1
 93 -17 l 1,5,6
 162 -44 162 -44 212 -44 c 0,7,8
 295 -44 295 -44 295 21 c 0,9,10
 295 74.5942028986 295 74.5942028986 211.5 123 c 0,11,12
 177 143 177 143 142.5 164 c 128,-1,13
 108 185 108 185 83.5 215 c 128,-1,14
 59 245 59 245 59 279.5 c 128,-1,15
 59 314 59 314 73.5 348.5 c 128,-1,16
 88 383 88 383 113 407 c 1,17,18
 67 453 67 453 67 499 c 0,19,20
 67 566 67 566 119 610.5 c 128,-1,21
 171 655 171 655 250 655 c 0,22,23
 292 655 292 655 328 646 c 1,24,-1
 337 669 l 1,25,-1
 353 669 l 1,26,-1
 343 535 l 1,27,-1
 326 536 l 1,28,-1
 323 573 l 1,29,30
 259 600 259 600 216 600 c 0,31,32
 141 600 141 600 141 535 c 0,33,34
 141 483.7 141 483.7 225 434.5 c 0,35,36
 260 414 260 414 294.5 392.5 c 128,-1,37
 329 371 329 371 353.5 339 c 128,-1,38
 378 307 378 307 378 269 c 0,39,40
 378 199 378 199 318 147 c 1,41,42
 349 120 349 120 359.5 99.5 c 128,-1,43
 370 79 370 79 370 48 c 0,44,45
 370 -16 370 -16 314 -57.5 c 128,-1,46
 258 -99 258 -99 173 -99 c 0,47,48
 124 -99 124 -99 88 -89 c 1,0,-1
293 168 m 1,49,50
 312 199 312 199 312 235.5 c 128,-1,51
 312 272 312 272 277 304 c 1,52,53
 260 318 260 318 140 387 c 1,54,55
 127 354 127 354 127 321.5 c 128,-1,56
 127 289 127 289 161 256.5 c 128,-1,57
 195 224 195 224 293 168 c 1,49,50
EndSplineSet
EndChar

StartChar: integral
Encoding: 8747 8747 171
Width: 329
Flags: HMW
HStem: -128 21G<73 73> 661 20G<256 269>
VStem: 127 75<143 410>
LayerCount: 2
Fore
SplineSet
202 410 m 2,0,-1
 202 94 l 2,1,2
 202 15 202 15 194.5 -19.5 c 128,-1,3
 187 -54 187 -54 170.5 -68.5 c 0,4,5
 139.964083176 -95.3345935728 139.964083176 -95.3345935728 73 -128 c 1,6,-1
 60 -108 l 1,7,-1
 122 -44 l 1,8,9
 127 94 127 94 127 143 c 2,10,-1
 127 459 l 2,11,12
 127 537 127 537 134.5 571.5 c 128,-1,13
 142 606 142 606 158.5 620.5 c 0,14,15
 191.593572779 649.582230624 191.593572779 649.582230624 256 681 c 1,16,-1
 269 661 l 1,17,-1
 207 597 l 1,18,19
 202 492 202 492 202 410 c 2,0,-1
EndSplineSet
EndChar

StartChar: radical
Encoding: 8730 8730 172
Width: 527
Flags: HMW
HStem: -126 21G<219 311 219 219> 636 20G<447 627 627 627>
LayerCount: 2
Fore
SplineSet
500 601 m 1,0,-1
 311 -126 l 1,1,-1
 219 -126 l 1,2,-1
 50 306 l 1,3,-1
 129 306 l 1,4,-1
 266 -42 l 1,5,-1
 447 656 l 1,6,-1
 627 656 l 1,7,-1
 625 612 l 1,8,-1
 500 601 l 1,0,-1
EndSplineSet
EndChar

StartChar: pi
Encoding: 960 960 173
Width: 513
Flags: HMW
HStem: -11 21G<299 299> 0 21G<88 220 88 88> 343 54 386 20G<98 115> 415 20G<480 480>
VStem: 126 61 304 86
LayerCount: 2
Fore
SplineSet
220 0 m 1,0,-1
 88 0 l 1,1,-1
 87 19 l 1,2,-1
 117 26 l 1,3,-1
 126 177 l 1,4,-1
 126 344 l 1,5,-1
 82 344 l 1,6,-1
 48 312 l 1,7,-1
 30 325 l 1,8,9
 55 366 55 366 73.5 386 c 128,-1,10
 92 406 92 406 115 406 c 0,11,12
 117 406 117 406 376 397 c 1,13,-1
 455 411 l 1,14,-1
 480 435 l 1,15,-1
 498 422 l 1,16,17
 457.5 354.5 457.5 354.5 440.5 345.5 c 0,18,19
 432 341 432 341 421 341 c 2,20,-1
 393 341 l 1,21,-1
 386 221 l 1,22,-1
 386 175 l 1,23,-1
 395 24 l 1,24,-1
 429 17 l 1,25,-1
 428 -2 l 1,26,-1
 299 -11 l 1,27,-1
 309 174 l 1,28,-1
 309 341 l 1,29,30
 233 343 233 343 190 343 c 1,31,-1
 183 221 l 1,32,-1
 183 177 l 1,33,-1
 191 26 l 1,34,-1
 221 19 l 1,35,-1
 220 0 l 1,0,-1
EndSplineSet
EndChar

StartChar: product
Encoding: 8719 8719 174
Width: 732
Flags: HMW
HStem: -74 21G<121 292 121 121 440 611 440 440> 554 66 608 20G<40 40 692 692>
VStem: 37 204 162 79<124 391 123 392 123 392> 491 79<124 391>
LayerCount: 2
Fore
SplineSet
570 123 m 1,0,-1
 582 -48 l 1,1,-1
 612 -55 l 1,2,-1
 611 -74 l 1,3,-1
 440 -74 l 1,4,-1
 439 -55 l 1,5,-1
 479 -48 l 1,6,-1
 491 124 l 1,7,-1
 491 392 l 1,8,-1
 479 558 l 1,9,-1
 252 558 l 1,10,-1
 241 391 l 1,11,-1
 241 123 l 1,12,-1
 253 -48 l 1,13,-1
 293 -55 l 1,14,-1
 292 -74 l 1,15,-1
 121 -74 l 1,16,-1
 120 -55 l 1,17,-1
 150 -48 l 1,18,-1
 162 124 l 1,19,-1
 162 392 l 1,20,-1
 151 556 l 1,21,-1
 35 552 l 1,22,-1
 40 628 l 1,23,-1
 184 620 l 1,24,-1
 548 620 l 1,25,-1
 692 628 l 1,26,-1
 697 552 l 1,27,-1
 581 556 l 1,28,-1
 570 391 l 1,29,-1
 570 123 l 1,0,-1
EndSplineSet
EndChar

StartChar: partialdiff
Encoding: 8706 8706 175
Width: 457
Flags: HMW
HStem: -15 58<176 241> 328 50<182 232> 539 80<122.5 198.5>
VStem: 25 80<143.5 224> 338 79
LayerCount: 2
Fore
SplineSet
64 615 m 1,0,1
 84 619 84 619 127 619 c 0,2,3
 262 619 262 619 339.5 535 c 128,-1,4
 417 451 417 451 417 310.5 c 128,-1,5
 417 170 417 170 346 77.5 c 128,-1,6
 275 -15 275 -15 172 -15 c 0,7,8
 104 -15 104 -15 64.5 32 c 128,-1,9
 25 79 25 79 25 158 c 0,10,11
 25 257 25 257 83.5 317.5 c 128,-1,12
 142 378 142 378 238 378 c 0,13,14
 284 378 284 378 335 359 c 1,15,16
 325 455 325 455 277.5 497 c 128,-1,17
 230 539 230 539 139 539 c 0,18,19
 94 539 94 539 56 533 c 1,20,-1
 64 615 l 1,0,1
338 287 m 1,21,22
 269 328 269 328 217.5 328 c 128,-1,23
 166 328 166 328 135.5 288 c 128,-1,24
 105 248 105 248 105 185.5 c 128,-1,25
 105 123 105 123 133.5 83 c 128,-1,26
 162 43 162 43 205 43 c 0,27,28
 262 43 262 43 296.5 105 c 128,-1,29
 331 167 331 167 338 287 c 1,21,22
EndSplineSet
EndChar

StartChar: Omega
Encoding: 8486 8486 176
Width: 722
Flags: HMW
HStem: 0 72 554 66<297.5 424.5>
VStem: 63 96<306.5 391 256 438> 563 96<306.5 391>
LayerCount: 2
Fore
SplineSet
361 620 m 128,-1,1
 497 620 497 620 578 549 c 128,-1,2
 659 478 659 478 659 358 c 0,3,4
 659 281 659 281 619.5 203 c 128,-1,5
 580 125 580 125 512 69 c 1,6,-1
 606 75 l 1,7,-1
 672 89 l 1,8,-1
 689 128 l 1,9,-1
 707 124 l 1,10,-1
 681 0 l 1,11,-1
 404 0 l 1,12,-1
 393 37 l 1,13,14
 464 63 464 63 513.5 144.5 c 128,-1,15
 563 226 563 226 563 327 c 0,16,17
 563 428 563 428 509.5 491 c 128,-1,18
 456 554 456 554 361 554 c 128,-1,19
 266 554 266 554 212.5 491 c 128,-1,20
 159 428 159 428 159 327 c 0,21,22
 159 226 159 226 208.5 144.5 c 128,-1,23
 258 63 258 63 329 37 c 1,24,-1
 318 0 l 1,25,-1
 41 0 l 1,26,-1
 15 124 l 1,27,-1
 33 128 l 1,28,-1
 49 89 l 1,29,-1
 116 75 l 1,30,-1
 210 69 l 1,31,32
 142 125 142 125 102.5 203 c 128,-1,33
 63 281 63 281 63 358 c 0,34,35
 63 478 63 478 144 549 c 128,-1,0
 225 620 225 620 361 620 c 128,-1,1
EndSplineSet
EndChar

StartChar: eth
Encoding: 240 240 177
Width: 470
Flags: HMW
HStem: -15 56<202.5 279 202.5 294> 364 49<202 244 173 252.5> 617 20G<350 350>
VStem: 40 86<153.5 257> 352 78<164.5 244.5>
LayerCount: 2
Fore
SplineSet
377.5 49.5 m 128,-1,1
 325 -15 325 -15 233 -15 c 128,-1,2
 141 -15 141 -15 90.5 39.5 c 128,-1,3
 40 94 40 94 40 192 c 128,-1,4
 40 290 40 290 92.5 351.5 c 128,-1,5
 145 413 145 413 229 413 c 0,6,7
 276 413 276 413 324 394 c 1,8,9
 293 477 293 477 248 511 c 1,10,-1
 157 455 l 1,11,-1
 136 493 l 1,12,-1
 204 543 l 1,13,14
 168 563 168 563 105 583 c 1,15,-1
 118 626 l 1,16,17
 191 613 191 613 256 580 c 1,18,-1
 350 637 l 1,19,-1
 371 599 l 1,20,-1
 303 551 l 1,21,22
 362 498 362 498 396 411.5 c 128,-1,23
 430 325 430 325 430 219.5 c 128,-1,0
 430 114 430 114 377.5 49.5 c 128,-1,1
340 335 m 1,24,25
 282 364 282 364 233 364 c 128,-1,26
 184 364 184 364 155 324.5 c 128,-1,27
 126 285 126 285 126 204.5 c 0,28,29
 126 41 126 41 242 41 c 0,30,31
 352 41 352 41 352 227 c 0,32,33
 352 281 352 281 340 335 c 1,24,25
EndSplineSet
EndChar

StartChar: exclam
Encoding: 33 33 179
Width: 281
Flags: HMW
HStem: -16 21G 600 20G
LayerCount: 2
Fore
SplineSet
192 577 m 1,0,-1
 158 172 l 1,1,-1
 127 169 l 1,2,-1
 90 577 l 1,3,4
 104 611 104 611 139 620 c 1,5,6
 182 609 182 609 192 577 c 1,0,-1
211 54 m 1,7,8
 196 5 196 5 140 -16 c 1,9,10
 91 0 91 0 70 54 c 1,11,12
 90 109 90 109 140 125 c 1,13,14
 196 104 196 104 211 54 c 1,7,8
EndSplineSet
EndChar

StartChar: quotedbl
Encoding: 34 34 180
Width: 309
Flags: HMW
HStem: 371 21G<76 76 217 217> 627 20G
LayerCount: 2
Fore
SplineSet
138 606 m 1,0,-1
 76 371 l 1,1,-1
 44 375 l 1,2,3
 40 604 40 604 40 606 c 0,4,5
 56 638 56 638 97 647 c 1,6,7
 130 635 130 635 138 606 c 1,0,-1
279 606 m 1,8,-1
 217 371 l 1,9,-1
 185 375 l 1,10,11
 181 604 181 604 181 606 c 0,12,13
 197 638 197 638 238 647 c 1,14,15
 271 635 271 635 279 606 c 1,8,-1
EndSplineSet
EndChar

StartChar: numbersign
Encoding: 35 35 181
Width: 516
Flags: HMW
HStem: 0 190<91 129 34 158 91 91 263 301 34 330 263 263> 121 69<34 115 19 129 196 287 34 182 368 449> 291 69<68 149 54 162 229 321 68 216 401 484> 291 206<54 258 54 258 216 258 191 321 216 216 388 388 388 430 191 484>
LayerCount: 2
Fore
SplineSet
330 0 m 1,0,-1
 263 0 l 1,1,-1
 287 121 l 1,2,-1
 182 121 l 1,3,-1
 158 0 l 1,4,-1
 91 0 l 1,5,-1
 115 121 l 1,6,-1
 19 121 l 1,7,-1
 34 190 l 1,8,-1
 129 190 l 1,9,-1
 149 291 l 1,10,-1
 54 291 l 1,11,-1
 68 360 l 1,12,-1
 162 360 l 1,13,-1
 191 497 l 1,14,-1
 258 497 l 1,15,-1
 229 360 l 1,16,-1
 334 360 l 1,17,-1
 363 497 l 1,18,-1
 430 497 l 1,19,-1
 401 360 l 1,20,-1
 498 360 l 1,21,-1
 484 291 l 1,22,-1
 388 291 l 1,23,-1
 368 190 l 1,24,-1
 464 190 l 1,25,-1
 449 121 l 1,26,-1
 354 121 l 1,27,-1
 330 0 l 1,0,-1
216 291 m 1,28,-1
 196 190 l 1,29,-1
 301 190 l 1,30,-1
 321 291 l 1,31,-1
 216 291 l 1,28,-1
EndSplineSet
EndChar

StartChar: dollar
Encoding: 36 36 182
Width: 455
Flags: HMW
HStem: -99 21G<184 223 184 184> 568 20G<241 280 280 280>
VStem: 59 78<377.5 406> 223 38 332 73<99 130>
LayerCount: 2
Fore
SplineSet
354 493 m 1,0,-1
 363 516 l 1,1,-1
 379 516 l 1,2,-1
 373 371 l 1,3,-1
 356 372 l 1,4,-1
 351 410 l 1,5,6
 305 438 305 438 268 448 c 1,7,-1
 255 286 l 1,8,9
 340 249 340 249 372.5 217.5 c 128,-1,10
 405 186 405 186 405 132.5 c 128,-1,11
 405 79 405 79 356.5 37 c 128,-1,12
 308 -5 308 -5 230 -13 c 1,13,-1
 223 -99 l 1,14,-1
 184 -99 l 1,15,-1
 190 -15 l 1,16,17
 125 -12 125 -12 75 6 c 1,18,-1
 60 -13 l 1,19,-1
 45 -8 l 1,20,-1
 91 131 l 1,21,-1
 107 128 l 1,22,-1
 103 87 l 1,23,24
 148 56 148 56 195 47 c 1,25,-1
 210 219 l 1,26,27
 127 254 127 254 93 288 c 128,-1,28
 59 322 59 322 59 373.5 c 128,-1,29
 59 425 59 425 106.5 461.5 c 128,-1,30
 154 498 154 498 234 505 c 1,31,-1
 241 588 l 1,32,-1
 280 588 l 1,33,-1
 273 507 l 1,34,35
 297 504 297 504 354 493 c 1,0,-1
305 62.5 m 128,-1,37
 332 82 332 82 332 110.5 c 128,-1,38
 332 139 332 139 312.5 159.5 c 128,-1,39
 293 180 293 180 248 202 c 1,40,-1
 235 43 l 1,41,36
 278 43 278 43 305 62.5 c 128,-1,37
137 397 m 0,42,43
 137 341 137 341 217 303 c 1,44,-1
 229 454 l 1,45,46
 185 454 185 454 161 439 c 128,-1,47
 137 424 137 424 137 397 c 0,42,43
EndSplineSet
EndChar

StartChar: percent
Encoding: 37 37 183
Width: 848
Flags: HMW
HStem: -26 21G<309 309> -15 52<617.5 662.5 617.5 682.5> 216 52<182.5 227.5 182.5 247.5> 264 52<620 665> 495 52<185 230> 538 20G<539 539>
VStem: 67 70<343.5 416.5 343.5 430.5> 276 70<345.5 419> 502 70<112.5 185.5 112.5 199.5> 711 70<114.5 188>
LayerCount: 2
Fore
SplineSet
104 260.5 m 128,-1,1
 67 305 67 305 67 381 c 128,-1,2
 67 457 67 457 105 502 c 128,-1,3
 143 547 143 547 207 547 c 128,-1,4
 271 547 271 547 308.5 502.5 c 128,-1,5
 346 458 346 458 346 382 c 128,-1,6
 346 306 346 306 308 261 c 128,-1,7
 270 216 270 216 205.5 216 c 128,-1,0
 141 216 141 216 104 260.5 c 128,-1,1
539 29.5 m 128,-1,9
 502 74 502 74 502 150 c 128,-1,10
 502 226 502 226 540 271 c 128,-1,11
 578 316 578 316 642 316 c 128,-1,12
 706 316 706 316 743.5 271.5 c 128,-1,13
 781 227 781 227 781 151 c 128,-1,14
 781 75 781 75 743 30 c 128,-1,15
 705 -15 705 -15 640.5 -15 c 128,-1,8
 576 -15 576 -15 539 29.5 c 128,-1,9
309 -26 m 1,16,-1
 249 -2 l 1,17,-1
 539 558 l 1,18,-1
 599 534 l 1,19,-1
 309 -26 l 1,16,-1
572 148 m 0,20,21
 572 95 572 95 589.5 66 c 128,-1,22
 607 37 607 37 639 37 c 0,23,24
 711 37 711 37 711 150.5 c 128,-1,25
 711 264 711 264 643 264 c 0,26,27
 572 264 572 264 572 148 c 0,20,21
137 379 m 0,28,29
 137 326 137 326 154.5 297 c 128,-1,30
 172 268 172 268 204 268 c 0,31,32
 276 268 276 268 276 381.5 c 128,-1,33
 276 495 276 495 208 495 c 0,34,35
 137 495 137 495 137 379 c 0,28,29
EndSplineSet
EndChar

StartChar: exclamdown
Encoding: 161 161 184
Width: 281
Flags: HMW
HStem: -222 21G 394 20G
LayerCount: 2
Fore
SplineSet
89 -179 m 1,0,-1
 123 226 l 1,1,-1
 154 229 l 1,2,-1
 191 -179 l 1,3,4
 177 -213 177 -213 142 -222 c 1,5,6
 99 -210 99 -210 89 -179 c 1,0,-1
70 344 m 1,7,8
 84 391 84 391 141 414 c 1,9,10
 190 398 190 398 211 344 c 1,11,12
 189 287 189 287 141 273 c 1,13,14
 84 294 84 294 70 344 c 1,7,8
EndSplineSet
EndChar

StartChar: scaron
Encoding: 353 353 186
Width: 379
Flags: HMW
HStem: -21 21G<45 45> -15 56<164 205.5 164 213.5> 360 54<160 198.5> 603 20G<81 81 306 306>
VStem: 39 74<277 329.5 277 334> 262 77<80 139.5>
LayerCount: 2
Fore
SplineSet
61 -1 m 1,0,-1
 45 -21 l 1,1,-1
 30 -16 l 1,2,-1
 71 107 l 1,3,-1
 87 104 l 1,4,-1
 83 63 l 1,5,6
 134 41 134 41 176 41 c 0,7,8
 218 41 218 41 240 56 c 128,-1,9
 262 71 262 71 262 96 c 0,10,11
 262 121 262 121 239 137.5 c 128,-1,12
 216 154 216 154 183 166.5 c 128,-1,13
 150 179 150 179 117.5 194 c 128,-1,14
 85 209 85 209 62 236 c 128,-1,15
 39 263 39 263 39 306.5 c 0,16,17
 39 350 39 350 87 382 c 128,-1,18
 135 414 135 414 209 414 c 0,19,20
 252 414 252 414 296 403 c 1,21,-1
 305 426 l 1,22,-1
 321 426 l 1,23,-1
 315 292 l 1,24,-1
 298 293 l 1,25,-1
 293 330 l 1,26,27
 224 360 224 360 182 360 c 0,28,29
 113 360 113 360 113 314 c 0,30,31
 113 294 113 294 136.5 279 c 128,-1,32
 160 264 160 264 193 252 c 128,-1,33
 226 240 226 240 259 225 c 128,-1,34
 292 210 292 210 315.5 182 c 128,-1,35
 339 154 339 154 339 115 c 0,36,37
 339 56 339 56 290 20.5 c 128,-1,38
 241 -15 241 -15 160 -15 c 0,39,40
 115 -15 115 -15 61 -1 c 1,0,-1
65 608 m 1,41,-1
 81 623 l 1,42,-1
 193 567 l 1,43,-1
 306 623 l 1,44,-1
 322 608 l 1,45,-1
 200 481 l 1,46,-1
 186 481 l 1,47,-1
 65 608 l 1,41,-1
EndSplineSet
EndChar

StartChar: yacute
Encoding: 253 253 187
Width: 398
Flags: HMW
HStem: -221 21G<15 143 15 15> 379 20G<-14 163 163 163 254 412 412 412> 595 20G
LayerCount: 2
Fore
SplineSet
383 373 m 1,0,-1
 165 -139 l 1,1,-1
 143 -221 l 1,2,-1
 15 -221 l 1,3,-1
 14 -203 l 1,4,-1
 57 -196 l 1,5,-1
 165 1 l 1,6,-1
 15 373 l 1,7,-1
 -15 380 l 1,8,-1
 -14 399 l 1,9,-1
 163 399 l 1,10,-1
 164 378 l 1,11,-1
 120 373 l 1,12,-1
 141 283 l 1,13,-1
 203 90 l 1,14,-1
 279 283 l 1,15,-1
 297 373 l 1,16,-1
 253 378 l 1,17,-1
 254 399 l 1,18,-1
 412 399 l 1,19,-1
 413 380 l 1,20,-1
 383 373 l 1,0,-1
167 481 m 1,21,-1
 151 496 l 1,22,-1
 242 614 l 1,23,24
 269 620 269 620 301 620 c 0,25,26
 333 620 333 620 352 606 c 1,27,-1
 353 588 l 1,28,-1
 167 481 l 1,21,-1
EndSplineSet
EndChar

StartChar: zcaron
Encoding: 382 382 188
Width: 401
Flags: HMW
HStem: -26 21G<321 341 321 321> 0 55 349 54 603 20G<99 99 324 324>
LayerCount: 2
Fore
SplineSet
67 430 m 1,0,-1
 76 408 l 1,1,-1
 281 399 l 1,2,-1
 368 405 l 1,3,-1
 371 391 l 1,4,-1
 157 55 l 1,5,-1
 267 55 l 1,6,-1
 335 62 l 1,7,-1
 351 99 l 1,8,-1
 369 95 l 1,9,-1
 341 -26 l 1,10,-1
 321 -26 l 1,11,-1
 322 -4 l 1,12,-1
 119 5 l 1,13,-1
 39 -4 l 1,14,-1
 35 12 l 1,15,-1
 249 349 l 1,16,-1
 164 349 l 1,17,-1
 82 339 l 1,18,-1
 78 303 l 1,19,-1
 61 302 l 1,20,-1
 51 430 l 1,21,-1
 67 430 l 1,0,-1
83 608 m 1,22,-1
 99 623 l 1,23,-1
 211 567 l 1,24,-1
 324 623 l 1,25,-1
 340 608 l 1,26,-1
 218 481 l 1,27,-1
 204 481 l 1,28,-1
 83 608 l 1,22,-1
EndSplineSet
EndChar

StartChar: aacute
Encoding: 225 225 189
Width: 455
Flags: HMW
HStem: -15 56<178.5 187> 358 56<194.5 238> 595 20G
VStem: 40 85<92 133 92 146.5> 297 77<265 276 276 302>
LayerCount: 2
Fore
SplineSet
80 425 m 1,0,-1
 89 403 l 1,1,2
 153 414 153 414 198 414 c 0,3,4
 283 414 283 414 328.5 378.5 c 128,-1,5
 374 343 374 343 374 276 c 1,6,-1
 372 177 l 1,7,-1
 381 27 l 1,8,-1
 415 20 l 1,9,-1
 414 1 l 1,10,-1
 290 -8 l 1,11,-1
 290 33 l 1,12,13
 231 -15 231 -15 170 -15 c 128,-1,14
 109 -15 109 -15 74.5 18 c 128,-1,15
 40 51 40 51 40 109 c 128,-1,16
 40 167 40 167 90 195.5 c 128,-1,17
 140 224 140 224 297 250 c 1,18,-1
 297 276 l 2,19,20
 297 315 297 315 274.5 336.5 c 128,-1,21
 252 358 252 358 208 358 c 128,-1,22
 164 358 164 358 95 329 c 1,23,-1
 91 292 l 1,24,-1
 74 291 l 1,25,-1
 64 425 l 1,26,-1
 80 425 l 1,0,-1
158.5 158.5 m 128,-1,28
 125 143 125 143 125 112 c 128,-1,29
 125 81 125 81 146 61 c 128,-1,30
 167 41 167 41 206.5 41 c 128,-1,31
 246 41 246 41 290 85 c 1,32,-1
 295 193 l 1,33,27
 192 174 192 174 158.5 158.5 c 128,-1,28
174 481 m 1,34,-1
 158 496 l 1,35,-1
 249 614 l 1,36,37
 276 620 276 620 308 620 c 128,-1,38
 340 620 340 620 359 606 c 1,39,-1
 360 588 l 1,40,-1
 174 481 l 1,34,-1
EndSplineSet
EndChar

StartChar: agrave
Encoding: 224 224 190
Width: 455
Flags: HMW
HStem: -15 56<178.5 187> 358 56<194.5 238> 596 20G
VStem: 40 85<92 133 92 146.5> 297 77<265 276 276 302>
LayerCount: 2
Fore
SplineSet
80 425 m 1,0,-1
 89 403 l 1,1,2
 153 414 153 414 198 414 c 0,3,4
 283 414 283 414 328.5 378.5 c 128,-1,5
 374 343 374 343 374 276 c 1,6,-1
 372 177 l 1,7,-1
 381 27 l 1,8,-1
 415 20 l 1,9,-1
 414 1 l 1,10,-1
 290 -8 l 1,11,-1
 290 33 l 1,12,13
 231 -15 231 -15 170 -15 c 128,-1,14
 109 -15 109 -15 74.5 18 c 128,-1,15
 40 51 40 51 40 109 c 128,-1,16
 40 167 40 167 90 195.5 c 128,-1,17
 140 224 140 224 297 250 c 1,18,-1
 297 276 l 2,19,20
 297 315 297 315 274.5 336.5 c 128,-1,21
 252 358 252 358 208 358 c 128,-1,22
 164 358 164 358 95 329 c 1,23,-1
 91 292 l 1,24,-1
 74 291 l 1,25,-1
 64 425 l 1,26,-1
 80 425 l 1,0,-1
158.5 158.5 m 128,-1,28
 125 143 125 143 125 112 c 128,-1,29
 125 81 125 81 146 61 c 128,-1,30
 167 41 167 41 206.5 41 c 128,-1,31
 246 41 246 41 290 85 c 1,32,-1
 295 193 l 1,33,27
 192 174 192 174 158.5 158.5 c 128,-1,28
277 496 m 1,34,-1
 261 481 l 1,35,-1
 75 588 l 1,36,-1
 76 606 l 1,37,38
 95 620 95 620 127 620 c 128,-1,39
 159 620 159 620 186 614 c 1,40,-1
 277 496 l 1,34,-1
EndSplineSet
EndChar

StartChar: acircumflex
Encoding: 226 226 191
Width: 455
Flags: HMW
HStem: -15 56<178.5 187> 358 56<194.5 238> 606 20G<199 226 226 226>
VStem: 40 85<92 133 92 146.5> 297 77<265 276 276 302>
LayerCount: 2
Fore
SplineSet
80 425 m 1,0,-1
 89 403 l 1,1,2
 153 414 153 414 198 414 c 0,3,4
 283 414 283 414 328.5 378.5 c 128,-1,5
 374 343 374 343 374 276 c 1,6,-1
 372 177 l 1,7,-1
 381 27 l 1,8,-1
 415 20 l 1,9,-1
 414 1 l 1,10,-1
 290 -8 l 1,11,-1
 290 33 l 1,12,13
 231 -15 231 -15 170 -15 c 128,-1,14
 109 -15 109 -15 74.5 18 c 128,-1,15
 40 51 40 51 40 109 c 128,-1,16
 40 167 40 167 90 195.5 c 128,-1,17
 140 224 140 224 297 250 c 1,18,-1
 297 276 l 2,19,20
 297 315 297 315 274.5 336.5 c 128,-1,21
 252 358 252 358 208 358 c 128,-1,22
 164 358 164 358 95 329 c 1,23,-1
 91 292 l 1,24,-1
 74 291 l 1,25,-1
 64 425 l 1,26,-1
 80 425 l 1,0,-1
158.5 158.5 m 128,-1,28
 125 143 125 143 125 112 c 128,-1,29
 125 81 125 81 146 61 c 128,-1,30
 167 41 167 41 206.5 41 c 128,-1,31
 246 41 246 41 290 85 c 1,32,-1
 295 193 l 1,33,27
 192 174 192 174 158.5 158.5 c 128,-1,28
100 481 m 1,34,-1
 84 496 l 1,35,-1
 199 626 l 1,36,-1
 226 626 l 1,37,-1
 341 496 l 1,38,-1
 325 481 l 1,39,-1
 213 545 l 1,40,-1
 100 481 l 1,34,-1
EndSplineSet
EndChar

StartChar: adieresis
Encoding: 228 228 192
Width: 455
Flags: HMW
HStem: -15 56<178.5 187> 358 56<194.5 238> 588 20G
VStem: 40 85<92 133 92 146.5> 297 77<265 276 276 302>
LayerCount: 2
Fore
SplineSet
80 425 m 1,0,-1
 89 403 l 1,1,2
 153 414 153 414 198 414 c 0,3,4
 283 414 283 414 328.5 378.5 c 128,-1,5
 374 343 374 343 374 276 c 1,6,-1
 372 177 l 1,7,-1
 381 27 l 1,8,-1
 415 20 l 1,9,-1
 414 1 l 1,10,-1
 290 -8 l 1,11,-1
 290 33 l 1,12,13
 231 -15 231 -15 170 -15 c 128,-1,14
 109 -15 109 -15 74.5 18 c 128,-1,15
 40 51 40 51 40 109 c 128,-1,16
 40 167 40 167 90 195.5 c 128,-1,17
 140 224 140 224 297 250 c 1,18,-1
 297 276 l 2,19,20
 297 315 297 315 274.5 336.5 c 128,-1,21
 252 358 252 358 208 358 c 128,-1,22
 164 358 164 358 95 329 c 1,23,-1
 91 292 l 1,24,-1
 74 291 l 1,25,-1
 64 425 l 1,26,-1
 80 425 l 1,0,-1
158.5 158.5 m 128,-1,28
 125 143 125 143 125 112 c 128,-1,29
 125 81 125 81 146 61 c 128,-1,30
 167 41 167 41 206.5 41 c 128,-1,31
 246 41 246 41 290 85 c 1,32,-1
 295 193 l 1,33,27
 192 174 192 174 158.5 158.5 c 128,-1,28
238 547 m 1,34,35
 265 587 265 587 296 608 c 1,36,37
 332 583 332 583 357 547 c 1,38,39
 334 511 334 511 296 486 c 1,40,41
 263 507 263 507 238 547 c 1,34,35
77 547 m 1,42,43
 102 585 102 585 138 608 c 1,44,45
 168 585 168 585 196 547 c 1,46,47
 168 507 168 507 138 486 c 1,48,49
 101 510 101 510 77 547 c 1,42,43
EndSplineSet
EndChar

StartChar: atilde
Encoding: 227 227 193
Width: 455
Flags: HMW
HStem: -15 56<178.5 187> 358 56<194.5 238> 358 242<159 238>
VStem: 40 85<92 133 92 146.5> 297 77<265 276 276 302>
LayerCount: 2
Fore
SplineSet
80 425 m 1,0,-1
 89 403 l 1,1,2
 153 414 153 414 198 414 c 0,3,4
 283 414 283 414 328.5 378.5 c 128,-1,5
 374 343 374 343 374 276 c 1,6,-1
 372 177 l 1,7,-1
 381 27 l 1,8,-1
 415 20 l 1,9,-1
 414 1 l 1,10,-1
 290 -8 l 1,11,-1
 290 33 l 1,12,13
 231 -15 231 -15 170 -15 c 128,-1,14
 109 -15 109 -15 74.5 18 c 128,-1,15
 40 51 40 51 40 109 c 128,-1,16
 40 167 40 167 90 195.5 c 128,-1,17
 140 224 140 224 297 250 c 1,18,-1
 297 276 l 2,19,20
 297 315 297 315 274.5 336.5 c 128,-1,21
 252 358 252 358 208 358 c 128,-1,22
 164 358 164 358 95 329 c 1,23,-1
 91 292 l 1,24,-1
 74 291 l 1,25,-1
 64 425 l 1,26,-1
 80 425 l 1,0,-1
158.5 158.5 m 128,-1,28
 125 143 125 143 125 112 c 128,-1,29
 125 81 125 81 146 61 c 128,-1,30
 167 41 167 41 206.5 41 c 128,-1,31
 246 41 246 41 290 85 c 1,32,-1
 295 193 l 1,33,27
 192 174 192 174 158.5 158.5 c 128,-1,28
352 599 m 1,34,-1
 370 586 l 1,35,36
 333 528 333 528 314.5 510 c 128,-1,37
 296 492 296 492 277 492 c 128,-1,38
 258 492 258 492 241 500 c 128,-1,39
 224 508 224 508 153 549 c 1,40,-1
 95 493 l 1,41,-1
 77 506 l 1,42,43
 112 564 112 564 131 582 c 128,-1,44
 150 600 150 600 170 600 c 128,-1,45
 190 600 190 600 207.5 591.5 c 128,-1,46
 225 583 225 583 294 543 c 1,47,-1
 352 599 l 1,34,-1
EndSplineSet
EndChar

StartChar: aring
Encoding: 229 229 194
Width: 455
Flags: HMW
HStem: -15 56<180.5 188> 358 56<194.5 239> 481 32<196.5 219 196.5 230.5> 598 34<196.5 219>
VStem: 40 85<90 141.5 90 152> 131 38<543.5 568.5 543.5 578.5> 246 39<543.5 568.5> 297 77<265 276 276 301>
LayerCount: 2
Fore
SplineSet
80 425 m 1,0,-1
 89 403 l 1,1,2
 151 414 151 414 198 414 c 0,3,4
 274 414 274 414 324 382.5 c 128,-1,5
 374 351 374 351 374 276 c 1,6,-1
 372 177 l 1,7,-1
 381 27 l 1,8,-1
 415 20 l 1,9,-1
 414 1 l 1,10,-1
 290 -8 l 1,11,-1
 290 33 l 1,12,13
 232 -15 232 -15 171.5 -15 c 128,-1,14
 111 -15 111 -15 75.5 17 c 128,-1,15
 40 49 40 49 40 105 c 0,16,17
 40 158 40 158 77.5 188 c 0,18,19
 109.577464789 213.661971831 109.577464789 213.661971831 200 232.5 c 0,20,21
 236 240 236 240 297 250 c 1,22,-1
 297 276 l 2,23,24
 297 314 297 314 275 336 c 128,-1,25
 253 358 253 358 208.5 358 c 128,-1,26
 164 358 164 358 95 329 c 1,27,-1
 91 292 l 1,28,-1
 74 291 l 1,29,-1
 64 425 l 1,30,-1
 80 425 l 1,0,-1
147 60.5 m 128,-1,32
 169 41 169 41 207.5 41 c 128,-1,33
 246 41 246 41 290 85 c 1,34,-1
 295 193 l 1,35,36
 287 191 287 191 269.5 188.5 c 128,-1,37
 252 186 252 186 242.5 184 c 128,-1,38
 233 182 233 182 217 179 c 128,-1,39
 201 176 201 176 192 173 c 128,-1,40
 183 170 183 170 171 165.5 c 128,-1,41
 159 161 159 161 152 156 c 128,-1,42
 145 151 145 151 138 144.5 c 0,43,44
 125 132.428571429 125 132.428571429 125 106.214285714 c 128,-1,31
 125 80 125 80 147 60.5 c 128,-1,32
208 632 m 128,-1,46
 241 632 241 632 263 610.5 c 128,-1,47
 285 589 285 589 285 556.5 c 128,-1,48
 285 524 285 524 263.5 502.5 c 128,-1,49
 242 481 242 481 208 481 c 128,-1,50
 174 481 174 481 152.5 502.5 c 128,-1,51
 131 524 131 524 131 556.5 c 128,-1,52
 131 589 131 589 153 610.5 c 128,-1,45
 175 632 175 632 208 632 c 128,-1,46
208 513 m 128,-1,54
 225 513 225 513 235.5 525 c 128,-1,55
 246 537 246 537 246 556 c 128,-1,56
 246 575 246 575 235.5 586.5 c 128,-1,57
 225 598 225 598 208 598 c 128,-1,58
 191 598 191 598 180 586.5 c 128,-1,59
 169 575 169 575 169 556 c 128,-1,60
 169 537 169 537 180 525 c 128,-1,53
 191 513 191 513 208 513 c 128,-1,54
EndSplineSet
EndChar

StartChar: ccedilla
Encoding: 231 231 195
Width: 419
Flags: HMW
HStem: -221 32<192 217.5 190.5 234> -14 55<211 211> 357 57<210 263.5> 406 20G<360 376 376 376>
VStem: 40 86<173 244 173 268.5> 255 54<-157 -128.5>
LayerCount: 2
Fore
SplineSet
84.5 51.5 m 128,-1,1
 40 110 40 110 40 205 c 128,-1,2
 40 300 40 300 101.5 357 c 128,-1,3
 163 414 163 414 260 414 c 0,4,5
 300 414 300 414 352 404 c 1,6,-1
 360 426 l 1,7,-1
 376 426 l 1,8,-1
 369 288 l 1,9,-1
 352 288 l 1,10,-1
 349 326 l 1,11,12
 293 357 293 357 242.5 357 c 128,-1,13
 192 357 192 357 159 312.5 c 128,-1,14
 126 268 126 268 126 200 c 0,15,16
 126 150.090909091 126 150.090909091 146 101 c 0,17,18
 157 74 157 74 181.5 57.5 c 128,-1,19
 206 41 206 41 240 41 c 0,20,21
 300 41 300 41 354 79 c 1,22,-1
 371 119 l 1,23,-1
 389 115 l 1,24,-1
 358 -26 l 1,25,-1
 338 -26 l 1,26,-1
 339 0 l 1,27,28
 290 -13 290 -13 245 -15 c 1,29,-1
 223 -59 l 1,30,31
 225 -60 225 -60 241 -65.5 c 128,-1,32
 257 -71 257 -71 262 -73 c 128,-1,33
 267 -75 267 -75 279 -81.5 c 128,-1,34
 291 -88 291 -88 295.5 -94 c 0,35,36
 309 -112 309 -112 309 -132 c 0,37,38
 309 -172 309 -172 279.5 -196.5 c 128,-1,39
 250 -221 250 -221 208.5 -221 c 128,-1,40
 167 -221 167 -221 132 -207 c 1,41,-1
 137 -178 l 1,42,43
 168 -189 168 -189 196.5 -189 c 128,-1,44
 225 -189 225 -189 240 -176.5 c 128,-1,45
 255 -164 255 -164 255 -150 c 128,-1,46
 255 -136 255 -136 251 -129 c 128,-1,47
 247 -122 247 -122 236 -117 c 128,-1,48
 225 -112 225 -112 217.5 -109.5 c 128,-1,49
 210 -107 210 -107 192.5 -103 c 128,-1,50
 175 -99 175 -99 168 -97 c 1,51,-1
 211 -14 l 1,52,0
 129 -7 129 -7 84.5 51.5 c 128,-1,1
EndSplineSet
EndChar

StartChar: eacute
Encoding: 233 233 196
Width: 445
Flags: HMW
HStem: -15 56<205.5 253.5> -14 21G<377 393 377 377> 198 52<128 128 128 402 126 128> 358 56<198.5 261.5> 600 20G<317 340>
VStem: 40 86<151 198 151 256.5> 322 83<251 289>
LayerCount: 2
Fore
SplineSet
91.5 40 m 128,-1,1
 40 95 40 95 40 192.5 c 128,-1,2
 40 290 40 290 93 352 c 128,-1,3
 146 414 146 414 233.5 414 c 128,-1,4
 321 414 321 414 363 374 c 128,-1,5
 405 334 405 334 405 249 c 0,6,7
 405 225 405 225 402 198 c 1,8,-1
 126 198 l 1,9,10
 126 127 126 127 157 84 c 128,-1,11
 188 41 188 41 246 41 c 128,-1,12
 304 41 304 41 362 85 c 1,13,-1
 369 126 l 1,14,-1
 386 125 l 1,15,-1
 393 -14 l 1,16,-1
 377 -14 l 1,17,-1
 368 9 l 1,18,19
 303 -15 303 -15 223 -15 c 128,-1,0
 143 -15 143 -15 91.5 40 c 128,-1,1
128 250 m 1,20,-1
 322 251 l 1,21,22
 322 308 322 308 300 333 c 128,-1,23
 278 358 278 358 231 358 c 0,24,25
 138.188679245 358 138.188679245 358 128 250 c 1,20,-1
201 481 m 1,26,-1
 185 496 l 1,27,-1
 276 614 l 1,28,29
 303 620 303 620 335 620 c 128,-1,30
 367 620 367 620 386 606 c 1,31,-1
 387 588 l 1,32,-1
 201 481 l 1,26,-1
EndSplineSet
EndChar

StartChar: egrave
Encoding: 232 232 197
Width: 445
Flags: HMW
HStem: -15 56<205.5 253.5> -14 21G<377 393 377 377> 198 52<128 128 128 402 126 128> 358 56<198.5 261.5> 600 20G<126 149>
VStem: 40 86<151 198 151 256.5> 322 83<251 289>
LayerCount: 2
Fore
SplineSet
91.5 40 m 128,-1,1
 40 95 40 95 40 192.5 c 128,-1,2
 40 290 40 290 93 352 c 128,-1,3
 146 414 146 414 233.5 414 c 128,-1,4
 321 414 321 414 363 374 c 128,-1,5
 405 334 405 334 405 249 c 0,6,7
 405 225 405 225 402 198 c 1,8,-1
 126 198 l 1,9,10
 126 127 126 127 157 84 c 128,-1,11
 188 41 188 41 246 41 c 128,-1,12
 304 41 304 41 362 85 c 1,13,-1
 369 126 l 1,14,-1
 386 125 l 1,15,-1
 393 -14 l 1,16,-1
 377 -14 l 1,17,-1
 368 9 l 1,18,19
 303 -15 303 -15 223 -15 c 128,-1,0
 143 -15 143 -15 91.5 40 c 128,-1,1
128 250 m 1,20,-1
 322 251 l 1,21,22
 322 308 322 308 300 333 c 128,-1,23
 278 358 278 358 231 358 c 0,24,25
 138.188679245 358 138.188679245 358 128 250 c 1,20,-1
281 496 m 1,26,-1
 265 481 l 1,27,-1
 79 588 l 1,28,-1
 80 606 l 1,29,30
 99 620 99 620 131 620 c 128,-1,31
 163 620 163 620 190 614 c 1,32,-1
 281 496 l 1,26,-1
EndSplineSet
EndChar

StartChar: ecircumflex
Encoding: 234 234 198
Width: 445
Flags: HMW
HStem: -15 56<205.5 253.5> -14 21G<377 393 377 377> 198 52<128 128 128 402 126 128> 358 56<198.5 261.5> 606 20G<221 248 248 248>
VStem: 40 86<151 198 151 256.5> 322 83<251 289>
LayerCount: 2
Fore
SplineSet
91.5 40 m 128,-1,1
 40 95 40 95 40 192.5 c 128,-1,2
 40 290 40 290 93 352 c 128,-1,3
 146 414 146 414 233.5 414 c 128,-1,4
 321 414 321 414 363 374 c 128,-1,5
 405 334 405 334 405 249 c 0,6,7
 405 225 405 225 402 198 c 1,8,-1
 126 198 l 1,9,10
 126 127 126 127 157 84 c 128,-1,11
 188 41 188 41 246 41 c 128,-1,12
 304 41 304 41 362 85 c 1,13,-1
 369 126 l 1,14,-1
 386 125 l 1,15,-1
 393 -14 l 1,16,-1
 377 -14 l 1,17,-1
 368 9 l 1,18,19
 303 -15 303 -15 223 -15 c 128,-1,0
 143 -15 143 -15 91.5 40 c 128,-1,1
128 250 m 1,20,-1
 322 251 l 1,21,22
 322 308 322 308 300 333 c 128,-1,23
 278 358 278 358 231 358 c 0,24,25
 138.188679245 358 138.188679245 358 128 250 c 1,20,-1
122 481 m 1,26,-1
 106 496 l 1,27,-1
 221 626 l 1,28,-1
 248 626 l 1,29,-1
 363 496 l 1,30,-1
 347 481 l 1,31,-1
 235 545 l 1,32,-1
 122 481 l 1,26,-1
EndSplineSet
EndChar

StartChar: edieresis
Encoding: 235 235 199
Width: 445
Flags: HMW
HStem: -15 56<205.5 254> -14 21G<377 393 377 377> 198 52<128 128 128 402 126 128> 358 56<198.5 261.5> 588 20G
VStem: 40 86<150.5 198 150.5 256.5> 322 83<251 289>
LayerCount: 2
Fore
SplineSet
261 547 m 1,0,1
 288 587 288 587 319 608 c 1,2,3
 355 583 355 583 380 547 c 1,4,5
 357 511 357 511 319 486 c 1,6,7
 286 507 286 507 261 547 c 1,0,1
100 547 m 1,8,9
 125 585 125 585 161 608 c 1,10,11
 191 585 191 585 219 547 c 1,12,13
 191 507 191 507 161 486 c 1,14,15
 124 510 124 510 100 547 c 1,8,9
91.5 40 m 128,-1,17
 40 95 40 95 40 192.5 c 128,-1,18
 40 290 40 290 93 352 c 128,-1,19
 146 414 146 414 233.5 414 c 128,-1,20
 321 414 321 414 363 374 c 128,-1,21
 405 334 405 334 405 249 c 0,22,23
 405 225 405 225 402 198 c 1,24,-1
 126 198 l 1,25,26
 126 127 126 127 157 84 c 128,-1,27
 188 41 188 41 246 41 c 128,-1,28
 304 41 304 41 362 85 c 1,29,-1
 369 126 l 1,30,-1
 386 125 l 1,31,-1
 393 -14 l 1,32,-1
 377 -14 l 1,33,-1
 368 9 l 1,34,35
 305 -15 305 -15 224 -15 c 128,-1,16
 143 -15 143 -15 91.5 40 c 128,-1,17
128 250 m 1,36,-1
 322 251 l 1,37,38
 322 308 322 308 300 333 c 128,-1,39
 278 358 278 358 231 358 c 0,40,41
 138.188679245 358 138.188679245 358 128 250 c 1,36,-1
EndSplineSet
EndChar

StartChar: ntilde
Encoding: 241 241 200
Width: 509
Flags: HMW
HStem: 0 21G<50 218> 345 69<285.5 298> 580 20G<196 222.5>
VStem: 83 86 354 81
LayerCount: 2
Fore
SplineSet
50 0 m 1,0,-1
 49 19 l 1,1,-1
 79 26 l 1,2,-1
 88 177 l 1,3,-1
 88 221 l 1,4,-1
 79 372 l 1,5,-1
 45 379 l 1,6,-1
 46 398 l 1,7,-1
 175 409 l 1,8,-1
 172 363 l 1,9,10
 240 414 240 414 303 414 c 0,11,12
 366 414 366 414 398.5 376 c 128,-1,13
 431 338 431 338 431 270 c 2,14,-1
 431 177 l 1,15,-1
 439 26 l 1,16,-1
 469 19 l 1,17,-1
 468 0 l 1,18,-1
 303 0 l 1,19,-1
 302 21 l 1,20,-1
 345 26 l 1,21,-1
 354 177 l 1,22,-1
 354 266 l 2,23,24
 354 304 354 304 332.5 324.5 c 128,-1,25
 311 345 311 345 265 345 c 0,26,27
 219 345 219 345 170 309 c 1,28,-1
 165 221 l 1,29,-1
 165 177 l 1,30,-1
 173 26 l 1,31,-1
 218 21 l 1,32,-1
 217 0 l 1,33,-1
 50 0 l 1,0,-1
389 599 m 1,34,-1
 407 586 l 1,35,36
 370 528 370 528 351.5 510 c 128,-1,37
 333 492 333 492 314 492 c 0,38,39
 295 492 295 492 278 500 c 128,-1,40
 261 508 261 508 190 549 c 1,41,-1
 132 493 l 1,42,-1
 114 506 l 1,43,44
 149 564 149 564 168 582 c 128,-1,45
 187 600 187 600 207 600 c 0,46,47
 227 600 227 600 247 590.5 c 128,-1,48
 267 581 267 581 331 543 c 1,49,-1
 389 599 l 1,34,-1
EndSplineSet
EndChar

StartChar: oacute
Encoding: 243 243 201
Width: 480
Flags: HMW
HStem: -15 56<205.5 283 205.5 299> 358 56<193.5 271> 595 20G
VStem: 40 86<153 259> 353 87<140.5 244.5>
LayerCount: 2
Fore
SplineSet
92 39.5 m 128,-1,1
 40 94 40 94 40 193.5 c 128,-1,2
 40 293 40 293 95 353.5 c 128,-1,3
 150 414 150 414 243.5 414 c 128,-1,4
 337 414 337 414 388.5 360.5 c 128,-1,5
 440 307 440 307 440 206.5 c 128,-1,6
 440 106 440 106 385 45.5 c 128,-1,7
 330 -15 330 -15 237 -15 c 128,-1,0
 144 -15 144 -15 92 39.5 c 128,-1,1
247 41 m 0,8,9
 353 41 353 41 353 188 c 0,10,11
 353 358 353 358 230 358 c 0,12,13
 175 358 175 358 150.5 323.5 c 128,-1,14
 126 289 126 289 126 206.5 c 0,15,16
 126 41 126 41 247 41 c 0,8,9
196 481 m 1,17,-1
 180 496 l 1,18,-1
 271 614 l 1,19,20
 298 620 298 620 330 620 c 128,-1,21
 362 620 362 620 381 606 c 1,22,-1
 382 588 l 1,23,-1
 196 481 l 1,17,-1
EndSplineSet
EndChar

StartChar: ograve
Encoding: 242 242 202
Width: 480
Flags: HMW
HStem: -15 56<205.5 283 205.5 299> 358 56<193.5 271> 596 20G
VStem: 40 86<153 259> 353 87<140.5 244.5>
LayerCount: 2
Fore
SplineSet
92 39.5 m 128,-1,1
 40 94 40 94 40 193.5 c 128,-1,2
 40 293 40 293 95 353.5 c 128,-1,3
 150 414 150 414 243.5 414 c 128,-1,4
 337 414 337 414 388.5 360.5 c 128,-1,5
 440 307 440 307 440 206.5 c 128,-1,6
 440 106 440 106 385 45.5 c 128,-1,7
 330 -15 330 -15 237 -15 c 128,-1,0
 144 -15 144 -15 92 39.5 c 128,-1,1
247 41 m 0,8,9
 353 41 353 41 353 188 c 0,10,11
 353 358 353 358 230 358 c 0,12,13
 175 358 175 358 150.5 323.5 c 128,-1,14
 126 289 126 289 126 206.5 c 0,15,16
 126 41 126 41 247 41 c 0,8,9
309 496 m 1,17,-1
 293 481 l 1,18,-1
 107 588 l 1,19,-1
 108 606 l 1,20,21
 127 620 127 620 159 620 c 128,-1,22
 191 620 191 620 218 614 c 1,23,-1
 309 496 l 1,17,-1
EndSplineSet
EndChar

StartChar: ocircumflex
Encoding: 244 244 203
Width: 480
Flags: HMW
HStem: -15 56<205.5 283 205.5 299> 358 56<193.5 271> 606 20G<229 256 256 256>
VStem: 40 86<153 259> 353 87<140.5 244.5>
LayerCount: 2
Fore
SplineSet
92 39.5 m 128,-1,1
 40 94 40 94 40 193.5 c 128,-1,2
 40 293 40 293 95 353.5 c 128,-1,3
 150 414 150 414 243.5 414 c 128,-1,4
 337 414 337 414 388.5 360.5 c 128,-1,5
 440 307 440 307 440 206.5 c 128,-1,6
 440 106 440 106 385 45.5 c 128,-1,7
 330 -15 330 -15 237 -15 c 128,-1,0
 144 -15 144 -15 92 39.5 c 128,-1,1
247 41 m 0,8,9
 353 41 353 41 353 188 c 0,10,11
 353 358 353 358 230 358 c 0,12,13
 175 358 175 358 150.5 323.5 c 128,-1,14
 126 289 126 289 126 206.5 c 0,15,16
 126 41 126 41 247 41 c 0,8,9
130 481 m 1,17,-1
 114 496 l 1,18,-1
 229 626 l 1,19,-1
 256 626 l 1,20,-1
 371 496 l 1,21,-1
 355 481 l 1,22,-1
 243 545 l 1,23,-1
 130 481 l 1,17,-1
EndSplineSet
EndChar

StartChar: odieresis
Encoding: 246 246 204
Width: 480
Flags: HMW
HStem: -15 56<205.5 283 205.5 299> 358 56<193.5 271> 588 20G
VStem: 40 86<153 259> 353 87<140.5 244.5>
LayerCount: 2
Fore
SplineSet
257 547 m 1,0,1
 284 587 284 587 315 608 c 1,2,3
 351 583 351 583 376 547 c 1,4,5
 353 511 353 511 315 486 c 1,6,7
 282 507 282 507 257 547 c 1,0,1
96 547 m 1,8,9
 121 585 121 585 157 608 c 1,10,11
 187 585 187 585 215 547 c 1,12,13
 187 507 187 507 157 486 c 1,14,15
 120 510 120 510 96 547 c 1,8,9
247 41 m 0,16,17
 353 41 353 41 353 188 c 0,18,19
 353 358 353 358 230 358 c 0,20,21
 175 358 175 358 150.5 323.5 c 128,-1,22
 126 289 126 289 126 206.5 c 0,23,24
 126 41 126 41 247 41 c 0,16,17
92 39.5 m 128,-1,26
 40 94 40 94 40 193.5 c 128,-1,27
 40 293 40 293 95 353.5 c 128,-1,28
 150 414 150 414 243.5 414 c 128,-1,29
 337 414 337 414 388.5 360.5 c 128,-1,30
 440 307 440 307 440 206.5 c 128,-1,31
 440 106 440 106 385 45.5 c 128,-1,32
 330 -15 330 -15 237 -15 c 128,-1,25
 144 -15 144 -15 92 39.5 c 128,-1,26
EndSplineSet
EndChar

StartChar: otilde
Encoding: 245 245 205
Width: 480
Flags: HMW
HStem: -15 56<205.5 283 205.5 299> 358 56<193.5 271> 358 242<193.5 210.5 184 271>
VStem: 40 86<153 259> 353 87<140.5 244.5>
LayerCount: 2
Fore
SplineSet
92 39.5 m 128,-1,1
 40 94 40 94 40 193.5 c 128,-1,2
 40 293 40 293 95 353.5 c 128,-1,3
 150 414 150 414 243.5 414 c 128,-1,4
 337 414 337 414 388.5 360.5 c 128,-1,5
 440 307 440 307 440 206.5 c 128,-1,6
 440 106 440 106 385 45.5 c 128,-1,7
 330 -15 330 -15 237 -15 c 128,-1,0
 144 -15 144 -15 92 39.5 c 128,-1,1
247 41 m 0,8,9
 353 41 353 41 353 188 c 0,10,11
 353 358 353 358 230 358 c 0,12,13
 175 358 175 358 150.5 323.5 c 128,-1,14
 126 289 126 289 126 206.5 c 0,15,16
 126 41 126 41 247 41 c 0,8,9
377 599 m 1,17,-1
 395 586 l 1,18,19
 358 528 358 528 339.5 510 c 128,-1,20
 321 492 321 492 302 492 c 128,-1,21
 283 492 283 492 266 500 c 128,-1,22
 249 508 249 508 178 549 c 1,23,-1
 120 493 l 1,24,-1
 102 506 l 1,25,26
 137 564 137 564 156 582 c 128,-1,27
 175 600 175 600 195 600 c 128,-1,28
 215 600 215 600 235 590.5 c 128,-1,29
 255 581 255 581 319 543 c 1,30,-1
 377 599 l 1,17,-1
EndSplineSet
EndChar

StartChar: uacute
Encoding: 250 250 206
Width: 509
Flags: HMW
HStem: -15 69<216 228.5> 595 20G
VStem: 83 77<129 133 133 221> 344 86
LayerCount: 2
Fore
SplineSet
83 221 m 1,0,-1
 74 372 l 1,1,-1
 40 379 l 1,2,-1
 41 398 l 1,3,-1
 170 409 l 1,4,-1
 160 221 l 1,5,-1
 160 133 l 2,6,7
 160 95 160 95 181.5 74.5 c 128,-1,8
 203 54 203 54 250 54 c 0,9,10
 297 54 297 54 344 90 c 1,11,-1
 349 178 l 1,12,-1
 349 221 l 1,13,-1
 340 372 l 1,14,-1
 306 379 l 1,15,-1
 307 398 l 1,16,-1
 436 409 l 1,17,-1
 426 221 l 1,18,-1
 426 178 l 1,19,-1
 435 27 l 1,20,-1
 469 20 l 1,21,-1
 468 1 l 1,22,-1
 339 -10 l 1,23,-1
 341 36 l 1,24,25
 275 -15 275 -15 211.5 -15 c 0,26,27
 148 -15 148 -15 115.5 23 c 128,-1,28
 83 61 83 61 83 129 c 2,29,-1
 83 221 l 1,0,-1
201 481 m 1,30,-1
 185 496 l 1,31,-1
 276 614 l 1,32,33
 303 620 303 620 335 620 c 0,34,35
 367 620 367 620 386 606 c 1,36,-1
 387 588 l 1,37,-1
 201 481 l 1,30,-1
EndSplineSet
EndChar

StartChar: ugrave
Encoding: 249 249 207
Width: 509
Flags: HMW
HStem: -15 69<216 228.5> 596 20G
VStem: 83 77<129 133 133 221> 344 86
LayerCount: 2
Fore
SplineSet
83 221 m 1,0,-1
 74 372 l 1,1,-1
 40 379 l 1,2,-1
 41 398 l 1,3,-1
 170 409 l 1,4,-1
 160 221 l 1,5,-1
 160 133 l 2,6,7
 160 95 160 95 181.5 74.5 c 128,-1,8
 203 54 203 54 250 54 c 0,9,10
 297 54 297 54 344 90 c 1,11,-1
 349 178 l 1,12,-1
 349 221 l 1,13,-1
 340 372 l 1,14,-1
 306 379 l 1,15,-1
 307 398 l 1,16,-1
 436 409 l 1,17,-1
 426 221 l 1,18,-1
 426 178 l 1,19,-1
 435 27 l 1,20,-1
 469 20 l 1,21,-1
 468 1 l 1,22,-1
 339 -10 l 1,23,-1
 341 36 l 1,24,25
 275 -15 275 -15 211.5 -15 c 0,26,27
 148 -15 148 -15 115.5 23 c 128,-1,28
 83 61 83 61 83 129 c 2,29,-1
 83 221 l 1,0,-1
314 496 m 1,30,-1
 298 481 l 1,31,-1
 112 588 l 1,32,-1
 113 606 l 1,33,34
 132 620 132 620 164 620 c 0,35,36
 196 620 196 620 223 614 c 1,37,-1
 314 496 l 1,30,-1
EndSplineSet
EndChar

StartChar: ucircumflex
Encoding: 251 251 208
Width: 509
Flags: HMW
HStem: -15 69<216 228.5> 606 20G<226 253 253 253>
VStem: 83 77<129 133 133 221> 344 86
LayerCount: 2
Fore
SplineSet
83 221 m 1,0,-1
 74 372 l 1,1,-1
 40 379 l 1,2,-1
 41 398 l 1,3,-1
 170 409 l 1,4,-1
 160 221 l 1,5,-1
 160 133 l 2,6,7
 160 95 160 95 181.5 74.5 c 128,-1,8
 203 54 203 54 250 54 c 0,9,10
 297 54 297 54 344 90 c 1,11,-1
 349 178 l 1,12,-1
 349 221 l 1,13,-1
 340 372 l 1,14,-1
 306 379 l 1,15,-1
 307 398 l 1,16,-1
 436 409 l 1,17,-1
 426 221 l 1,18,-1
 426 178 l 1,19,-1
 435 27 l 1,20,-1
 469 20 l 1,21,-1
 468 1 l 1,22,-1
 339 -10 l 1,23,-1
 341 36 l 1,24,25
 275 -15 275 -15 211.5 -15 c 0,26,27
 148 -15 148 -15 115.5 23 c 128,-1,28
 83 61 83 61 83 129 c 2,29,-1
 83 221 l 1,0,-1
127 481 m 1,30,-1
 111 496 l 1,31,-1
 226 626 l 1,32,-1
 253 626 l 1,33,-1
 368 496 l 1,34,-1
 352 481 l 1,35,-1
 240 545 l 1,36,-1
 127 481 l 1,30,-1
EndSplineSet
EndChar

StartChar: udieresis
Encoding: 252 252 209
Width: 509
Flags: HMW
HStem: -15 69<216 228.5> 588 20G
VStem: 83 77<129 133 133 221> 344 86
LayerCount: 2
Fore
SplineSet
83 221 m 1,0,-1
 74 372 l 1,1,-1
 40 379 l 1,2,-1
 41 398 l 1,3,-1
 170 409 l 1,4,-1
 160 221 l 1,5,-1
 160 133 l 2,6,7
 160 95 160 95 181.5 74.5 c 128,-1,8
 203 54 203 54 250 54 c 0,9,10
 297 54 297 54 344 90 c 1,11,-1
 349 178 l 1,12,-1
 349 221 l 1,13,-1
 340 372 l 1,14,-1
 306 379 l 1,15,-1
 307 398 l 1,16,-1
 436 409 l 1,17,-1
 426 221 l 1,18,-1
 426 178 l 1,19,-1
 435 27 l 1,20,-1
 469 20 l 1,21,-1
 468 1 l 1,22,-1
 339 -10 l 1,23,-1
 341 36 l 1,24,25
 275 -15 275 -15 211.5 -15 c 0,26,27
 148 -15 148 -15 115.5 23 c 128,-1,28
 83 61 83 61 83 129 c 2,29,-1
 83 221 l 1,0,-1
265 547 m 1,30,31
 292 587 292 587 323 608 c 1,32,33
 359 583 359 583 384 547 c 1,34,35
 361 511 361 511 323 486 c 1,36,37
 290 507 290 507 265 547 c 1,30,31
104 547 m 1,38,39
 129 585 129 585 165 608 c 1,40,41
 195 585 195 585 223 547 c 1,42,43
 195 507 195 507 165 486 c 1,44,45
 128 510 128 510 104 547 c 1,38,39
EndSplineSet
EndChar

StartChar: iacute
Encoding: 237 237 210
Width: 248
Flags: HMW
HStem: 0 21G<50 50 50 202> 595 20G
VStem: 83 86
LayerCount: 2
Fore
SplineSet
50 0 m 1,0,-1
 49 19 l 1,1,-1
 79 26 l 1,2,-1
 88 177 l 1,3,-1
 88 221 l 1,4,-1
 79 372 l 1,5,-1
 45 379 l 1,6,-1
 46 398 l 1,7,-1
 175 409 l 1,8,-1
 165 221 l 1,9,-1
 165 177 l 1,10,-1
 173 26 l 1,11,-1
 203 19 l 1,12,-1
 202 0 l 1,13,-1
 50 0 l 1,0,-1
78 481 m 1,14,-1
 62 496 l 1,15,-1
 153 614 l 1,16,17
 180 620 180 620 212 620 c 0,18,19
 244 620 244 620 263 606 c 1,20,-1
 264 588 l 1,21,-1
 78 481 l 1,14,-1
EndSplineSet
EndChar

StartChar: igrave
Encoding: 236 236 211
Width: 248
Flags: HMW
HStem: 0 21G<50 50 50 202> 596 20G
VStem: 83 86
LayerCount: 2
Fore
SplineSet
50 0 m 1,0,-1
 49 19 l 1,1,-1
 79 26 l 1,2,-1
 88 177 l 1,3,-1
 88 221 l 1,4,-1
 79 372 l 1,5,-1
 45 379 l 1,6,-1
 46 398 l 1,7,-1
 175 409 l 1,8,-1
 165 221 l 1,9,-1
 165 177 l 1,10,-1
 173 26 l 1,11,-1
 203 19 l 1,12,-1
 202 0 l 1,13,-1
 50 0 l 1,0,-1
165 496 m 1,14,-1
 149 481 l 1,15,-1
 -37 588 l 1,16,-1
 -36 606 l 1,17,18
 -17 620 -17 620 15 620 c 0,19,20
 47 620 47 620 74 614 c 1,21,-1
 165 496 l 1,14,-1
EndSplineSet
EndChar

StartChar: icircumflex
Encoding: 238 238 212
Width: 248
Flags: HMW
HStem: 0 21G<50 50 50 202> 606 20G<111 138 138 138>
VStem: 83 86
LayerCount: 2
Fore
SplineSet
50 0 m 1,0,-1
 49 19 l 1,1,-1
 79 26 l 1,2,-1
 88 177 l 1,3,-1
 88 221 l 1,4,-1
 79 372 l 1,5,-1
 45 379 l 1,6,-1
 46 398 l 1,7,-1
 175 409 l 1,8,-1
 165 221 l 1,9,-1
 165 177 l 1,10,-1
 173 26 l 1,11,-1
 203 19 l 1,12,-1
 202 0 l 1,13,-1
 50 0 l 1,0,-1
12 481 m 1,14,-1
 -4 496 l 1,15,-1
 111 626 l 1,16,-1
 138 626 l 1,17,-1
 253 496 l 1,18,-1
 237 481 l 1,19,-1
 125 545 l 1,20,-1
 12 481 l 1,14,-1
EndSplineSet
EndChar

StartChar: idieresis
Encoding: 239 239 213
Width: 248
Flags: HMW
HStem: 0 21G<50 50 50 202> 588 20G
VStem: 83 86
LayerCount: 2
Fore
SplineSet
50 0 m 1,0,-1
 49 19 l 1,1,-1
 79 26 l 1,2,-1
 88 177 l 1,3,-1
 88 221 l 1,4,-1
 79 372 l 1,5,-1
 45 379 l 1,6,-1
 46 398 l 1,7,-1
 175 409 l 1,8,-1
 165 221 l 1,9,-1
 165 177 l 1,10,-1
 173 26 l 1,11,-1
 203 19 l 1,12,-1
 202 0 l 1,13,-1
 50 0 l 1,0,-1
148 547 m 1,14,15
 175 587 175 587 206 608 c 1,16,17
 242 583 242 583 267 547 c 1,18,19
 244 511 244 511 206 486 c 1,20,21
 173 507 173 507 148 547 c 1,14,15
-13 547 m 1,22,23
 12 585 12 585 48 608 c 1,24,25
 78 585 78 585 106 547 c 1,26,27
 78 507 78 507 48 486 c 1,28,29
 11 510 11 510 -13 547 c 1,22,23
EndSplineSet
EndChar

StartChar: Aacute
Encoding: 193 193 214
Width: 565
Flags: HMW
HStem: 0 21G<-9 159> 204 67<192 370 192 394 166 370> 585 20G<209 373 373 373> 730 20G
LayerCount: 2
Fore
SplineSet
413 151 m 1,0,-1
 394 204 l 1,1,-1
 166 204 l 1,2,-1
 146 151 l 1,3,-1
 116 26 l 1,4,-1
 159 21 l 1,5,-1
 158 0 l 1,6,-1
 -9 0 l 1,7,-1
 -10 19 l 1,8,-1
 20 26 l 1,9,-1
 246 579 l 1,10,-1
 208 586 l 1,11,-1
 209 605 l 1,12,-1
 373 605 l 1,13,-1
 374 586 l 1,14,-1
 336 579 l 1,15,-1
 545 26 l 1,16,-1
 575 19 l 1,17,-1
 574 0 l 1,18,-1
 396 0 l 1,19,-1
 395 21 l 1,20,-1
 438 26 l 1,21,-1
 413 151 l 1,0,-1
285 507 m 1,22,-1
 192 271 l 1,23,-1
 370 271 l 1,24,-1
 285 507 l 1,22,-1
247 645 m 1,25,-1
 236 663 l 1,26,-1
 339 752 l 1,27,28
 402 752 402 752 437 721 c 1,29,-1
 437 706 l 1,30,-1
 247 645 l 1,25,-1
EndSplineSet
EndChar

StartChar: Acircumflex
Encoding: 194 194 215
Width: 565
Flags: HMW
HStem: 0 21G<-9 159> 204 67<192 370 192 394 166 370> 585 20G<209 373 373 373> 734 20G<289 296 296 296>
LayerCount: 2
Fore
SplineSet
413 151 m 1,0,-1
 394 204 l 1,1,-1
 166 204 l 1,2,-1
 146 151 l 1,3,-1
 116 26 l 1,4,-1
 159 21 l 1,5,-1
 158 0 l 1,6,-1
 -9 0 l 1,7,-1
 -10 19 l 1,8,-1
 20 26 l 1,9,-1
 246 579 l 1,10,-1
 208 586 l 1,11,-1
 209 605 l 1,12,-1
 373 605 l 1,13,-1
 374 586 l 1,14,-1
 336 579 l 1,15,-1
 545 26 l 1,16,-1
 575 19 l 1,17,-1
 574 0 l 1,18,-1
 396 0 l 1,19,-1
 395 21 l 1,20,-1
 438 26 l 1,21,-1
 413 151 l 1,0,-1
285 507 m 1,22,-1
 192 271 l 1,23,-1
 370 271 l 1,24,-1
 285 507 l 1,22,-1
180 645 m 1,25,-1
 169 664 l 1,26,-1
 289 754 l 1,27,-1
 296 754 l 1,28,-1
 416 663 l 1,29,-1
 405 645 l 1,30,-1
 292 683 l 1,31,-1
 180 645 l 1,25,-1
EndSplineSet
EndChar

StartChar: Adieresis
Encoding: 196 196 216
Width: 565
Flags: HMW
HStem: 0 21G<-9 159> 204 67<192 370 192 394 166 370> 585 20G<209 373 373 373> 747 20G
LayerCount: 2
Fore
SplineSet
413 151 m 1,0,-1
 394 204 l 1,1,-1
 166 204 l 1,2,-1
 146 151 l 1,3,-1
 116 26 l 1,4,-1
 159 21 l 1,5,-1
 158 0 l 1,6,-1
 -9 0 l 1,7,-1
 -10 19 l 1,8,-1
 20 26 l 1,9,-1
 246 579 l 1,10,-1
 208 586 l 1,11,-1
 209 605 l 1,12,-1
 373 605 l 1,13,-1
 374 586 l 1,14,-1
 336 579 l 1,15,-1
 545 26 l 1,16,-1
 575 19 l 1,17,-1
 574 0 l 1,18,-1
 396 0 l 1,19,-1
 395 21 l 1,20,-1
 438 26 l 1,21,-1
 413 151 l 1,0,-1
285 507 m 1,22,-1
 192 271 l 1,23,-1
 370 271 l 1,24,-1
 285 507 l 1,22,-1
313 706 m 1,25,26
 340 746 340 746 371 767 c 1,27,28
 407 742 407 742 432 706 c 1,29,30
 409 670 409 670 371 645 c 1,31,32
 338 666 338 666 313 706 c 1,25,26
152 706 m 1,33,34
 177 744 177 744 213 767 c 1,35,36
 243 744 243 744 271 706 c 1,37,38
 243 666 243 666 213 645 c 1,39,40
 176 669 176 669 152 706 c 1,33,34
EndSplineSet
EndChar

StartChar: Agrave
Encoding: 192 192 217
Width: 565
Flags: HMW
HStem: 0 21G<-9 159> 204 67<192 370 192 394 166 370> 585 20G<209 373 373 373> 730 20G
LayerCount: 2
Fore
SplineSet
413 151 m 1,0,-1
 394 204 l 1,1,-1
 166 204 l 1,2,-1
 146 151 l 1,3,-1
 116 26 l 1,4,-1
 159 21 l 1,5,-1
 158 0 l 1,6,-1
 -9 0 l 1,7,-1
 -10 19 l 1,8,-1
 20 26 l 1,9,-1
 246 579 l 1,10,-1
 208 586 l 1,11,-1
 209 605 l 1,12,-1
 373 605 l 1,13,-1
 374 586 l 1,14,-1
 336 579 l 1,15,-1
 545 26 l 1,16,-1
 575 19 l 1,17,-1
 574 0 l 1,18,-1
 396 0 l 1,19,-1
 395 21 l 1,20,-1
 438 26 l 1,21,-1
 413 151 l 1,0,-1
285 507 m 1,22,-1
 192 271 l 1,23,-1
 370 271 l 1,24,-1
 285 507 l 1,22,-1
345 663 m 1,25,-1
 334 645 l 1,26,-1
 144 706 l 1,27,-1
 144 721 l 1,28,29
 179 752 179 752 242 752 c 1,30,-1
 345 663 l 1,25,-1
EndSplineSet
EndChar

StartChar: Aring
Encoding: 197 197 218
Width: 565
Flags: HMW
HStem: 0 21G<-9 159> 204 67<192 370 192 394 166 370> 585 20G<209 373 373 373> 645 32<280.5 303 280.5 314> 762 34<280.5 303>
VStem: 215 38<707.5 732.5 707.5 742.5> 330 39<707.5 732.5>
LayerCount: 2
Fore
SplineSet
413 151 m 1,0,-1
 394 204 l 1,1,-1
 166 204 l 1,2,-1
 146 151 l 1,3,-1
 116 26 l 1,4,-1
 159 21 l 1,5,-1
 158 0 l 1,6,-1
 -9 0 l 1,7,-1
 -10 19 l 1,8,-1
 20 26 l 1,9,-1
 246 579 l 1,10,-1
 208 586 l 1,11,-1
 209 605 l 1,12,-1
 373 605 l 1,13,-1
 374 586 l 1,14,-1
 336 579 l 1,15,-1
 545 26 l 1,16,-1
 575 19 l 1,17,-1
 574 0 l 1,18,-1
 396 0 l 1,19,-1
 395 21 l 1,20,-1
 438 26 l 1,21,-1
 413 151 l 1,0,-1
285 507 m 1,22,-1
 192 271 l 1,23,-1
 370 271 l 1,24,-1
 285 507 l 1,22,-1
292 796 m 128,-1,26
 325 796 325 796 347 774.5 c 128,-1,27
 369 753 369 753 369 720.5 c 0,28,29
 369 688 369 688 347 666.5 c 128,-1,30
 325 645 325 645 292 645 c 128,-1,31
 259 645 259 645 237 666.5 c 128,-1,32
 215 688 215 688 215 720.5 c 0,33,34
 215 753 215 753 237 774.5 c 128,-1,25
 259 796 259 796 292 796 c 128,-1,26
292 677 m 128,-1,36
 309 677 309 677 319.5 689 c 128,-1,37
 330 701 330 701 330 720 c 128,-1,38
 330 739 330 739 319.5 750.5 c 128,-1,39
 309 762 309 762 292 762 c 128,-1,40
 275 762 275 762 264 750.5 c 128,-1,41
 253 739 253 739 253 720 c 128,-1,42
 253 701 253 701 264 689 c 128,-1,35
 275 677 275 677 292 677 c 128,-1,36
EndSplineSet
EndChar

StartChar: Atilde
Encoding: 195 195 219
Width: 565
Flags: HMW
HStem: 0 21G<-9 159> 204 67<192 370 192 394 166 370> 585 20G<209 373 373 373> 728 20G<412 412>
LayerCount: 2
Fore
SplineSet
413 151 m 1,0,-1
 394 204 l 1,1,-1
 166 204 l 1,2,-1
 146 151 l 1,3,-1
 116 26 l 1,4,-1
 159 21 l 1,5,-1
 158 0 l 1,6,-1
 -9 0 l 1,7,-1
 -10 19 l 1,8,-1
 20 26 l 1,9,-1
 246 579 l 1,10,-1
 208 586 l 1,11,-1
 209 605 l 1,12,-1
 373 605 l 1,13,-1
 374 586 l 1,14,-1
 336 579 l 1,15,-1
 545 26 l 1,16,-1
 575 19 l 1,17,-1
 574 0 l 1,18,-1
 396 0 l 1,19,-1
 395 21 l 1,20,-1
 438 26 l 1,21,-1
 413 151 l 1,0,-1
285 507 m 1,22,-1
 192 271 l 1,23,-1
 370 271 l 1,24,-1
 285 507 l 1,22,-1
412 748 m 1,25,-1
 430 735 l 1,26,27
 397 680 397 680 383 666.5 c 128,-1,28
 369 653 369 653 344 653 c 0,29,30
 319 653 319 653 225 690 c 1,31,-1
 178 645 l 1,32,-1
 160 658 l 1,33,34
 191 711 191 711 205 726 c 128,-1,35
 219 741 219 741 242.5 741 c 0,36,37
 266 741 266 741 366 704 c 1,38,-1
 412 748 l 1,25,-1
EndSplineSet
EndChar

StartChar: Eacute
Encoding: 201 201 220
Width: 542
Flags: HMW
HStem: -27 21G<456 456> 0 68<190 338 190 439> 293 68<181 370 181 373> 537 68<190 338 190 190> 730 20G<352 352>
VStem: 102 83
LayerCount: 2
Fore
SplineSet
445 527 m 1,0,-1
 338 537 l 1,1,-1
 190 537 l 1,2,-1
 181 407 l 1,3,-1
 181 361 l 1,4,-1
 373 361 l 1,5,-1
 381 390 l 1,6,-1
 400 390 l 1,7,-1
 394 253 l 1,8,-1
 375 253 l 1,9,-1
 370 293 l 1,10,-1
 181 293 l 1,11,-1
 181 197 l 1,12,-1
 190 68 l 1,13,-1
 338 68 l 1,14,-1
 453 79 l 1,15,-1
 470 119 l 1,16,-1
 487 115 l 1,17,-1
 456 -27 l 1,18,-1
 438 -26 l 1,19,-1
 439 0 l 1,20,-1
 61 0 l 1,21,-1
 60 19 l 1,22,-1
 90 26 l 1,23,-1
 102 198 l 1,24,-1
 102 408 l 1,25,-1
 90 579 l 1,26,-1
 60 586 l 1,27,-1
 61 605 l 1,28,-1
 448 605 l 1,29,-1
 456 634 l 1,30,-1
 475 634 l 1,31,-1
 469 487 l 1,32,-1
 450 487 l 1,33,-1
 445 527 l 1,0,-1
231 645 m 1,34,-1
 220 663 l 1,35,-1
 352 750 l 1,36,-1
 421 719 l 1,37,-1
 421 706 l 1,38,-1
 231 645 l 1,34,-1
EndSplineSet
EndChar

StartChar: Ecircumflex
Encoding: 202 202 221
Width: 542
Flags: HMW
HStem: -27 21G<456 456> 0 68<190 338 190 439> 293 68<181 370 181 373> 537 68<190 338 190 190> 734 20G<267 274 274 274>
VStem: 102 83
LayerCount: 2
Fore
SplineSet
445 527 m 1,0,-1
 338 537 l 1,1,-1
 190 537 l 1,2,-1
 181 407 l 1,3,-1
 181 361 l 1,4,-1
 373 361 l 1,5,-1
 381 390 l 1,6,-1
 400 390 l 1,7,-1
 394 253 l 1,8,-1
 375 253 l 1,9,-1
 370 293 l 1,10,-1
 181 293 l 1,11,-1
 181 197 l 1,12,-1
 190 68 l 1,13,-1
 338 68 l 1,14,-1
 453 79 l 1,15,-1
 470 119 l 1,16,-1
 487 115 l 1,17,-1
 456 -27 l 1,18,-1
 438 -26 l 1,19,-1
 439 0 l 1,20,-1
 61 0 l 1,21,-1
 60 19 l 1,22,-1
 90 26 l 1,23,-1
 102 198 l 1,24,-1
 102 408 l 1,25,-1
 90 579 l 1,26,-1
 60 586 l 1,27,-1
 61 605 l 1,28,-1
 448 605 l 1,29,-1
 456 634 l 1,30,-1
 475 634 l 1,31,-1
 469 487 l 1,32,-1
 450 487 l 1,33,-1
 445 527 l 1,0,-1
158 645 m 1,34,-1
 147 664 l 1,35,-1
 267 754 l 1,36,-1
 274 754 l 1,37,-1
 394 663 l 1,38,-1
 383 645 l 1,39,-1
 270 683 l 1,40,-1
 158 645 l 1,34,-1
EndSplineSet
EndChar

StartChar: Edieresis
Encoding: 203 203 222
Width: 542
Flags: HMW
HStem: -27 21G<456 456> 0 68<190 338 190 439> 293 68<181 370 181 373> 537 68<190 338 190 190> 747 20G
VStem: 102 83
LayerCount: 2
Fore
SplineSet
445 527 m 1,0,-1
 338 537 l 1,1,-1
 190 537 l 1,2,-1
 181 407 l 1,3,-1
 181 361 l 1,4,-1
 373 361 l 1,5,-1
 381 390 l 1,6,-1
 400 390 l 1,7,-1
 394 253 l 1,8,-1
 375 253 l 1,9,-1
 370 293 l 1,10,-1
 181 293 l 1,11,-1
 181 197 l 1,12,-1
 190 68 l 1,13,-1
 338 68 l 1,14,-1
 445 78 l 1,15,-1
 453 79 l 1,16,-1
 470 119 l 1,17,-1
 487 115 l 1,18,-1
 456 -27 l 1,19,-1
 438 -26 l 1,20,-1
 439 0 l 1,21,-1
 61 0 l 1,22,-1
 60 19 l 1,23,-1
 90 26 l 1,24,-1
 102 198 l 1,25,-1
 102 408 l 1,26,-1
 90 579 l 1,27,-1
 60 586 l 1,28,-1
 61 605 l 1,29,-1
 448 605 l 1,30,-1
 456 634 l 1,31,-1
 475 634 l 1,32,-1
 469 487 l 1,33,-1
 450 487 l 1,34,-1
 445 527 l 1,0,-1
292 706 m 1,35,36
 319 746 319 746 350 767 c 1,37,38
 386 742 386 742 411 706 c 1,39,40
 388 670 388 670 350 645 c 1,41,42
 317 666 317 666 292 706 c 1,35,36
131 706 m 1,43,44
 156 744 156 744 192 767 c 1,45,46
 222 744 222 744 250 706 c 1,47,48
 222 666 222 666 192 645 c 1,49,50
 155 669 155 669 131 706 c 1,43,44
EndSplineSet
EndChar

StartChar: Egrave
Encoding: 200 200 223
Width: 542
Flags: HMW
HStem: -27 21G<456 456> 0 68<190 338 190 439> 293 68<181 370 181 373> 537 68<190 338 190 190> 730 20G
VStem: 102 83
LayerCount: 2
Fore
SplineSet
445 527 m 1,0,-1
 338 537 l 1,1,-1
 190 537 l 1,2,-1
 181 407 l 1,3,-1
 181 361 l 1,4,-1
 373 361 l 1,5,-1
 381 390 l 1,6,-1
 400 390 l 1,7,-1
 394 253 l 1,8,-1
 375 253 l 1,9,-1
 370 293 l 1,10,-1
 181 293 l 1,11,-1
 181 197 l 1,12,-1
 190 68 l 1,13,-1
 338 68 l 1,14,-1
 453 79 l 1,15,-1
 470 119 l 1,16,-1
 487 115 l 1,17,-1
 456 -27 l 1,18,-1
 438 -26 l 1,19,-1
 439 0 l 1,20,-1
 61 0 l 1,21,-1
 60 19 l 1,22,-1
 90 26 l 1,23,-1
 102 198 l 1,24,-1
 102 408 l 1,25,-1
 90 579 l 1,26,-1
 60 586 l 1,27,-1
 61 605 l 1,28,-1
 448 605 l 1,29,-1
 456 634 l 1,30,-1
 475 634 l 1,31,-1
 469 487 l 1,32,-1
 450 487 l 1,33,-1
 445 527 l 1,0,-1
342 663 m 1,34,-1
 331 645 l 1,35,-1
 141 706 l 1,36,-1
 141 721 l 1,37,38
 176 752 176 752 239 752 c 1,39,-1
 342 663 l 1,34,-1
EndSplineSet
EndChar

StartChar: Iacute
Encoding: 205 205 224
Width: 283
Flags: HMW
HStem: 0 21G<61 222 61 61> 585 20G<61 222 222 222> 730 20G
VStem: 102 79<198 407 197 408 197 408>
LayerCount: 2
Fore
SplineSet
90 26 m 1,0,-1
 102 198 l 1,1,-1
 102 408 l 1,2,-1
 90 579 l 1,3,-1
 60 586 l 1,4,-1
 61 605 l 1,5,-1
 222 605 l 1,6,-1
 223 586 l 1,7,-1
 193 579 l 1,8,-1
 181 407 l 1,9,-1
 181 197 l 1,10,-1
 193 26 l 1,11,-1
 223 19 l 1,12,-1
 222 0 l 1,13,-1
 61 0 l 1,14,-1
 60 19 l 1,15,-1
 90 26 l 1,0,-1
81 645 m 1,16,-1
 70 663 l 1,17,-1
 173 752 l 1,18,19
 236 752 236 752 271 721 c 1,20,-1
 271 706 l 1,21,-1
 81 645 l 1,16,-1
EndSplineSet
EndChar

StartChar: Icircumflex
Encoding: 206 206 225
Width: 283
Flags: HMW
HStem: 0 21G<61 222 61 61> 585 20G<61 222 222 222> 734 20G<138 145 145 145>
VStem: 102 79<198 407 197 408 197 408>
LayerCount: 2
Fore
SplineSet
90 26 m 1,0,-1
 102 198 l 1,1,-1
 102 408 l 1,2,-1
 90 579 l 1,3,-1
 60 586 l 1,4,-1
 61 605 l 1,5,-1
 222 605 l 1,6,-1
 223 586 l 1,7,-1
 193 579 l 1,8,-1
 181 407 l 1,9,-1
 181 197 l 1,10,-1
 193 26 l 1,11,-1
 223 19 l 1,12,-1
 222 0 l 1,13,-1
 61 0 l 1,14,-1
 60 19 l 1,15,-1
 90 26 l 1,0,-1
29 645 m 1,16,-1
 18 664 l 1,17,-1
 138 754 l 1,18,-1
 145 754 l 1,19,-1
 265 663 l 1,20,-1
 254 645 l 1,21,-1
 141 683 l 1,22,-1
 29 645 l 1,16,-1
EndSplineSet
EndChar

StartChar: Idieresis
Encoding: 207 207 226
Width: 283
Flags: HMW
HStem: 0 21G<61 222 61 61> 585 20G<61 222 222 222> 747 20G
VStem: 102 79<198 407 197 408 197 408>
LayerCount: 2
Fore
SplineSet
90 26 m 1,0,-1
 102 198 l 1,1,-1
 102 408 l 1,2,-1
 90 579 l 1,3,-1
 60 586 l 1,4,-1
 61 605 l 1,5,-1
 222 605 l 1,6,-1
 223 586 l 1,7,-1
 193 579 l 1,8,-1
 181 407 l 1,9,-1
 181 197 l 1,10,-1
 193 26 l 1,11,-1
 223 19 l 1,12,-1
 222 0 l 1,13,-1
 61 0 l 1,14,-1
 60 19 l 1,15,-1
 90 26 l 1,0,-1
163 706 m 1,16,17
 190 746 190 746 221 767 c 1,18,19
 257 742 257 742 282 706 c 1,20,21
 259 670 259 670 221 645 c 1,22,23
 188 666 188 666 163 706 c 1,16,17
2 706 m 1,24,25
 27 744 27 744 63 767 c 1,26,27
 93 744 93 744 121 706 c 1,28,29
 93 666 93 666 63 645 c 1,30,31
 26 669 26 669 2 706 c 1,24,25
EndSplineSet
EndChar

StartChar: Igrave
Encoding: 204 204 227
Width: 283
Flags: HMW
HStem: 0 21G<61 222 61 61> 585 20G<61 222 222 222> 730 20G
VStem: 102 79<198 407 197 408 197 408>
LayerCount: 2
Fore
SplineSet
90 26 m 1,0,-1
 102 198 l 1,1,-1
 102 408 l 1,2,-1
 90 579 l 1,3,-1
 60 586 l 1,4,-1
 61 605 l 1,5,-1
 222 605 l 1,6,-1
 223 586 l 1,7,-1
 193 579 l 1,8,-1
 181 407 l 1,9,-1
 181 197 l 1,10,-1
 193 26 l 1,11,-1
 223 19 l 1,12,-1
 222 0 l 1,13,-1
 61 0 l 1,14,-1
 60 19 l 1,15,-1
 90 26 l 1,0,-1
216 663 m 1,16,-1
 205 645 l 1,17,-1
 15 706 l 1,18,-1
 15 721 l 1,19,20
 50 752 50 752 113 752 c 1,21,-1
 216 663 l 1,16,-1
EndSplineSet
EndChar

StartChar: Ntilde
Encoding: 209 209 228
Width: 672
Flags: HMW
HStem: 0 21G<61 226> 585 20G<61 227 227 227 446 611 611 611> 728 20G<467 467>
VStem: 102 72<198 408 408 408> 498 78
LayerCount: 2
Fore
SplineSet
90 26 m 1,0,-1
 102 198 l 1,1,-1
 102 408 l 1,2,-1
 89 579 l 1,3,-1
 60 586 l 1,4,-1
 61 605 l 1,5,-1
 227 605 l 1,6,-1
 228 584 l 1,7,-1
 183 579 l 1,8,-1
 498 146 l 1,9,-1
 498 408 l 1,10,-1
 485 579 l 1,11,-1
 445 584 l 1,12,-1
 446 605 l 1,13,-1
 611 605 l 1,14,-1
 612 586 l 1,15,-1
 582 579 l 1,16,-1
 570 407 l 1,17,-1
 570 224 l 1,18,-1
 582 26 l 1,19,-1
 612 19 l 1,20,-1
 611 0 l 1,21,-1
 449 0 l 1,22,-1
 448 21 l 1,23,-1
 493 26 l 1,24,-1
 174 463 l 1,25,-1
 174 197 l 1,26,-1
 186 26 l 1,27,-1
 226 21 l 1,28,-1
 225 0 l 1,29,-1
 61 0 l 1,30,-1
 60 19 l 1,31,-1
 90 26 l 1,0,-1
467 748 m 1,32,-1
 485 735 l 1,33,34
 452 680 452 680 438 666.5 c 128,-1,35
 424 653 424 653 399 653 c 0,36,37
 374 653 374 653 280 690 c 1,38,-1
 233 645 l 1,39,-1
 215 658 l 1,40,41
 247 713 247 713 262 727 c 128,-1,42
 277 741 277 741 299.5 741 c 0,43,44
 322 741 322 741 421 704 c 1,45,-1
 467 748 l 1,32,-1
EndSplineSet
EndChar

StartChar: Oacute
Encoding: 211 211 229
Width: 678
Flags: HMW
HStem: -15 66<287.5 416 287.5 419.5> 554 66<261 390> 730 20G
VStem: 50 96<219 386 219 393.5> 532 96<216.5 386.5>
LayerCount: 2
Fore
SplineSet
124 67.5 m 128,-1,1
 50 150 50 150 50 297 c 128,-1,2
 50 444 50 444 131 532 c 128,-1,3
 212 620 212 620 346 620 c 128,-1,4
 480 620 480 620 554 538 c 128,-1,5
 628 456 628 456 628 309 c 128,-1,6
 628 162 628 162 546.5 73.5 c 128,-1,7
 465 -15 465 -15 331.5 -15 c 128,-1,0
 198 -15 198 -15 124 67.5 c 128,-1,1
188.5 492.5 m 128,-1,9
 146 431 146 431 146 305.5 c 128,-1,10
 146 180 146 180 200.5 115.5 c 128,-1,11
 255 51 255 51 351 51 c 128,-1,12
 447 51 447 51 489.5 111.5 c 128,-1,13
 532 172 532 172 532 299.5 c 128,-1,14
 532 427 532 427 478 490.5 c 128,-1,15
 424 554 424 554 327.5 554 c 128,-1,8
 231 554 231 554 188.5 492.5 c 128,-1,9
304 645 m 1,16,-1
 293 663 l 1,17,-1
 396 752 l 1,18,19
 459 752 459 752 494 721 c 1,20,-1
 494 706 l 1,21,-1
 304 645 l 1,16,-1
EndSplineSet
EndChar

StartChar: Ocircumflex
Encoding: 212 212 230
Width: 678
Flags: HMW
HStem: -15 66<287.5 416 287.5 419.5> 554 66<261 390> 734 20G<335 342 342 342>
VStem: 50 96<219 386 219 393.5> 532 96<216.5 386.5>
LayerCount: 2
Fore
SplineSet
124 67.5 m 128,-1,1
 50 150 50 150 50 297 c 128,-1,2
 50 444 50 444 131 532 c 128,-1,3
 212 620 212 620 346 620 c 128,-1,4
 480 620 480 620 554 538 c 128,-1,5
 628 456 628 456 628 309 c 128,-1,6
 628 162 628 162 546.5 73.5 c 128,-1,7
 465 -15 465 -15 331.5 -15 c 128,-1,0
 198 -15 198 -15 124 67.5 c 128,-1,1
188.5 492.5 m 128,-1,9
 146 431 146 431 146 305.5 c 128,-1,10
 146 180 146 180 200.5 115.5 c 128,-1,11
 255 51 255 51 351 51 c 128,-1,12
 447 51 447 51 489.5 111.5 c 128,-1,13
 532 172 532 172 532 299.5 c 128,-1,14
 532 427 532 427 478 490.5 c 128,-1,15
 424 554 424 554 327.5 554 c 128,-1,8
 231 554 231 554 188.5 492.5 c 128,-1,9
226 645 m 1,16,-1
 215 664 l 1,17,-1
 335 754 l 1,18,-1
 342 754 l 1,19,-1
 462 663 l 1,20,-1
 451 645 l 1,21,-1
 338 683 l 1,22,-1
 226 645 l 1,16,-1
EndSplineSet
EndChar

StartChar: Odieresis
Encoding: 214 214 231
Width: 678
Flags: HMW
HStem: -15 66<287.5 416 287.5 419.5> 554 66<261 390> 747 20G
VStem: 50 96<219 386 219 393.5> 532 96<216.5 386.5>
LayerCount: 2
Fore
SplineSet
360 706 m 1,0,1
 387 746 387 746 418 767 c 1,2,3
 454 742 454 742 479 706 c 1,4,5
 456 670 456 670 418 645 c 1,6,7
 385 666 385 666 360 706 c 1,0,1
199 706 m 1,8,9
 224 744 224 744 260 767 c 1,10,11
 290 744 290 744 318 706 c 1,12,13
 290 666 290 666 260 645 c 1,14,15
 223 669 223 669 199 706 c 1,8,9
188.5 492.5 m 128,-1,17
 146 431 146 431 146 305.5 c 128,-1,18
 146 180 146 180 200.5 115.5 c 128,-1,19
 255 51 255 51 351 51 c 128,-1,20
 447 51 447 51 489.5 111.5 c 128,-1,21
 532 172 532 172 532 299.5 c 128,-1,22
 532 427 532 427 478 490.5 c 128,-1,23
 424 554 424 554 327.5 554 c 128,-1,16
 231 554 231 554 188.5 492.5 c 128,-1,17
124 67.5 m 128,-1,25
 50 150 50 150 50 297 c 128,-1,26
 50 444 50 444 131 532 c 128,-1,27
 212 620 212 620 346 620 c 128,-1,28
 480 620 480 620 554 538 c 128,-1,29
 628 456 628 456 628 309 c 128,-1,30
 628 162 628 162 546.5 73.5 c 128,-1,31
 465 -15 465 -15 331.5 -15 c 128,-1,24
 198 -15 198 -15 124 67.5 c 128,-1,25
EndSplineSet
EndChar

StartChar: Ograve
Encoding: 210 210 232
Width: 678
Flags: HMW
HStem: -15 66<287.5 416 287.5 419.5> 554 66<261 390> 730 20G
VStem: 50 96<219 386 219 393.5> 532 96<216.5 386.5>
LayerCount: 2
Fore
SplineSet
124 67.5 m 128,-1,1
 50 150 50 150 50 297 c 128,-1,2
 50 444 50 444 131 532 c 128,-1,3
 212 620 212 620 346 620 c 128,-1,4
 480 620 480 620 554 538 c 128,-1,5
 628 456 628 456 628 309 c 128,-1,6
 628 162 628 162 546.5 73.5 c 128,-1,7
 465 -15 465 -15 331.5 -15 c 128,-1,0
 198 -15 198 -15 124 67.5 c 128,-1,1
188.5 492.5 m 128,-1,9
 146 431 146 431 146 305.5 c 128,-1,10
 146 180 146 180 200.5 115.5 c 128,-1,11
 255 51 255 51 351 51 c 128,-1,12
 447 51 447 51 489.5 111.5 c 128,-1,13
 532 172 532 172 532 299.5 c 128,-1,14
 532 427 532 427 478 490.5 c 128,-1,15
 424 554 424 554 327.5 554 c 128,-1,8
 231 554 231 554 188.5 492.5 c 128,-1,9
406 663 m 1,16,-1
 395 645 l 1,17,-1
 205 706 l 1,18,-1
 205 721 l 1,19,20
 240 752 240 752 303 752 c 1,21,-1
 406 663 l 1,16,-1
EndSplineSet
EndChar

StartChar: Otilde
Encoding: 213 213 233
Width: 678
Flags: HMW
HStem: -15 66<287.5 416 287.5 419.5> 554 66<261 390> 554 187<270.5 296.5 270.5 390> 728 20G<456 456>
VStem: 50 96<219 386 219 393.5> 532 96<216.5 386.5>
LayerCount: 2
Fore
SplineSet
124 67.5 m 128,-1,1
 50 150 50 150 50 297 c 128,-1,2
 50 444 50 444 131 532 c 128,-1,3
 212 620 212 620 346 620 c 128,-1,4
 480 620 480 620 554 538 c 128,-1,5
 628 456 628 456 628 309 c 128,-1,6
 628 162 628 162 546.5 73.5 c 128,-1,7
 465 -15 465 -15 331.5 -15 c 128,-1,0
 198 -15 198 -15 124 67.5 c 128,-1,1
188.5 492.5 m 128,-1,9
 146 431 146 431 146 305.5 c 128,-1,10
 146 180 146 180 200.5 115.5 c 128,-1,11
 255 51 255 51 351 51 c 128,-1,12
 447 51 447 51 489.5 111.5 c 128,-1,13
 532 172 532 172 532 299.5 c 128,-1,14
 532 427 532 427 478 490.5 c 128,-1,15
 424 554 424 554 327.5 554 c 128,-1,8
 231 554 231 554 188.5 492.5 c 128,-1,9
456 748 m 1,16,-1
 474 735 l 1,17,18
 441 680 441 680 427 666.5 c 128,-1,19
 413 653 413 653 388 653 c 128,-1,20
 363 653 363 653 269 690 c 1,21,-1
 222 645 l 1,22,-1
 204 658 l 1,23,24
 235 711 235 711 249 726 c 128,-1,25
 263 741 263 741 286.5 741 c 128,-1,26
 310 741 310 741 410 704 c 1,27,-1
 456 748 l 1,16,-1
EndSplineSet
EndChar

StartChar: Scaron
Encoding: 352 352 234
Width: 500
Flags: HMW
HStem: -15 66<221 287.5 221 288.5> 557 63<217 273.5> 734 20G<163 163 388 388>
VStem: 64 89<404.5 505> 377 78<117.5 226.5>
LayerCount: 2
Fore
SplineSet
388 754 m 1,0,-1
 401 737 l 1,1,-1
 279 645 l 1,2,-1
 272 645 l 1,3,-1
 151 736 l 1,4,-1
 163 754 l 1,5,-1
 276 715 l 1,6,-1
 388 754 l 1,0,-1
112 142 m 1,7,-1
 107 96 l 1,8,9
 185 51 185 51 246 51 c 0,10,11
 307 51 307 51 342 76 c 128,-1,12
 377 101 377 101 377 141.5 c 0,13,14
 377 182 377 182 354 210.5 c 128,-1,15
 331 239 331 239 296 254 c 128,-1,16
 261 269 261 269 220.5 287.5 c 128,-1,17
 180 306 180 306 145 323.5 c 128,-1,18
 110 341 110 341 87 375 c 128,-1,19
 64 409 64 409 64 456 c 0,20,21
 64 529 64 529 124.5 574.5 c 128,-1,22
 185 620 185 620 281 620 c 0,23,24
 340 620 340 620 402 601 c 1,25,-1
 409 627 l 1,26,-1
 428 627 l 1,27,-1
 420 458 l 1,28,-1
 401 458 l 1,29,-1
 394 501 l 1,30,31
 309 557 309 557 245 557 c 0,32,33
 201 557 201 557 177 537.5 c 128,-1,34
 153 518 153 518 153 479 c 0,35,36
 153 440 153 440 184 412 c 128,-1,37
 215 384 215 384 259.5 367 c 128,-1,38
 304 350 304 350 348.5 330.5 c 128,-1,39
 393 311 393 311 424 272.5 c 128,-1,40
 455 234 455 234 455 176 c 0,41,42
 455 88 455 88 390 36.5 c 128,-1,43
 325 -15 325 -15 216 -15 c 0,44,45
 152 -15 152 -15 72 8 c 1,46,-1
 58 -14 l 1,47,-1
 40 -8 l 1,48,-1
 94 147 l 1,49,-1
 112 142 l 1,7,-1
EndSplineSet
EndChar

StartChar: Uacute
Encoding: 218 218 235
Width: 632
Flags: HMW
HStem: -15 66<261 364.5 261 384> 585 20G<51 222 222 222 411 581 581 581> 730 20G
VStem: 86 85 455 85
LayerCount: 2
Fore
SplineSet
183 579 m 1,0,-1
 171 407 l 1,1,-1
 171 297 l 2,2,3
 171 165 171 165 203.5 108 c 128,-1,4
 236 51 236 51 313.5 51 c 0,5,6
 391 51 391 51 426 101 c 128,-1,7
 461 151 461 151 461 264 c 2,8,-1
 461 408 l 1,9,-1
 450 579 l 1,10,-1
 410 584 l 1,11,-1
 411 605 l 1,12,-1
 581 605 l 1,13,-1
 582 586 l 1,14,-1
 552 579 l 1,15,-1
 540 407 l 1,16,-1
 540 275 l 2,17,18
 540 -15 540 -15 305 -15 c 0,19,20
 92 -15 92 -15 92 263 c 2,21,-1
 92 408 l 1,22,-1
 80 579 l 1,23,-1
 50 586 l 1,24,-1
 51 605 l 1,25,-1
 222 605 l 1,26,-1
 223 584 l 1,27,-1
 183 579 l 1,0,-1
268 645 m 1,28,-1
 257 663 l 1,29,-1
 360 752 l 1,30,31
 423 752 423 752 458 721 c 1,32,-1
 458 706 l 1,33,-1
 268 645 l 1,28,-1
EndSplineSet
EndChar

StartChar: Ucircumflex
Encoding: 219 219 236
Width: 632
Flags: HMW
HStem: -15 66<261 364.5 261 384> 585 20G<51 222 222 222 411 581 581 581> 734 20G<312 319 319 319>
VStem: 86 85 455 85
LayerCount: 2
Fore
SplineSet
183 579 m 1,0,-1
 171 407 l 1,1,-1
 171 297 l 2,2,3
 171 165 171 165 203.5 108 c 128,-1,4
 236 51 236 51 313.5 51 c 0,5,6
 391 51 391 51 426 101 c 128,-1,7
 461 151 461 151 461 264 c 2,8,-1
 461 408 l 1,9,-1
 450 579 l 1,10,-1
 410 584 l 1,11,-1
 411 605 l 1,12,-1
 581 605 l 1,13,-1
 582 586 l 1,14,-1
 552 579 l 1,15,-1
 540 407 l 1,16,-1
 540 275 l 2,17,18
 540 -15 540 -15 305 -15 c 0,19,20
 92 -15 92 -15 92 263 c 2,21,-1
 92 408 l 1,22,-1
 80 579 l 1,23,-1
 50 586 l 1,24,-1
 51 605 l 1,25,-1
 222 605 l 1,26,-1
 223 584 l 1,27,-1
 183 579 l 1,0,-1
203 645 m 1,28,-1
 192 664 l 1,29,-1
 312 754 l 1,30,-1
 319 754 l 1,31,-1
 439 663 l 1,32,-1
 428 645 l 1,33,-1
 315 683 l 1,34,-1
 203 645 l 1,28,-1
EndSplineSet
EndChar

StartChar: Udieresis
Encoding: 220 220 237
Width: 632
Flags: HMW
HStem: -15 66<261 364.5 261 384> 585 20G<51 222 222 222 411 581 581 581> 747 20G
VStem: 86 85 455 85
LayerCount: 2
Fore
SplineSet
183 579 m 1,0,-1
 171 407 l 1,1,-1
 171 297 l 2,2,3
 171 165 171 165 203.5 108 c 128,-1,4
 236 51 236 51 313.5 51 c 0,5,6
 391 51 391 51 426 101 c 128,-1,7
 461 151 461 151 461 264 c 2,8,-1
 461 408 l 1,9,-1
 450 579 l 1,10,-1
 410 584 l 1,11,-1
 411 605 l 1,12,-1
 581 605 l 1,13,-1
 582 586 l 1,14,-1
 552 579 l 1,15,-1
 540 407 l 1,16,-1
 540 275 l 2,17,18
 540 -15 540 -15 305 -15 c 0,19,20
 92 -15 92 -15 92 263 c 2,21,-1
 92 408 l 1,22,-1
 80 579 l 1,23,-1
 50 586 l 1,24,-1
 51 605 l 1,25,-1
 222 605 l 1,26,-1
 223 584 l 1,27,-1
 183 579 l 1,0,-1
337 706 m 1,28,29
 364 746 364 746 395 767 c 1,30,31
 431 742 431 742 456 706 c 1,32,33
 433 670 433 670 395 645 c 1,34,35
 362 666 362 666 337 706 c 1,28,29
176 706 m 1,36,37
 201 744 201 744 237 767 c 1,38,39
 267 744 267 744 295 706 c 1,40,41
 267 666 267 666 237 645 c 1,42,43
 200 669 200 669 176 706 c 1,36,37
EndSplineSet
EndChar

StartChar: Ugrave
Encoding: 217 217 238
Width: 632
Flags: HMW
HStem: -15 66<261 364.5 261 384> 585 20G<51 222 222 222 411 581 581 581> 730 20G
VStem: 86 85 455 85
LayerCount: 2
Fore
SplineSet
183 579 m 1,0,-1
 171 407 l 1,1,-1
 171 297 l 2,2,3
 171 165 171 165 203.5 108 c 128,-1,4
 236 51 236 51 313.5 51 c 0,5,6
 391 51 391 51 426 101 c 128,-1,7
 461 151 461 151 461 264 c 2,8,-1
 461 408 l 1,9,-1
 450 579 l 1,10,-1
 410 584 l 1,11,-1
 411 605 l 1,12,-1
 581 605 l 1,13,-1
 582 586 l 1,14,-1
 552 579 l 1,15,-1
 540 407 l 1,16,-1
 540 275 l 2,17,18
 540 -15 540 -15 305 -15 c 0,19,20
 92 -15 92 -15 92 263 c 2,21,-1
 92 408 l 1,22,-1
 80 579 l 1,23,-1
 50 586 l 1,24,-1
 51 605 l 1,25,-1
 222 605 l 1,26,-1
 223 584 l 1,27,-1
 183 579 l 1,0,-1
372 663 m 1,28,-1
 361 645 l 1,29,-1
 171 706 l 1,30,-1
 171 721 l 1,31,32
 206 752 206 752 269 752 c 1,33,-1
 372 663 l 1,28,-1
EndSplineSet
EndChar

StartChar: Yacute
Encoding: 221 221 239
Width: 502
Flags: HMW
HStem: 0 21G<157 348 157 157> 585 20G<-4 175 175 175 340 506 506 506> 730 20G
VStem: 207 91
LayerCount: 2
Fore
SplineSet
137 579 m 1,0,-1
 174 472 l 1,1,-1
 258 315 l 1,2,-1
 344 470 l 1,3,-1
 381 579 l 1,4,-1
 339 584 l 1,5,-1
 340 605 l 1,6,-1
 506 605 l 1,7,-1
 507 586 l 1,8,-1
 477 579 l 1,9,-1
 292 255 l 1,10,-1
 292 197 l 1,11,-1
 304 26 l 1,12,-1
 349 19 l 1,13,-1
 348 0 l 1,14,-1
 157 0 l 1,15,-1
 156 19 l 1,16,-1
 201 26 l 1,17,-1
 213 198 l 1,18,-1
 213 242 l 1,19,-1
 25 579 l 1,20,-1
 -5 586 l 1,21,-1
 -4 605 l 1,22,-1
 175 605 l 1,23,-1
 176 584 l 1,24,-1
 137 579 l 1,0,-1
218 645 m 1,25,-1
 207 663 l 1,26,-1
 310 752 l 1,27,28
 373 752 373 752 408 721 c 1,29,-1
 408 706 l 1,30,-1
 218 645 l 1,25,-1
EndSplineSet
EndChar

StartChar: Ydieresis
Encoding: 376 376 240
Width: 502
Flags: HMW
HStem: 0 21G<157 348 157 157> 585 20G<-4 175 175 175 340 506 506 506> 747 20G
VStem: 207 91
LayerCount: 2
Fore
SplineSet
137 579 m 1,0,-1
 174 472 l 1,1,-1
 258 315 l 1,2,-1
 344 470 l 1,3,-1
 381 579 l 1,4,-1
 339 584 l 1,5,-1
 340 605 l 1,6,-1
 506 605 l 1,7,-1
 507 586 l 1,8,-1
 477 579 l 1,9,-1
 292 255 l 1,10,-1
 292 197 l 1,11,-1
 304 26 l 1,12,-1
 349 19 l 1,13,-1
 348 0 l 1,14,-1
 157 0 l 1,15,-1
 156 19 l 1,16,-1
 201 26 l 1,17,-1
 213 198 l 1,18,-1
 213 242 l 1,19,-1
 25 579 l 1,20,-1
 -5 586 l 1,21,-1
 -4 605 l 1,22,-1
 175 605 l 1,23,-1
 176 584 l 1,24,-1
 137 579 l 1,0,-1
282 706 m 1,25,26
 309 746 309 746 340 767 c 1,27,28
 376 742 376 742 401 706 c 1,29,30
 378 670 378 670 340 645 c 1,31,32
 307 666 307 666 282 706 c 1,25,26
121 706 m 1,33,34
 146 744 146 744 182 767 c 1,35,36
 212 744 212 744 240 706 c 1,37,38
 212 666 212 666 182 645 c 1,39,40
 145 669 145 669 121 706 c 1,33,34
EndSplineSet
EndChar

StartChar: Zcaron
Encoding: 381 381 241
Width: 462
Flags: HMW
HStem: -31 21G<424 424> 5 61 537 68 734 20G<126 126 351 351>
LayerCount: 2
Fore
SplineSet
53 605 m 1,0,-1
 329 605 l 1,1,-1
 445 613 l 1,2,-1
 453 596 l 1,3,-1
 131 63 l 1,4,-1
 293 69 l 1,5,-1
 421 87 l 1,6,-1
 438 128 l 1,7,-1
 455 124 l 1,8,-1
 424 -31 l 1,9,-1
 406 -30 l 1,10,-1
 407 -3 l 1,11,-1
 264 5 l 1,12,-1
 119 5 l 1,13,-1
 14 -1 l 1,14,-1
 6 15 l 1,15,-1
 316 540 l 1,16,-1
 163 534 l 1,17,-1
 56 522 l 1,18,-1
 51 482 l 1,19,-1
 32 482 l 1,20,-1
 26 634 l 1,21,-1
 45 634 l 1,22,-1
 53 605 l 1,0,-1
351 754 m 1,23,-1
 364 737 l 1,24,-1
 242 645 l 1,25,-1
 235 645 l 1,26,-1
 114 736 l 1,27,-1
 126 754 l 1,28,-1
 239 715 l 1,29,-1
 351 754 l 1,23,-1
EndSplineSet
EndChar

StartChar: Ccedilla
Encoding: 199 199 242
Width: 558
Flags: HMW
HStem: -221 32<296 320.5 295.5 339.5> -15 66<316 316> 554 66<261 337.5>
VStem: 50 96<225.5 384.5 225.5 393.5> 360 54<-158.5 -134>
LayerCount: 2
Fore
SplineSet
190 489.5 m 128,-1,1
 146 425 146 425 146 305.5 c 128,-1,2
 146 186 146 186 192.5 118.5 c 128,-1,3
 239 51 239 51 318.5 51 c 128,-1,4
 398 51 398 51 488 103 c 1,5,-1
 505 143 l 1,6,-1
 523 139 l 1,7,-1
 488 -20 l 1,8,-1
 468 -20 l 1,9,-1
 469 5 l 1,10,11
 411 -13 411 -13 350 -14 c 1,12,-1
 328 -59 l 1,13,14
 381 -79 381 -79 397.5 -93 c 128,-1,15
 414 -107 414 -107 414 -132 c 0,16,17
 414 -172 414 -172 384.5 -196.5 c 128,-1,18
 355 -221 355 -221 314 -221 c 128,-1,19
 273 -221 273 -221 237 -207 c 1,20,-1
 242 -178 l 1,21,22
 273 -189 273 -189 301 -189 c 128,-1,23
 329 -189 329 -189 344.5 -177 c 128,-1,24
 360 -165 360 -165 360 -146.5 c 128,-1,25
 360 -128 360 -128 346.5 -120.5 c 128,-1,26
 333 -113 333 -113 273 -97 c 1,27,-1
 316 -15 l 1,28,29
 190 -13 190 -13 120 67.5 c 128,-1,30
 50 148 50 148 50 296 c 128,-1,31
 50 444 50 444 127 532 c 128,-1,32
 204 620 204 620 336 620 c 0,33,34
 402 620 402 620 476 595 c 1,35,-1
 483 620 l 1,36,-1
 502 620 l 1,37,-1
 495 466 l 1,38,-1
 476 466 l 1,39,-1
 469 508 l 1,40,41
 381 554 381 554 316 554 c 0,42,0
 234 554 234 554 190 489.5 c 128,-1,1
EndSplineSet
EndChar

StartChar: ydieresis
Encoding: 255 255 243
Width: 398
Flags: HMW
HStem: -221 21G<15 143 15 15> 379 20G<-14 163 163 163 254 412 412 412> 588 20G
LayerCount: 2
Fore
SplineSet
383 373 m 1,0,-1
 165 -139 l 1,1,-1
 143 -221 l 1,2,-1
 15 -221 l 1,3,-1
 14 -203 l 1,4,-1
 57 -196 l 1,5,-1
 165 1 l 1,6,-1
 15 373 l 1,7,-1
 -15 380 l 1,8,-1
 -14 399 l 1,9,-1
 163 399 l 1,10,-1
 164 378 l 1,11,-1
 120 373 l 1,12,-1
 141 283 l 1,13,-1
 203 90 l 1,14,-1
 279 283 l 1,15,-1
 297 373 l 1,16,-1
 253 378 l 1,17,-1
 254 399 l 1,18,-1
 412 399 l 1,19,-1
 413 380 l 1,20,-1
 383 373 l 1,0,-1
227 547 m 1,21,22
 254 587 254 587 285 608 c 1,23,24
 321 583 321 583 346 547 c 1,25,26
 323 511 323 511 285 486 c 1,27,28
 252 507 252 507 227 547 c 1,21,22
66 547 m 1,29,30
 91 585 91 585 127 608 c 1,31,32
 157 585 157 585 185 547 c 1,33,34
 157 507 157 507 127 486 c 1,35,36
 90 510 90 510 66 547 c 1,29,30
EndSplineSet
EndChar

